  0
SECTION
  2
HEADER
  9
$ACADVER
  1
AC1027
  9
$ACADMAINTVER
 70
     8
  9
$DWGCODEPAGE
  3
ANSI_1252
  9
$REQUIREDVERSIONS
160
                 0
  9
$INSBASE
 10
0.0
 20
0.0
 30
0.0
  9
$EXTMIN
 10
0.0
 20
-0.508
 30
0.0
  9
$EXTMAX
 10
28.0035
 20
47.0894
 30
0.0
  9
$LIMMIN
 10
0.0
 20
0.0
  9
$LIMMAX
 10
12.0
 20
9.0
  9
$ORTHOMODE
 70
     0
  9
$REGENMODE
 70
     1
  9
$FILLMODE
 70
     1
  9
$QTEXTMODE
 70
     0
  9
$MIRRTEXT
 70
     1
  9
$LTSCALE
 40
1.0
  9
$ATTMODE
 70
     1
  9
$TEXTSIZE
 40
0.2
  9
$TRACEWID
 40
0.05
  9
$TEXTSTYLE
  7
Standard
  9
$CLAYER
  8
0
  9
$CELTYPE
  6
ByLayer
  9
$CECOLOR
 62
    18
  9
$CELTSCALE
 40
1.0
  9
$DISPSILH
 70
     0
  9
$DIMSCALE
 40
1.0
  9
$DIMASZ
 40
0.18
  9
$DIMEXO
 40
0.0625
  9
$DIMDLI
 40
0.38
  9
$DIMRND
 40
0.0
  9
$DIMDLE
 40
0.0
  9
$DIMEXE
 40
0.18
  9
$DIMTP
 40
0.0
  9
$DIMTM
 40
0.0
  9
$DIMTXT
 40
0.18
  9
$DIMCEN
 40
0.09
  9
$DIMTSZ
 40
0.0
  9
$DIMTOL
 70
     0
  9
$DIMLIM
 70
     0
  9
$DIMTIH
 70
     1
  9
$DIMTOH
 70
     1
  9
$DIMSE1
 70
     0
  9
$DIMSE2
 70
     0
  9
$DIMTAD
 70
     0
  9
$DIMZIN
 70
     0
  9
$DIMBLK
  1

  9
$DIMASO
 70
     1
  9
$DIMSHO
 70
     1
  9
$DIMPOST
  1

  9
$DIMAPOST
  1

  9
$DIMALT
 70
     0
  9
$DIMALTD
 70
     2
  9
$DIMALTF
 40
25.4
  9
$DIMLFAC
 40
1.0
  9
$DIMTOFL
 70
     0
  9
$DIMTVP
 40
0.0
  9
$DIMTIX
 70
     0
  9
$DIMSOXD
 70
     0
  9
$DIMSAH
 70
     0
  9
$DIMBLK1
  1

  9
$DIMBLK2
  1

  9
$DIMSTYLE
  2
Standard
  9
$DIMCLRD
 70
    18
  9
$DIMCLRE
 70
    18
  9
$DIMCLRT
 70
    18
  9
$DIMTFAC
 40
1.0
  9
$DIMGAP
 40
0.09
  9
$DIMJUST
 70
     0
  9
$DIMSD1
 70
     0
  9
$DIMSD2
 70
     0
  9
$DIMTOLJ
 70
     1
  9
$DIMTZIN
 70
     0
  9
$DIMALTZ
 70
     0
  9
$DIMALTTZ
 70
     0
  9
$DIMUPT
 70
     0
  9
$DIMDEC
 70
     4
  9
$DIMTDEC
 70
     4
  9
$DIMALTU
 70
     2
  9
$DIMALTTD
 70
     2
  9
$DIMTXSTY
  7
Standard
  9
$DIMAUNIT
 70
     0
  9
$DIMADEC
 70
     0
  9
$DIMALTRND
 40
0.0
  9
$DIMAZIN
 70
     0
  9
$DIMDSEP
 70
    46
  9
$DIMATFIT
 70
     3
  9
$DIMFRAC
 70
     0
  9
$DIMLDRBLK
  1

  9
$DIMLUNIT
 70
     2
  9
$DIMLWD
 70
    -2
  9
$DIMLWE
 70
    -2
  9
$DIMTMOVE
 70
     0
  9
$DIMFXL
 40
1.0
  9
$DIMFXLON
 70
     0
  9
$DIMJOGANG
 40
0.7853981633974483
  9
$DIMTFILL
 70
     0
  9
$DIMTFILLCLR
 70
     0
  9
$DIMARCSYM
 70
     0
  9
$DIMLTYPE
  6

  9
$DIMLTEX1
  6

  9
$DIMLTEX2
  6

  9
$DIMTXTDIRECTION
 70
     0
  9
$LUNITS
 70
     2
  9
$LUPREC
 70
     4
  9
$SKETCHINC
 40
0.1
  9
$FILLETRAD
 40
0.5
  9
$AUNITS
 70
     0
  9
$AUPREC
 70
     0
  9
$MENU
  1
.
  9
$ELEVATION
 40
0.0
  9
$PELEVATION
 40
0.0
  9
$THICKNESS
 40
0.0
  9
$LIMCHECK
 70
     0
  9
$CHAMFERA
 40
0.0
  9
$CHAMFERB
 40
0.0
  9
$CHAMFERC
 40
0.0
  9
$CHAMFERD
 40
0.0
  9
$SKPOLY
 70
     0
  9
$TDCREATE
 40
2459214.187752222
  9
$TDUCREATE
 40
2459214.479418889
  9
$TDUPDATE
 40
2459214.187752338
  9
$TDUUPDATE
 40
2459214.479419005
  9
$TDINDWG
 40
0.0000000116
  9
$TDUSRTIMER
 40
0.0000000116
  9
$USRTIMER
 70
     1
  9
$ANGBASE
 50
0.0
  9
$ANGDIR
 70
     0
  9
$PDMODE
 70
     0
  9
$PDSIZE
 40
0.0
  9
$PLINEWID
 40
0.0
  9
$SPLFRAME
 70
     0
  9
$SPLINETYPE
 70
     6
  9
$SPLINESEGS
 70
     8
  9
$HANDSEED
  5
A5B
  9
$SURFTAB1
 70
     6
  9
$SURFTAB2
 70
     6
  9
$SURFTYPE
 70
     6
  9
$SURFU
 70
     6
  9
$SURFV
 70
     6
  9
$UCSBASE
  2

  9
$UCSNAME
  2

  9
$UCSORG
 10
0.0
 20
0.0
 30
0.0
  9
$UCSXDIR
 10
1.0
 20
0.0
 30
0.0
  9
$UCSYDIR
 10
0.0
 20
1.0
 30
0.0
  9
$UCSORTHOREF
  2

  9
$UCSORTHOVIEW
 70
     0
  9
$UCSORGTOP
 10
0.0
 20
0.0
 30
0.0
  9
$UCSORGBOTTOM
 10
0.0
 20
0.0
 30
0.0
  9
$UCSORGLEFT
 10
0.0
 20
0.0
 30
0.0
  9
$UCSORGRIGHT
 10
0.0
 20
0.0
 30
0.0
  9
$UCSORGFRONT
 10
0.0
 20
0.0
 30
0.0
  9
$UCSORGBACK
 10
0.0
 20
0.0
 30
0.0
  9
$PUCSBASE
  2

  9
$PUCSNAME
  2

  9
$PUCSORG
 10
0.0
 20
0.0
 30
0.0
  9
$PUCSXDIR
 10
1.0
 20
0.0
 30
0.0
  9
$PUCSYDIR
 10
0.0
 20
1.0
 30
0.0
  9
$PUCSORTHOREF
  2

  9
$PUCSORTHOVIEW
 70
     0
  9
$PUCSORGTOP
 10
0.0
 20
0.0
 30
0.0
  9
$PUCSORGBOTTOM
 10
0.0
 20
0.0
 30
0.0
  9
$PUCSORGLEFT
 10
0.0
 20
0.0
 30
0.0
  9
$PUCSORGRIGHT
 10
0.0
 20
0.0
 30
0.0
  9
$PUCSORGFRONT
 10
0.0
 20
0.0
 30
0.0
  9
$PUCSORGBACK
 10
0.0
 20
0.0
 30
0.0
  9
$USERI1
 70
     0
  9
$USERI2
 70
     0
  9
$USERI3
 70
     0
  9
$USERI4
 70
     0
  9
$USERI5
 70
     0
  9
$USERR1
 40
0.0
  9
$USERR2
 40
0.0
  9
$USERR3
 40
0.0
  9
$USERR4
 40
0.0
  9
$USERR5
 40
0.0
  9
$WORLDVIEW
 70
     1
  9
$SHADEDGE
 70
     3
  9
$SHADEDIF
 70
    70
  9
$TILEMODE
 70
     1
  9
$MAXACTVP
 70
     2
  9
$PINSBASE
 10
0.0
 20
0.0
 30
0.0
  9
$PLIMCHECK
 70
     0
  9
$PEXTMIN
 10
1.000000000000000E+20
 20
1.000000000000000E+20
 30
1.000000000000000E+20
  9
$PEXTMAX
 10
-1.000000000000000E+20
 20
-1.000000000000000E+20
 30
-1.000000000000000E+20
  9
$PLIMMIN
 10
0.0
 20
0.0
  9
$PLIMMAX
 10
12.0
 20
9.0
  9
$UNITMODE
 70
     0
  9
$VISRETAIN
 70
     1
  9
$PLINEGEN
 70
     0
  9
$PSLTSCALE
 70
     1
  9
$TREEDEPTH
 70
  3020
  9
$CMLSTYLE
  2
Standard
  9
$CMLJUST
 70
     0
  9
$CMLSCALE
 40
1.0
  9
$PROXYGRAPHICS
 70
     1
  9
$MEASUREMENT
 70
     1
  9
$CELWEIGHT
370
    -1
  9
$ENDCAPS
280
     0
  9
$JOINSTYLE
280
     0
  9
$LWDISPLAY
290
     0
  9
$INSUNITS
 70
     0
  9
$HYPERLINKBASE
  1

  9
$STYLESHEET
  1

  9
$XEDIT
290
     1
  9
$CEPSNTYPE
380
     0
  9
$PSTYLEMODE
290
     1
  9
$FINGERPRINTGUID
  2
{4BF5F0B0-726F-45BE-BBB4-DCABE9356778}
  9
$VERSIONGUID
  2
{FAEB1C32-E019-11D5-929B-00C0DF256EC4}
  9
$EXTNAMES
290
     1
  9
$PSVPSCALE
 40
0.0
  9
$OLESTARTUP
290
     0
  9
$SORTENTS
280
   127
  9
$INDEXCTL
280
     0
  9
$HIDETEXT
280
     1
  9
$XCLIPFRAME
280
     2
  9
$HALOGAP
280
     0
  9
$OBSCOLOR
 70
   257
  9
$OBSLTYPE
280
     0
  9
$INTERSECTIONDISPLAY
280
     0
  9
$INTERSECTIONCOLOR
 70
   257
  9
$DIMASSOC
280
     2
  9
$PROJECTNAME
  1

  9
$CAMERADISPLAY
290
     0
  9
$LENSLENGTH
 40
50.0
  9
$CAMERAHEIGHT
 40
0.0
  9
$STEPSPERSEC
 40
2.0
  9
$STEPSIZE
 40
6.0
  9
$3DDWFPREC
 40
2.0
  9
$PSOLWIDTH
 40
0.25
  9
$PSOLHEIGHT
 40
4.0
  9
$LOFTANG1
 40
1.570796326794897
  9
$LOFTANG2
 40
1.570796326794897
  9
$LOFTMAG1
 40
0.0
  9
$LOFTMAG2
 40
0.0
  9
$LOFTPARAM
 70
     7
  9
$LOFTNORMALS
280
     1
  9
$LATITUDE
 40
37.795
  9
$LONGITUDE
 40
-122.394
  9
$NORTHDIRECTION
 40
0.0
  9
$TIMEZONE
 70
 -8000
  9
$LIGHTGLYPHDISPLAY
280
     1
  9
$TILEMODELIGHTSYNCH
280
     1
  9
$CMATERIAL
347
93E
  9
$SOLIDHIST
280
     0
  9
$SHOWHIST
280
     1
  9
$DWFFRAME
280
     2
  9
$DGNFRAME
280
     2
  9
$REALWORLDSCALE
290
     1
  9
$INTERFERECOLOR
 62
   256
  9
$CSHADOW
280
     0
  9
$SHADOWPLANELOCATION
 40
0.0
  0
ENDSEC
  0
SECTION
  2
CLASSES
  0
CLASS
  1
ACDBDICTIONARYWDFLT
  2
AcDbDictionaryWithDefault
  3
ObjectDBX Classes
 90
        0
 91
        4
280
     0
281
     0
  0
CLASS
  1
VISUALSTYLE
  2
AcDbVisualStyle
  3
ObjectDBX Classes
 90
     4095
 91
        4
280
     0
281
     0
  0
CLASS
  1
MATERIAL
  2
AcDbMaterial
  3
ObjectDBX Classes
 90
     1153
 91
        4
280
     0
281
     0
  0
CLASS
  1
SCALE
  2
AcDbScale
  3
ObjectDBX Classes
 90
     1153
 91
        4
280
     0
281
     0
  0
CLASS
  1
TABLESTYLE
  2
AcDbTableStyle
  3
ObjectDBX Classes
 90
     4095
 91
        4
280
     0
281
     0
  0
CLASS
  1
MLEADERSTYLE
  2
AcDbMLeaderStyle
  3
ACDB_MLEADERSTYLE_CLASS
 90
     4095
 91
        4
280
     0
281
     0
  0
CLASS
  1
SUN
  2
AcDbSun
  3
SCENEOE
 90
     1153
 91
        4
280
     0
281
     0
  0
CLASS
  1
DICTIONARYVAR
  2
AcDbDictionaryVar
  3
ObjectDBX Classes
 90
        0
 91
        4
280
     0
281
     0
  0
CLASS
  1
CELLSTYLEMAP
  2
AcDbCellStyleMap
  3
ObjectDBX Classes
 90
     1152
 91
        4
280
     0
281
     0
  0
ENDSEC
  0
SECTION
  2
TABLES
  0
TABLE
  2
VPORT
  5
903
330
0
100
AcDbSymbolTable
 70
     1
  0
VPORT
  5
923
330
903
100
AcDbSymbolTableRecord
100
AcDbViewportTableRecord
  2
*Active
 70
     0
 10
0.0
 20
0.0
 11
1.0
 21
1.0
 12
10.42990654205607
 22
4.5
 13
0.0
 23
0.0
 14
0.5
 24
0.5
 15
0.5
 25
0.5
 16
0.0
 26
0.0
 36
1.0
 17
0.0
 27
0.0
 37
0.0
 40
9.0
 41
1.972972972850329
 42
50.0
 43
0.0
 44
0.0
 50
0.0
 51
0.0
 71
     0
 72
   100
 73
     1
 74
     3
 75
     0
 76
     0
 77
     0
 78
     0
281
     0
 65
     1
110
0.0
120
0.0
130
0.0
111
1.0
121
0.0
131
0.0
112
0.0
122
1.0
132
0.0
 79
     0
146
0.0
 60
     3
 61
     5
292
     1
282
     1
141
0.0
142
0.0
 63
   250
361
967
  0
ENDTAB
  0
TABLE
  2
LTYPE
  5
900
330
0
100
AcDbSymbolTable
 70
    48
  0
LTYPE
  5
90E
330
900
100
AcDbSymbolTableRecord
100
AcDbLinetypeTableRecord
  2
ByBlock
 70
     0
  3

 72
    65
 73
     0
 40
0.0
  0
LTYPE
  5
90F
330
900
100
AcDbSymbolTableRecord
100
AcDbLinetypeTableRecord
  2
ByLayer
 70
     0
  3

 72
    65
 73
     0
 40
0.0
  0
LTYPE
  5
910
330
900
100
AcDbSymbolTableRecord
100
AcDbLinetypeTableRecord
  2
Continuous
 70
     0
  3
Solid line
 72
    65
 73
     0
 40
0.0
  0
LTYPE
  5
998
330
900
100
AcDbSymbolTableRecord
100
AcDbLinetypeTableRecord
  2
ACAD_ISO02W100
 70
     0
  3
ISO dash __ __ __ __ __ __ __ __ __ __ __ __ __
 72
    65
 73
     2
 40
15.0
 49
12.0
 74
     0
 49
-3.0
 74
     0
  0
LTYPE
  5
999
330
900
100
AcDbSymbolTableRecord
100
AcDbLinetypeTableRecord
  2
ACAD_ISO03W100
 70
     0
  3
ISO dash space __    __    __    __    __    __
 72
    65
 73
     2
 40
30.0
 49
12.0
 74
     0
 49
-18.0
 74
     0
  0
LTYPE
  5
99A
330
900
100
AcDbSymbolTableRecord
100
AcDbLinetypeTableRecord
  2
ACAD_ISO04W100
 70
     0
  3
ISO long-dash dot ____ . ____ . ____ . ____ . _
 72
    65
 73
     4
 40
30.0
 49
24.0
 74
     0
 49
-3.0
 74
     0
 49
0.0
 74
     0
 49
-3.0
 74
     0
  0
LTYPE
  5
99B
330
900
100
AcDbSymbolTableRecord
100
AcDbLinetypeTableRecord
  2
ACAD_ISO05W100
 70
     0
  3
ISO long-dash double-dot ____ .. ____ .. ____ . 
 72
    65
 73
     6
 40
33.0
 49
24.0
 74
     0
 49
-3.0
 74
     0
 49
0.0
 74
     0
 49
-3.0
 74
     0
 49
0.0
 74
     0
 49
-3.0
 74
     0
  0
LTYPE
  5
99C
330
900
100
AcDbSymbolTableRecord
100
AcDbLinetypeTableRecord
  2
ACAD_ISO06W100
 70
     0
  3
ISO long-dash triple-dot ____ ... ____ ... ____
 72
    65
 73
     8
 40
36.0
 49
24.0
 74
     0
 49
-3.0
 74
     0
 49
0.0
 74
     0
 49
-3.0
 74
     0
 49
0.0
 74
     0
 49
-3.0
 74
     0
 49
0.0
 74
     0
 49
-3.0
 74
     0
  0
LTYPE
  5
99D
330
900
100
AcDbSymbolTableRecord
100
AcDbLinetypeTableRecord
  2
ACAD_ISO07W100
 70
     0
  3
ISO dot . . . . . . . . . . . . . . . . . . . . 
 72
    65
 73
     2
 40
3.0
 49
0.0
 74
     0
 49
-3.0
 74
     0
  0
LTYPE
  5
99E
330
900
100
AcDbSymbolTableRecord
100
AcDbLinetypeTableRecord
  2
ACAD_ISO08W100
 70
     0
  3
ISO long-dash short-dash ____ __ ____ __ ____ _
 72
    65
 73
     4
 40
36.0
 49
24.0
 74
     0
 49
-3.0
 74
     0
 49
6.0
 74
     0
 49
-3.0
 74
     0
  0
LTYPE
  5
99F
330
900
100
AcDbSymbolTableRecord
100
AcDbLinetypeTableRecord
  2
ACAD_ISO09W100
 70
     0
  3
ISO long-dash double-short-dash ____ __ __ ____
 72
    65
 73
     6
 40
45.0
 49
24.0
 74
     0
 49
-3.0
 74
     0
 49
6.0
 74
     0
 49
-3.0
 74
     0
 49
6.0
 74
     0
 49
-3.0
 74
     0
  0
LTYPE
  5
9A0
330
900
100
AcDbSymbolTableRecord
100
AcDbLinetypeTableRecord
  2
ACAD_ISO10W100
 70
     0
  3
ISO dash dot __ . __ . __ . __ . __ . __ . __ . 
 72
    65
 73
     4
 40
18.0
 49
12.0
 74
     0
 49
-3.0
 74
     0
 49
0.0
 74
     0
 49
-3.0
 74
     0
  0
LTYPE
  5
9A1
330
900
100
AcDbSymbolTableRecord
100
AcDbLinetypeTableRecord
  2
ACAD_ISO11W100
 70
     0
  3
ISO double-dash dot __ __ . __ __ . __ __ . __ _
 72
    65
 73
     6
 40
33.0
 49
12.0
 74
     0
 49
-3.0
 74
     0
 49
12.0
 74
     0
 49
-3.0
 74
     0
 49
0.0
 74
     0
 49
-3.0
 74
     0
  0
LTYPE
  5
9A2
330
900
100
AcDbSymbolTableRecord
100
AcDbLinetypeTableRecord
  2
ACAD_ISO12W100
 70
     0
  3
ISO dash double-dot __ . . __ . . __ . . __ . . 
 72
    65
 73
     6
 40
21.0
 49
12.0
 74
     0
 49
-3.0
 74
     0
 49
0.0
 74
     0
 49
-3.0
 74
     0
 49
0.0
 74
     0
 49
-3.0
 74
     0
  0
LTYPE
  5
9A3
330
900
100
AcDbSymbolTableRecord
100
AcDbLinetypeTableRecord
  2
ACAD_ISO13W100
 70
     0
  3
ISO double-dash double-dot __ __ . . __ __ . . _
 72
    65
 73
     8
 40
36.0
 49
12.0
 74
     0
 49
-3.0
 74
     0
 49
12.0
 74
     0
 49
-3.0
 74
     0
 49
0.0
 74
     0
 49
-3.0
 74
     0
 49
0.0
 74
     0
 49
-3.0
 74
     0
  0
LTYPE
  5
9A4
330
900
100
AcDbSymbolTableRecord
100
AcDbLinetypeTableRecord
  2
ACAD_ISO14W100
 70
     0
  3
ISO dash triple-dot __ . . . __ . . . __ . . . _
 72
    65
 73
     8
 40
24.0
 49
12.0
 74
     0
 49
-3.0
 74
     0
 49
0.0
 74
     0
 49
-3.0
 74
     0
 49
0.0
 74
     0
 49
-3.0
 74
     0
 49
0.0
 74
     0
 49
-3.0
 74
     0
  0
LTYPE
  5
9A5
330
900
100
AcDbSymbolTableRecord
100
AcDbLinetypeTableRecord
  2
ACAD_ISO15W100
 70
     0
  3
ISO double-dash triple-dot __ __ . . . __ __ . .
 72
    65
 73
    10
 40
39.0
 49
12.0
 74
     0
 49
-3.0
 74
     0
 49
12.0
 74
     0
 49
-3.0
 74
     0
 49
0.0
 74
     0
 49
-3.0
 74
     0
 49
0.0
 74
     0
 49
-3.0
 74
     0
 49
0.0
 74
     0
 49
-3.0
 74
     0
  0
LTYPE
  5
9A8
330
900
100
AcDbSymbolTableRecord
100
AcDbLinetypeTableRecord
  2
BATTING
 70
     0
  3
Batting SSSSSSSSSSSSSSSSSSSSSSSSSSSSSSSSSSSSSSSSSSSSSSS
 72
    65
 73
     4
 40
10.16254
 49
0.00254
 74
     0
 49
-2.54
 74
     2
 75
     0
340
9A6
 46
2.54
 50
0.0
 44
-2.54
 45
0.0
  9
BAT
 49
-5.08
 74
     2
 75
     0
340
9A7
 46
2.54
 50
180.0
 44
2.54
 45
0.0
  9
BAT
 49
-2.54
 74
     0
  0
LTYPE
  5
9A9
330
900
100
AcDbSymbolTableRecord
100
AcDbLinetypeTableRecord
  2
BORDER
 70
     0
  3
Border __ __ . __ __ . __ __ . __ __ . __ __ .
 72
    65
 73
     6
 40
44.45
 49
12.7
 74
     0
 49
-6.35
 74
     0
 49
12.7
 74
     0
 49
-6.35
 74
     0
 49
0.0
 74
     0
 49
-6.35
 74
     0
  0
LTYPE
  5
9AA
330
900
100
AcDbSymbolTableRecord
100
AcDbLinetypeTableRecord
  2
BORDER2
 70
     0
  3
Border (.5x) __.__.__.__.__.__.__.__.__.__.__.
 72
    65
 73
     6
 40
22.225
 49
6.35
 74
     0
 49
-3.175
 74
     0
 49
6.35
 74
     0
 49
-3.175
 74
     0
 49
0.0
 74
     0
 49
-3.175
 74
     0
  0
LTYPE
  5
9AB
330
900
100
AcDbSymbolTableRecord
100
AcDbLinetypeTableRecord
  2
BORDERX2
 70
     0
  3
Border (2x) ____  ____  .  ____  ____  .  ___
 72
    65
 73
     6
 40
88.89999999999999
 49
25.4
 74
     0
 49
-12.7
 74
     0
 49
25.4
 74
     0
 49
-12.7
 74
     0
 49
0.0
 74
     0
 49
-12.7
 74
     0
  0
LTYPE
  5
9AC
330
900
100
AcDbSymbolTableRecord
100
AcDbLinetypeTableRecord
  2
CENTER
 70
     0
  3
Center ____ _ ____ _ ____ _ ____ _ ____ _ ____
 72
    65
 73
     4
 40
50.8
 49
31.75
 74
     0
 49
-6.35
 74
     0
 49
6.35
 74
     0
 49
-6.35
 74
     0
  0
LTYPE
  5
9AD
330
900
100
AcDbSymbolTableRecord
100
AcDbLinetypeTableRecord
  2
CENTER2
 70
     0
  3
Center (.5x) ___ _ ___ _ ___ _ ___ _ ___ _ ___
 72
    65
 73
     4
 40
28.575
 49
19.05
 74
     0
 49
-3.175
 74
     0
 49
3.175
 74
     0
 49
-3.175
 74
     0
  0
LTYPE
  5
9AE
330
900
100
AcDbSymbolTableRecord
100
AcDbLinetypeTableRecord
  2
CENTERX2
 70
     0
  3
Center (2x) ________  __  ________  __  _____
 72
    65
 73
     4
 40
101.6
 49
63.5
 74
     0
 49
-12.7
 74
     0
 49
12.7
 74
     0
 49
-12.7
 74
     0
  0
LTYPE
  5
9AF
330
900
100
AcDbSymbolTableRecord
100
AcDbLinetypeTableRecord
  2
DASHDOT
 70
     0
  3
Dash dot __ . __ . __ . __ . __ . __ . __ . __
 72
    65
 73
     4
 40
25.4
 49
12.7
 74
     0
 49
-6.35
 74
     0
 49
0.0
 74
     0
 49
-6.35
 74
     0
  0
LTYPE
  5
9B0
330
900
100
AcDbSymbolTableRecord
100
AcDbLinetypeTableRecord
  2
DASHDOT2
 70
     0
  3
Dash dot (.5x) _._._._._._._._._._._._._._._.
 72
    65
 73
     4
 40
12.7
 49
6.35
 74
     0
 49
-3.175
 74
     0
 49
0.0
 74
     0
 49
-3.175
 74
     0
  0
LTYPE
  5
9B1
330
900
100
AcDbSymbolTableRecord
100
AcDbLinetypeTableRecord
  2
DASHDOTX2
 70
     0
  3
Dash dot (2x) ____  .  ____  .  ____  .  ___
 72
    65
 73
     4
 40
50.8
 49
25.4
 74
     0
 49
-12.7
 74
     0
 49
0.0
 74
     0
 49
-12.7
 74
     0
  0
LTYPE
  5
9B2
330
900
100
AcDbSymbolTableRecord
100
AcDbLinetypeTableRecord
  2
DASHED
 70
     0
  3
Dashed __ __ __ __ __ __ __ __ __ __ __ __ __ _
 72
    65
 73
     2
 40
19.05
 49
12.7
 74
     0
 49
-6.35
 74
     0
  0
LTYPE
  5
9B3
330
900
100
AcDbSymbolTableRecord
100
AcDbLinetypeTableRecord
  2
DASHED2
 70
     0
  3
Dashed (.5x) _ _ _ _ _ _ _ _ _ _ _ _ _ _ _ _ _ 
 72
    65
 73
     2
 40
9.524999999999999
 49
6.35
 74
     0
 49
-3.175
 74
     0
  0
LTYPE
  5
9B4
330
900
100
AcDbSymbolTableRecord
100
AcDbLinetypeTableRecord
  2
DASHEDX2
 70
     0
  3
Dashed (2x) ____  ____  ____  ____  ____  ___
 72
    65
 73
     2
 40
38.09999999999999
 49
25.4
 74
     0
 49
-12.7
 74
     0
  0
LTYPE
  5
9B5
330
900
100
AcDbSymbolTableRecord
100
AcDbLinetypeTableRecord
  2
DIVIDE
 70
     0
  3
Divide ____ . . ____ . . ____ . . ____ . . ____
 72
    65
 73
     6
 40
31.75
 49
12.7
 74
     0
 49
-6.35
 74
     0
 49
0.0
 74
     0
 49
-6.35
 74
     0
 49
0.0
 74
     0
 49
-6.35
 74
     0
  0
LTYPE
  5
9B6
330
900
100
AcDbSymbolTableRecord
100
AcDbLinetypeTableRecord
  2
DIVIDE2
 70
     0
  3
Divide (.5x) __..__..__..__..__..__..__..__.._
 72
    65
 73
     6
 40
15.875
 49
6.35
 74
     0
 49
-3.175
 74
     0
 49
0.0
 74
     0
 49
-3.175
 74
     0
 49
0.0
 74
     0
 49
-3.175
 74
     0
  0
LTYPE
  5
9B7
330
900
100
AcDbSymbolTableRecord
100
AcDbLinetypeTableRecord
  2
DIVIDEX2
 70
     0
  3
Divide (2x) ________  .  .  ________  .  .  _
 72
    65
 73
     6
 40
63.5
 49
25.4
 74
     0
 49
-12.7
 74
     0
 49
0.0
 74
     0
 49
-12.7
 74
     0
 49
0.0
 74
     0
 49
-12.7
 74
     0
  0
LTYPE
  5
9B8
330
900
100
AcDbSymbolTableRecord
100
AcDbLinetypeTableRecord
  2
DOT
 70
     0
  3
Dot . . . . . . . . . . . . . . . . . . . . . . . .
 72
    65
 73
     2
 40
6.35
 49
0.0
 74
     0
 49
-6.35
 74
     0
  0
LTYPE
  5
9B9
330
900
100
AcDbSymbolTableRecord
100
AcDbLinetypeTableRecord
  2
DOT2
 70
     0
  3
Dot (.5x) ........................................
 72
    65
 73
     2
 40
3.175
 49
0.0
 74
     0
 49
-3.175
 74
     0
  0
LTYPE
  5
9BA
330
900
100
AcDbSymbolTableRecord
100
AcDbLinetypeTableRecord
  2
DOTX2
 70
     0
  3
Dot (2x) .  .  .  .  .  .  .  .  .  .  .  .  .  .
 72
    65
 73
     2
 40
12.7
 49
0.0
 74
     0
 49
-12.7
 74
     0
  0
LTYPE
  5
9BC
330
900
100
AcDbSymbolTableRecord
100
AcDbLinetypeTableRecord
  2
DRAINAGE
 70
     0
  3
Drainage ---->---->---->----
 72
    65
 73
     2
 40
10.16
 49
5.08
 74
     2
 75
     0
340
9BB
 46
2.54
 50
180.0
 44
0.0
 45
0.0
  9
RIGHT_ARROW
 49
5.08
 74
     0
  0
LTYPE
  5
9BE
330
900
100
AcDbSymbolTableRecord
100
AcDbLinetypeTableRecord
  2
DRAINAGE2
 70
     0
  3
Drainage reversed----<----<----<----
 72
    65
 73
     2
 40
10.16
 49
5.08
 74
     2
 75
     0
340
9BD
 46
2.54
 50
0.0
 44
0.0
 45
0.0
  9
RIGHT_ARROW
 49
5.08
 74
     0
  0
LTYPE
  5
9C0
330
900
100
AcDbSymbolTableRecord
100
AcDbLinetypeTableRecord
  2
FENCELINE1
 70
     0
  3
Fenceline circle ----0-----0----0-----0----0-----0--
 72
    65
 73
     4
 40
36.83
 49
6.35
 74
     0
 49
-2.54
 74
     2
 75
     0
340
9BF
 46
2.54
 50
0.0
 44
-2.54
 45
0.0
  9
CIRC1
 49
-2.54
 74
     0
 49
25.4
 74
     0
  0
LTYPE
  5
9C2
330
900
100
AcDbSymbolTableRecord
100
AcDbLinetypeTableRecord
  2
FENCELINE2
 70
     0
  3
Fenceline square ----[]-----[]----[]-----[]----[]---
 72
    65
 73
     4
 40
36.83
 49
6.35
 74
     0
 49
-2.54
 74
     2
 75
     0
340
9C1
 46
2.54
 50
0.0
 44
-2.54
 45
0.0
  9
BOX
 49
-2.54
 74
     0
 49
25.4
 74
     0
  0
LTYPE
  5
9C4
330
900
100
AcDbSymbolTableRecord
100
AcDbLinetypeTableRecord
  2
GAS_LINE
 70
     0
  3
Gas line ----GAS----GAS----GAS----GAS----GAS----GAS--
 72
    65
 73
     3
 40
24.13
 49
12.7
 74
     0
 49
-5.08
 74
     2
 75
     0
340
9C3
 46
2.54
 50
0.0
 44
-2.54
 45
-1.27
  9
GAS
 49
-6.35
 74
     0
  0
LTYPE
  5
9C5
330
900
100
AcDbSymbolTableRecord
100
AcDbLinetypeTableRecord
  2
HIDDEN
 70
     0
  3
Hidden __ __ __ __ __ __ __ __ __ __ __ __ __ __
 72
    65
 73
     2
 40
9.524999999999999
 49
6.35
 74
     0
 49
-3.175
 74
     0
  0
LTYPE
  5
9C6
330
900
100
AcDbSymbolTableRecord
100
AcDbLinetypeTableRecord
  2
HIDDEN2
 70
     0
  3
Hidden (.5x) _ _ _ _ _ _ _ _ _ _ _ _ _ _ _ _ _ 
 72
    65
 73
     2
 40
4.762499999999999
 49
3.175
 74
     0
 49
-1.5875
 74
     0
  0
LTYPE
  5
9C7
330
900
100
AcDbSymbolTableRecord
100
AcDbLinetypeTableRecord
  2
HIDDENX2
 70
     0
  3
Hidden (2x) ____ ____ ____ ____ ____ ____ ____ 
 72
    65
 73
     2
 40
19.05
 49
12.7
 74
     0
 49
-6.35
 74
     0
  0
LTYPE
  5
9C9
330
900
100
AcDbSymbolTableRecord
100
AcDbLinetypeTableRecord
  2
HOT_WATER_SUPPLY
 70
     0
  3
Hot water supply ---- HW ---- HW ---- HW ----
 72
    65
 73
     3
 40
22.86
 49
12.7
 74
     0
 49
-5.08
 74
     2
 75
     0
340
9C8
 46
2.54
 50
0.0
 44
-2.54
 45
-1.27
  9
HW
 49
-5.08
 74
     0
  0
LTYPE
  5
9CA
330
900
100
AcDbSymbolTableRecord
100
AcDbLinetypeTableRecord
  2
PHANTOM
 70
     0
  3
Phantom ______  __  __  ______  __  __  ______ 
 72
    65
 73
     6
 40
63.50000000000001
 49
31.75
 74
     0
 49
-6.35
 74
     0
 49
6.35
 74
     0
 49
-6.35
 74
     0
 49
6.35
 74
     0
 49
-6.35
 74
     0
  0
LTYPE
  5
9CB
330
900
100
AcDbSymbolTableRecord
100
AcDbLinetypeTableRecord
  2
PHANTOM2
 70
     0
  3
Phantom (.5x) ___ _ _ ___ _ _ ___ _ _ ___ _ _
 72
    65
 73
     6
 40
31.75
 49
15.875
 74
     0
 49
-3.175
 74
     0
 49
3.175
 74
     0
 49
-3.175
 74
     0
 49
3.175
 74
     0
 49
-3.175
 74
     0
  0
LTYPE
  5
9CC
330
900
100
AcDbSymbolTableRecord
100
AcDbLinetypeTableRecord
  2
PHANTOMX2
 70
     0
  3
Phantom (2x) ____________    ____    ____   _
 72
    65
 73
     6
 40
127.0
 49
63.5
 74
     0
 49
-12.7
 74
     0
 49
12.7
 74
     0
 49
-12.7
 74
     0
 49
12.7
 74
     0
 49
-12.7
 74
     0
  0
LTYPE
  5
9CE
330
900
100
AcDbSymbolTableRecord
100
AcDbLinetypeTableRecord
  2
TRACKS
 70
     0
  3
Tracks -|-|-|-|-|-|-|-|-|-|-|-|-|-|-|-|-|-|-|-|-|-|-|-|-
 72
    65
 73
     2
 40
7.62
 49
3.81
 74
     2
 75
     0
340
9CD
 46
6.35
 50
0.0
 44
0.0
 45
0.0
  9
TRACK1
 49
3.81
 74
     0
  0
LTYPE
  5
9D1
330
900
100
AcDbSymbolTableRecord
100
AcDbLinetypeTableRecord
  2
ZIGZAG
 70
     0
  3
Zig zag /\/\/\/\/\/\/\/\/\/\/\/\/\/\/\/\/\/\/\/\/\/\/\/
 72
    65
 73
     4
 40
20.32254
 49
0.00254
 74
     0
 49
-5.08
 74
     2
 75
     0
340
9CF
 46
5.08
 50
0.0
 44
-5.08
 45
0.0
  9
ZIG
 49
-10.16
 74
     2
 75
     0
340
9D0
 46
5.08
 50
180.0
 44
5.08
 45
0.0
  9
ZIG
 49
-5.08
 74
     0
  0
ENDTAB
  0
TABLE
  2
LAYER
  5
8FD
330
0
100
AcDbSymbolTable
 70
    93
  0
LAYER
  5
90B
330
8FD
100
AcDbSymbolTableRecord
100
AcDbLayerTableRecord
  2
0
 70
     0
 62
     7
420
 16777215
  6
Continuous
370
    -3
390
90A
347
940
348
0
  0
LAYER
  5
9D2
330
8FD
100
AcDbSymbolTableRecord
100
AcDbLayerTableRecord
  2
226
 70
     0
 62
   253
420
 11382189
  6
Continuous
370
    -3
390
90A
347
940
348
0
  0
LAYER
  5
9D3
330
8FD
100
AcDbSymbolTableRecord
100
AcDbLayerTableRecord
  2
227
 70
     0
 62
   253
420
 11382189
  6
Continuous
370
    -3
390
90A
347
940
348
0
  0
LAYER
  5
9D4
330
8FD
100
AcDbSymbolTableRecord
100
AcDbLayerTableRecord
  2
228
 70
     0
 62
   253
420
 11382189
  6
Continuous
370
    -3
390
90A
347
940
348
0
  0
LAYER
  5
9D5
330
8FD
100
AcDbSymbolTableRecord
100
AcDbLayerTableRecord
  2
229
 70
     0
 62
   253
420
 11382189
  6
Continuous
370
    -3
390
90A
347
940
348
0
  0
LAYER
  5
9D6
330
8FD
100
AcDbSymbolTableRecord
100
AcDbLayerTableRecord
  2
230
 70
     0
 62
   253
420
 11382189
  6
Continuous
370
    -3
390
90A
347
940
348
0
  0
LAYER
  5
9D7
330
8FD
100
AcDbSymbolTableRecord
100
AcDbLayerTableRecord
  2
231
 70
     0
 62
   253
420
 11382189
  6
Continuous
370
    -3
390
90A
347
940
348
0
  0
LAYER
  5
9D8
330
8FD
100
AcDbSymbolTableRecord
100
AcDbLayerTableRecord
  2
232
 70
     0
 62
   253
420
 11382189
  6
Continuous
370
    -3
390
90A
347
940
348
0
  0
LAYER
  5
9D9
330
8FD
100
AcDbSymbolTableRecord
100
AcDbLayerTableRecord
  2
233
 70
     0
 62
   253
420
 11382189
  6
Continuous
370
    -3
390
90A
347
940
348
0
  0
LAYER
  5
9DA
330
8FD
100
AcDbSymbolTableRecord
100
AcDbLayerTableRecord
  2
248
 70
     0
 62
   253
420
 11382189
  6
Continuous
370
    -3
390
90A
347
940
348
0
  0
LAYER
  5
9DB
330
8FD
100
AcDbSymbolTableRecord
100
AcDbLayerTableRecord
  2
249
 70
     0
 62
   253
420
 11382189
  6
Continuous
370
    -3
390
90A
347
940
348
0
  0
LAYER
  5
9DC
330
8FD
100
AcDbSymbolTableRecord
100
AcDbLayerTableRecord
  2
250
 70
     0
 62
   253
420
 11382189
  6
Continuous
370
    -3
390
90A
347
940
348
0
  0
LAYER
  5
9DD
330
8FD
100
AcDbSymbolTableRecord
100
AcDbLayerTableRecord
  2
251
 70
     0
 62
   253
420
 11382189
  6
Continuous
370
    -3
390
90A
347
940
348
0
  0
LAYER
  5
9DE
330
8FD
100
AcDbSymbolTableRecord
100
AcDbLayerTableRecord
  2
254
 70
     0
 62
   253
420
 11382189
  6
Continuous
370
    -3
390
90A
347
940
348
0
  0
LAYER
  5
9DF
330
8FD
100
AcDbSymbolTableRecord
100
AcDbLayerTableRecord
  2
255
 70
     0
 62
   253
420
 11382189
  6
Continuous
370
    -3
390
90A
347
940
348
0
  0
LAYER
  5
9E0
330
8FD
100
AcDbSymbolTableRecord
100
AcDbLayerTableRecord
  2
21
 70
     0
 62
   253
420
 11382189
  6
Continuous
370
    -3
390
90A
347
940
348
0
  0
LAYER
  5
9E1
330
8FD
100
AcDbSymbolTableRecord
100
AcDbLayerTableRecord
  2
22
 70
     0
 62
   253
420
 11382189
  6
Continuous
370
    -3
390
90A
347
940
348
0
  0
LAYER
  5
9E2
330
8FD
100
AcDbSymbolTableRecord
100
AcDbLayerTableRecord
  2
23
 70
     0
 62
    53
420
 13421670
  6
Continuous
370
    -3
390
90A
347
940
348
0
  0
LAYER
  5
9E3
330
8FD
100
AcDbSymbolTableRecord
100
AcDbLayerTableRecord
  2
24
 70
     0
 62
    53
420
 13421670
  6
Continuous
370
    -3
390
90A
347
940
348
0
  0
LAYER
  5
9E4
330
8FD
100
AcDbSymbolTableRecord
100
AcDbLayerTableRecord
  2
25
 70
     0
 62
   253
420
 11382189
  6
Continuous
370
    -3
390
90A
347
940
348
0
  0
LAYER
  5
9E5
330
8FD
100
AcDbSymbolTableRecord
100
AcDbLayerTableRecord
  2
26
 70
     0
 62
   253
420
 11382189
  6
Continuous
370
    -3
390
90A
347
940
348
0
  0
LAYER
  5
9E6
330
8FD
100
AcDbSymbolTableRecord
100
AcDbLayerTableRecord
  2
27
 70
     0
 62
   253
420
 11382189
  6
Continuous
370
    -3
390
90A
347
940
348
0
  0
LAYER
  5
9E7
330
8FD
100
AcDbSymbolTableRecord
100
AcDbLayerTableRecord
  2
28
 70
     0
 62
   253
420
 11382189
  6
Continuous
370
    -3
390
90A
347
940
348
0
  0
LAYER
  5
9E8
330
8FD
100
AcDbSymbolTableRecord
100
AcDbLayerTableRecord
  2
39
 70
     0
 62
    12
420
 13369344
  6
Continuous
370
    -3
390
90A
347
940
348
0
  0
LAYER
  5
9E9
330
8FD
100
AcDbSymbolTableRecord
100
AcDbLayerTableRecord
  2
40
 70
     0
 62
   132
420
    52428
  6
Continuous
370
    -3
390
90A
347
940
348
0
  0
LAYER
  5
9EA
330
8FD
100
AcDbSymbolTableRecord
100
AcDbLayerTableRecord
  2
41
 70
     0
 62
    12
420
 13369344
  6
Continuous
370
    -3
390
90A
347
940
348
0
  0
LAYER
  5
9EB
330
8FD
100
AcDbSymbolTableRecord
100
AcDbLayerTableRecord
  2
42
 70
     0
 62
   132
420
    52428
  6
Continuous
370
    -3
390
90A
347
940
348
0
  0
LAYER
  5
9EC
330
8FD
100
AcDbSymbolTableRecord
100
AcDbLayerTableRecord
  2
43
 70
     0
 62
   110
420
    65407
  6
Continuous
370
    -3
390
90A
347
940
348
0
  0
LAYER
  5
9ED
330
8FD
100
AcDbSymbolTableRecord
100
AcDbLayerTableRecord
  2
48
 70
     0
 62
   253
420
 11382189
  6
Continuous
370
    -3
390
90A
347
940
348
0
  0
LAYER
  5
9EE
330
8FD
100
AcDbSymbolTableRecord
100
AcDbLayerTableRecord
  2
49
 70
     0
 62
   253
420
 11382189
  6
Continuous
370
    -3
390
90A
347
940
348
0
  0
LAYER
  5
9EF
330
8FD
100
AcDbSymbolTableRecord
100
AcDbLayerTableRecord
  2
51
 70
     0
 62
   253
420
 11382189
  6
Continuous
370
    -3
390
90A
347
940
348
0
  0
LAYER
  5
9F0
330
8FD
100
AcDbSymbolTableRecord
100
AcDbLayerTableRecord
  2
52
 70
     0
 62
   253
420
 11382189
  6
Continuous
370
    -3
390
90A
347
940
348
0
  0
LAYER
  5
9F1
330
8FD
100
AcDbSymbolTableRecord
100
AcDbLayerTableRecord
  2
100
 70
     0
 62
   253
420
 11382189
  6
Continuous
370
    -3
390
90A
347
940
348
0
  0
LAYER
  5
9F2
330
8FD
100
AcDbSymbolTableRecord
100
AcDbLayerTableRecord
  2
101
 70
     0
 62
   253
420
 11382189
  6
Continuous
370
    -3
390
90A
347
940
348
0
  0
LAYER
  5
9F3
330
8FD
100
AcDbSymbolTableRecord
100
AcDbLayerTableRecord
  2
102
 70
     0
 62
   253
420
 11382189
  6
Continuous
370
    -3
390
90A
347
940
348
0
  0
LAYER
  5
9F4
330
8FD
100
AcDbSymbolTableRecord
100
AcDbLayerTableRecord
  2
103
 70
     0
 62
   253
420
 11382189
  6
Continuous
370
    -3
390
90A
347
940
348
0
  0
LAYER
  5
9F5
330
8FD
100
AcDbSymbolTableRecord
100
AcDbLayerTableRecord
  2
104
 70
     0
 62
   253
420
 11382189
  6
Continuous
370
    -3
390
90A
347
940
348
0
  0
LAYER
  5
9F6
330
8FD
100
AcDbSymbolTableRecord
100
AcDbLayerTableRecord
  2
105
 70
     0
 62
   253
420
 11382189
  6
Continuous
370
    -3
390
90A
347
940
348
0
  0
LAYER
  5
9F7
330
8FD
100
AcDbSymbolTableRecord
100
AcDbLayerTableRecord
  2
106
 70
     0
 62
   253
420
 11382189
  6
Continuous
370
    -3
390
90A
347
940
348
0
  0
LAYER
  5
9F8
330
8FD
100
AcDbSymbolTableRecord
100
AcDbLayerTableRecord
  2
107
 70
     0
 62
   253
420
 11382189
  6
Continuous
370
    -3
390
90A
347
940
348
0
  0
LAYER
  5
9F9
330
8FD
100
AcDbSymbolTableRecord
100
AcDbLayerTableRecord
  2
108
 70
     0
 62
   253
420
 11382189
  6
Continuous
370
    -3
390
90A
347
940
348
0
  0
LAYER
  5
9FA
330
8FD
100
AcDbSymbolTableRecord
100
AcDbLayerTableRecord
  2
109
 70
     0
 62
   253
420
 11382189
  6
Continuous
370
    -3
390
90A
347
940
348
0
  0
LAYER
  5
9FB
330
8FD
100
AcDbSymbolTableRecord
100
AcDbLayerTableRecord
  2
110
 70
     0
 62
   253
420
 11382189
  6
Continuous
370
    -3
390
90A
347
940
348
0
  0
LAYER
  5
9FC
330
8FD
100
AcDbSymbolTableRecord
100
AcDbLayerTableRecord
  2
111
 70
     0
 62
   253
420
 11382189
  6
Continuous
370
    -3
390
90A
347
940
348
0
  0
LAYER
  5
9FD
330
8FD
100
AcDbSymbolTableRecord
100
AcDbLayerTableRecord
  2
112
 70
     0
 62
   253
420
 11382189
  6
Continuous
370
    -3
390
90A
347
940
348
0
  0
LAYER
  5
9FE
330
8FD
100
AcDbSymbolTableRecord
100
AcDbLayerTableRecord
  2
113
 70
     0
 62
   253
420
 11382189
  6
Continuous
370
    -3
390
90A
347
940
348
0
  0
LAYER
  5
9FF
330
8FD
100
AcDbSymbolTableRecord
100
AcDbLayerTableRecord
  2
116
 70
     0
 62
   253
420
 11382189
  6
Continuous
370
    -3
390
90A
347
940
348
0
  0
LAYER
  5
A00
330
8FD
100
AcDbSymbolTableRecord
100
AcDbLayerTableRecord
  2
118
 70
     0
 62
   253
420
 11382189
  6
Continuous
370
    -3
390
90A
347
940
348
0
  0
LAYER
  5
A01
330
8FD
100
AcDbSymbolTableRecord
100
AcDbLayerTableRecord
  2
121
 70
     0
 62
   253
420
 11382189
  6
Continuous
370
    -3
390
90A
347
940
348
0
  0
LAYER
  5
A02
330
8FD
100
AcDbSymbolTableRecord
100
AcDbLayerTableRecord
  2
122
 70
     0
 62
   253
420
 11382189
  6
Continuous
370
    -3
390
90A
347
940
348
0
  0
LAYER
  5
A03
330
8FD
100
AcDbSymbolTableRecord
100
AcDbLayerTableRecord
  2
123
 70
     0
 62
   253
420
 11382189
  6
Continuous
370
    -3
390
90A
347
940
348
0
  0
LAYER
  5
A04
330
8FD
100
AcDbSymbolTableRecord
100
AcDbLayerTableRecord
  2
124
 70
     0
 62
   253
420
 11382189
  6
Continuous
370
    -3
390
90A
347
940
348
0
  0
LAYER
  5
A05
330
8FD
100
AcDbSymbolTableRecord
100
AcDbLayerTableRecord
  2
125
 70
     0
 62
   253
420
 11382189
  6
Continuous
370
    -3
390
90A
347
940
348
0
  0
LAYER
  5
A06
330
8FD
100
AcDbSymbolTableRecord
100
AcDbLayerTableRecord
  2
126
 70
     0
 62
   253
420
 11382189
  6
Continuous
370
    -3
390
90A
347
940
348
0
  0
LAYER
  5
A07
330
8FD
100
AcDbSymbolTableRecord
100
AcDbLayerTableRecord
  2
127
 70
     0
 62
   253
420
 11382189
  6
Continuous
370
    -3
390
90A
347
940
348
0
  0
LAYER
  5
A08
330
8FD
100
AcDbSymbolTableRecord
100
AcDbLayerTableRecord
  2
128
 70
     0
 62
   253
420
 11382189
  6
Continuous
370
    -3
390
90A
347
940
348
0
  0
LAYER
  5
A09
330
8FD
100
AcDbSymbolTableRecord
100
AcDbLayerTableRecord
  2
129
 70
     0
 62
   253
420
 11382189
  6
Continuous
370
    -3
390
90A
347
940
348
0
  0
LAYER
  5
A0A
330
8FD
100
AcDbSymbolTableRecord
100
AcDbLayerTableRecord
  2
131
 70
     0
 62
   253
420
 11382189
  6
Continuous
370
    -3
390
90A
347
940
348
0
  0
LAYER
  5
A0B
330
8FD
100
AcDbSymbolTableRecord
100
AcDbLayerTableRecord
  2
132
 70
     0
 62
   253
420
 11382189
  6
Continuous
370
    -3
390
90A
347
940
348
0
  0
LAYER
  5
A0C
330
8FD
100
AcDbSymbolTableRecord
100
AcDbLayerTableRecord
  2
144
 70
     0
 62
   253
420
 11382189
  6
Continuous
370
    -3
390
90A
347
940
348
0
  0
LAYER
  5
A0D
330
8FD
100
AcDbSymbolTableRecord
100
AcDbLayerTableRecord
  2
150
 70
     0
 62
   253
420
 11382189
  6
Continuous
370
    -3
390
90A
347
940
348
0
  0
LAYER
  5
A0E
330
8FD
100
AcDbSymbolTableRecord
100
AcDbLayerTableRecord
  2
151
 70
     0
 62
   253
420
 11382189
  6
Continuous
370
    -3
390
90A
347
940
348
0
  0
LAYER
  5
A0F
330
8FD
100
AcDbSymbolTableRecord
100
AcDbLayerTableRecord
  2
152
 70
     0
 62
   253
420
 11382189
  6
Continuous
370
    -3
390
90A
347
940
348
0
  0
LAYER
  5
A10
330
8FD
100
AcDbSymbolTableRecord
100
AcDbLayerTableRecord
  2
153
 70
     0
 62
   253
420
 11382189
  6
Continuous
370
    -3
390
90A
347
940
348
0
  0
LAYER
  5
A11
330
8FD
100
AcDbSymbolTableRecord
100
AcDbLayerTableRecord
  2
154
 70
     0
 62
   253
420
 11382189
  6
Continuous
370
    -3
390
90A
347
940
348
0
  0
LAYER
  5
A12
330
8FD
100
AcDbSymbolTableRecord
100
AcDbLayerTableRecord
  2
155
 70
     0
 62
   253
420
 11382189
  6
Continuous
370
    -3
390
90A
347
940
348
0
  0
LAYER
  5
A13
330
8FD
100
AcDbSymbolTableRecord
100
AcDbLayerTableRecord
  2
199
 70
     0
 62
   253
420
 11382189
  6
Continuous
370
    -3
390
90A
347
940
348
0
  0
LAYER
  5
A14
330
8FD
100
AcDbSymbolTableRecord
100
AcDbLayerTableRecord
  2
200
 70
     0
 62
   132
420
    52428
  6
Continuous
370
    -3
390
90A
347
940
348
0
  0
LAYER
  5
A15
330
8FD
100
AcDbSymbolTableRecord
100
AcDbLayerTableRecord
  2
201
 70
     0
 62
   253
420
 11382189
  6
Continuous
370
    -3
390
90A
347
940
348
0
  0
LAYER
  5
A16
330
8FD
100
AcDbSymbolTableRecord
100
AcDbLayerTableRecord
  2
202
 70
     0
 62
   253
420
 11382189
  6
Continuous
370
    -3
390
90A
347
940
348
0
  0
LAYER
  5
A17
330
8FD
100
AcDbSymbolTableRecord
100
AcDbLayerTableRecord
  2
203
 70
     0
 62
   253
420
 11382189
  6
Continuous
370
    -3
390
90A
347
940
348
0
  0
LAYER
  5
A18
330
8FD
100
AcDbSymbolTableRecord
100
AcDbLayerTableRecord
  2
204
 70
     0
 62
   253
420
 11382189
  6
Continuous
370
    -3
390
90A
347
940
348
0
  0
LAYER
  5
A19
330
8FD
100
AcDbSymbolTableRecord
100
AcDbLayerTableRecord
  2
205
 70
     0
 62
   253
420
 11382189
  6
Continuous
370
    -3
390
90A
347
940
348
0
  0
LAYER
  5
A1A
330
8FD
100
AcDbSymbolTableRecord
100
AcDbLayerTableRecord
  2
206
 70
     0
 62
   253
420
 11382189
  6
Continuous
370
    -3
390
90A
347
940
348
0
  0
LAYER
  5
A1B
330
8FD
100
AcDbSymbolTableRecord
100
AcDbLayerTableRecord
  2
207
 70
     0
 62
   253
420
 11382189
  6
Continuous
370
    -3
390
90A
347
940
348
0
  0
LAYER
  5
A1C
330
8FD
100
AcDbSymbolTableRecord
100
AcDbLayerTableRecord
  2
208
 70
     0
 62
   253
420
 11382189
  6
Continuous
370
    -3
390
90A
347
940
348
0
  0
LAYER
  5
A1D
330
8FD
100
AcDbSymbolTableRecord
100
AcDbLayerTableRecord
  2
209
 70
     0
 62
   253
420
 11382189
  6
Continuous
370
    -3
390
90A
347
940
348
0
  0
LAYER
  5
A1E
330
8FD
100
AcDbSymbolTableRecord
100
AcDbLayerTableRecord
  2
210
 70
     0
 62
   253
420
 11382189
  6
Continuous
370
    -3
390
90A
347
940
348
0
  0
LAYER
  5
A1F
330
8FD
100
AcDbSymbolTableRecord
100
AcDbLayerTableRecord
  2
211
 70
     0
 62
   253
420
 11382189
  6
Continuous
370
    -3
390
90A
347
940
348
0
  0
LAYER
  5
A20
330
8FD
100
AcDbSymbolTableRecord
100
AcDbLayerTableRecord
  2
212
 70
     0
 62
   253
420
 11382189
  6
Continuous
370
    -3
390
90A
347
940
348
0
  0
LAYER
  5
A21
330
8FD
100
AcDbSymbolTableRecord
100
AcDbLayerTableRecord
  2
213
 70
     0
 62
   253
420
 11382189
  6
Continuous
370
    -3
390
90A
347
940
348
0
  0
LAYER
  5
A22
330
8FD
100
AcDbSymbolTableRecord
100
AcDbLayerTableRecord
  2
214
 70
     0
 62
   253
420
 11382189
  6
Continuous
370
    -3
390
90A
347
940
348
0
  0
LAYER
  5
A23
330
8FD
100
AcDbSymbolTableRecord
100
AcDbLayerTableRecord
  2
215
 70
     0
 62
   253
420
 11382189
  6
Continuous
370
    -3
390
90A
347
940
348
0
  0
LAYER
  5
A24
330
8FD
100
AcDbSymbolTableRecord
100
AcDbLayerTableRecord
  2
216
 70
     0
 62
   253
420
 11382189
  6
Continuous
370
    -3
390
90A
347
940
348
0
  0
LAYER
  5
A25
330
8FD
100
AcDbSymbolTableRecord
100
AcDbLayerTableRecord
  2
217
 70
     0
 62
   253
420
 11382189
  6
Continuous
370
    -3
390
90A
347
940
348
0
  0
LAYER
  5
A26
330
8FD
100
AcDbSymbolTableRecord
100
AcDbLayerTableRecord
  2
218
 70
     0
 62
   253
420
 11382189
  6
Continuous
370
    -3
390
90A
347
940
348
0
  0
LAYER
  5
A27
330
8FD
100
AcDbSymbolTableRecord
100
AcDbLayerTableRecord
  2
219
 70
     0
 62
   253
420
 11382189
  6
Continuous
370
    -3
390
90A
347
940
348
0
  0
LAYER
  5
A28
330
8FD
100
AcDbSymbolTableRecord
100
AcDbLayerTableRecord
  2
220
 70
     0
 62
   253
420
 11382189
  6
Continuous
370
    -3
390
90A
347
940
348
0
  0
LAYER
  5
A29
330
8FD
100
AcDbSymbolTableRecord
100
AcDbLayerTableRecord
  2
221
 70
     0
 62
   253
420
 11382189
  6
Continuous
370
    -3
390
90A
347
940
348
0
  0
LAYER
  5
A2A
330
8FD
100
AcDbSymbolTableRecord
100
AcDbLayerTableRecord
  2
222
 70
     0
 62
   253
420
 11382189
  6
Continuous
370
    -3
390
90A
347
940
348
0
  0
LAYER
  5
A2B
330
8FD
100
AcDbSymbolTableRecord
100
AcDbLayerTableRecord
  2
223
 70
     0
 62
   253
420
 11382189
  6
Continuous
370
    -3
390
90A
347
940
348
0
  0
LAYER
  5
A2C
330
8FD
100
AcDbSymbolTableRecord
100
AcDbLayerTableRecord
  2
224
 70
     0
 62
   253
420
 11382189
  6
Continuous
370
    -3
390
90A
347
940
348
0
  0
LAYER
  5
A2D
330
8FD
100
AcDbSymbolTableRecord
100
AcDbLayerTableRecord
  2
225
 70
     0
 62
   253
420
 11382189
  6
Continuous
370
    -3
390
90A
347
940
348
0
  0
ENDTAB
  0
TABLE
  2
STYLE
  5
8FE
330
0
100
AcDbSymbolTable
 70
    13
  0
STYLE
  5
90C
330
8FE
100
AcDbSymbolTableRecord
100
AcDbTextStyleTableRecord
  2
Standard
 70
     0
 40
0.0
 41
1.0
 50
0.0
 71
     0
 42
0.2
  3
txt
  4

  0
STYLE
  5
996
330
8FE
100
AcDbSymbolTableRecord
100
AcDbTextStyleTableRecord
  2
QCADDimTextStyle
 70
     0
 40
0.0
 41
1.0
 50
0.0
 71
     0
 42
0.2
  3

  4

  0
STYLE
  5
9A6
330
8FE
100
AcDbSymbolTableRecord
100
AcDbTextStyleTableRecord
  2
textstyle0
 70
     0
 40
0.0
 41
1.0
 50
0.0
 71
     0
 42
0.2
  3
ltypeshp.shx
  4

  0
STYLE
  5
9A7
330
8FE
100
AcDbSymbolTableRecord
100
AcDbTextStyleTableRecord
  2
textstyle1
 70
     0
 40
0.0
 41
1.0
 50
0.0
 71
     0
 42
0.2
  3
ltypeshp.shx
  4

  0
STYLE
  5
9BB
330
8FE
100
AcDbSymbolTableRecord
100
AcDbTextStyleTableRecord
  2
textstyle2
 70
     0
 40
0.0
 41
1.0
 50
0.0
 71
     0
 42
0.2
  3
qcadshp.shx
  4

  0
STYLE
  5
9BD
330
8FE
100
AcDbSymbolTableRecord
100
AcDbTextStyleTableRecord
  2
textstyle3
 70
     0
 40
0.0
 41
1.0
 50
0.0
 71
     0
 42
0.2
  3
qcadshp.shx
  4

  0
STYLE
  5
9BF
330
8FE
100
AcDbSymbolTableRecord
100
AcDbTextStyleTableRecord
  2
textstyle4
 70
     0
 40
0.0
 41
1.0
 50
0.0
 71
     0
 42
0.2
  3
ltypeshp.shx
  4

  0
STYLE
  5
9C1
330
8FE
100
AcDbSymbolTableRecord
100
AcDbTextStyleTableRecord
  2
textstyle5
 70
     0
 40
0.0
 41
1.0
 50
0.0
 71
     0
 42
0.2
  3
ltypeshp.shx
  4

  0
STYLE
  5
9C3
330
8FE
100
AcDbSymbolTableRecord
100
AcDbTextStyleTableRecord
  2
textstyle6
 70
     0
 40
0.0
 41
1.0
 50
0.0
 71
     0
 42
0.2
  3
STANDARD
  4

  0
STYLE
  5
9C8
330
8FE
100
AcDbSymbolTableRecord
100
AcDbTextStyleTableRecord
  2
textstyle7
 70
     0
 40
0.0
 41
1.0
 50
0.0
 71
     0
 42
0.2
  3
STANDARD
  4

  0
STYLE
  5
9CD
330
8FE
100
AcDbSymbolTableRecord
100
AcDbTextStyleTableRecord
  2
textstyle8
 70
     0
 40
0.0
 41
1.0
 50
0.0
 71
     0
 42
0.2
  3
ltypeshp.shx
  4

  0
STYLE
  5
9CF
330
8FE
100
AcDbSymbolTableRecord
100
AcDbTextStyleTableRecord
  2
textstyle9
 70
     0
 40
0.0
 41
1.0
 50
0.0
 71
     0
 42
0.2
  3
ltypeshp.shx
  4

  0
STYLE
  5
9D0
330
8FE
100
AcDbSymbolTableRecord
100
AcDbTextStyleTableRecord
  2
textstyle10
 70
     0
 40
0.0
 41
1.0
 50
0.0
 71
     0
 42
0.2
  3
ltypeshp.shx
  4

  0
ENDTAB
  0
TABLE
  2
VIEW
  5
901
330
0
100
AcDbSymbolTable
 70
     0
  0
ENDTAB
  0
TABLE
  2
UCS
  5
902
330
0
100
AcDbSymbolTable
 70
     0
  0
ENDTAB
  0
TABLE
  2
APPID
  5
904
330
0
100
AcDbSymbolTable
 70
     2
  0
APPID
  5
90D
330
904
100
AcDbSymbolTableRecord
100
AcDbRegAppTableRecord
  2
ACAD
 70
     0
  0
APPID
  5
968
330
904
100
AcDbSymbolTableRecord
100
AcDbRegAppTableRecord
  2
QCAD
 70
     0
  0
ENDTAB
  0
TABLE
  2
DIMSTYLE
  5
905
330
0
100
AcDbSymbolTable
 70
     2
100
AcDbDimStyleTable
  0
DIMSTYLE
105
921
330
905
100
AcDbSymbolTableRecord
100
AcDbDimStyleTableRecord
  2
Standard
 70
     0
178
     0
340
90C
  0
DIMSTYLE
105
997
330
905
100
AcDbSymbolTableRecord
100
AcDbDimStyleTableRecord
  2
QCADDimStyle
 70
     0
 73
     0
 77
     1
178
     0
340
996
  0
ENDTAB
  0
TABLE
  2
BLOCK_RECORD
  5
8FC
330
0
100
AcDbSymbolTable
 70
    13
  0
BLOCK_RECORD
  5
919
330
8FC
100
AcDbSymbolTableRecord
100
AcDbBlockTableRecord
  2
*Model_Space
340
91C
 70
     0
280
     1
281
     0
  0
BLOCK_RECORD
  5
915
330
8FC
100
AcDbSymbolTableRecord
100
AcDbBlockTableRecord
  2
*Paper_Space
340
918
 70
     0
280
     1
281
     0
  0
BLOCK_RECORD
  5
91D
330
8FC
100
AcDbSymbolTableRecord
100
AcDbBlockTableRecord
  2
*Paper_Space0
340
920
 70
     0
280
     1
281
     0
  0
BLOCK_RECORD
  5
A2E
330
8FC
100
AcDbSymbolTableRecord
100
AcDbBlockTableRecord
  2
OCTAGONV
340
0
 70
     0
280
     1
281
     0
  0
BLOCK_RECORD
  5
A31
330
8FC
100
AcDbSymbolTableRecord
100
AcDbBlockTableRecord
  2
SQUAREV
340
0
 70
     0
280
     1
281
     0
  0
BLOCK_RECORD
  5
A34
330
8FC
100
AcDbSymbolTableRecord
100
AcDbBlockTableRecord
  2
ROUNDV
340
0
 70
     0
280
     1
281
     0
  0
BLOCK_RECORD
  5
A37
330
8FC
100
AcDbSymbolTableRecord
100
AcDbBlockTableRecord
  2
ANNULUSV
340
0
 70
     0
280
     1
281
     0
  0
BLOCK_RECORD
  5
A3A
330
8FC
100
AcDbSymbolTableRecord
100
AcDbBlockTableRecord
  2
THERMALV
340
0
 70
     0
280
     1
281
     0
  0
BLOCK_RECORD
  5
A3D
330
8FC
100
AcDbSymbolTableRecord
100
AcDbBlockTableRecord
  2
RECT
340
0
102
{BLKREFS
331
13A
331
13C
331
13D
331
159
331
15A
331
15B
331
15C
331
15D
331
3B7
331
3B8
331
3B9
331
3BA
331
3BB
331
465
331
466
331
4B0
331
4B1
331
5DE
331
670
331
702
331
794
331
826
331
8B8
102
}
 70
     0
280
     1
281
     0
  0
BLOCK_RECORD
  5
A40
330
8FC
100
AcDbSymbolTableRecord
100
AcDbBlockTableRecord
  2
PIE
340
0
 70
     0
280
     1
281
     0
  0
BLOCK_RECORD
  5
A43
330
8FC
100
AcDbSymbolTableRecord
100
AcDbBlockTableRecord
  2
OCTAGONP
340
0
 70
     0
280
     1
281
     0
  0
BLOCK_RECORD
  5
A46
330
8FC
100
AcDbSymbolTableRecord
100
AcDbBlockTableRecord
  2
SQUAREP
340
0
 70
     0
280
     1
281
     0
  0
BLOCK_RECORD
  5
A49
330
8FC
100
AcDbSymbolTableRecord
100
AcDbBlockTableRecord
  2
ROUNDP
340
0
 70
     0
280
     1
281
     0
  0
BLOCK_RECORD
  5
A4C
330
8FC
100
AcDbSymbolTableRecord
100
AcDbBlockTableRecord
  2
ANNULUSP
340
0
 70
     0
280
     1
281
     0
  0
BLOCK_RECORD
  5
A4F
330
8FC
100
AcDbSymbolTableRecord
100
AcDbBlockTableRecord
  2
THERMALP
340
0
 70
     0
280
     1
281
     0
  0
ENDTAB
  0
ENDSEC
  0
SECTION
  2
BLOCKS
  0
BLOCK
  5
91A
330
919
100
AcDbEntity
  8
0
100
AcDbBlockBegin
  2
*Model_Space
 70
     0
 10
0.0
 20
0.0
 30
0.0
  3
*Model_Space
  1
*Model_Space
  0
ENDBLK
  5
91B
330
919
100
AcDbEntity
  8
0
100
AcDbBlockEnd
  0
BLOCK
  5
916
330
915
100
AcDbEntity
 67
     1
  8
0
100
AcDbBlockBegin
  2
*Paper_Space
 70
     0
 10
0.0
 20
0.0
 30
0.0
  3
*Paper_Space
  1
*Paper_Space
  0
ENDBLK
  5
917
330
915
100
AcDbEntity
 67
     1
  8
0
100
AcDbBlockEnd
  0
BLOCK
  5
91E
330
91D
100
AcDbEntity
  8
0
100
AcDbBlockBegin
  2
*Paper_Space0
 70
     0
 10
0.0
 20
0.0
 30
0.0
  3
*Paper_Space0
  1
*Paper_Space0
  0
ENDBLK
  5
91F
330
91D
100
AcDbEntity
  8
0
100
AcDbBlockEnd
  0
BLOCK
  5
A2F
330
A2E
100
AcDbEntity
  8
0
100
AcDbBlockBegin
  2
OCTAGONV
 70
     0
 10
0.0
 20
0.0
 30
0.0
  3
OCTAGONV
  1
OCTAGONV
  0
LWPOLYLINE
  5
E2
330
A2E
100
AcDbEntity
  8
0
100
AcDbPolyline
 90
       10
 70
     0
 43
0.0
 10
-0.25
 20
-0.1036
 10
-0.25
 20
0.1036
 10
-0.1036
 20
0.25
 10
0.1036
 20
0.25
 10
0.25
 20
0.1036
 10
0.25
 20
-0.1036
 10
0.1036
 20
-0.25
 10
-0.1036
 20
-0.25
 10
-0.25
 20
-0.1036
 10
-0.25
 20
0.1036
  0
ENDBLK
  5
A30
330
A2E
100
AcDbEntity
  8
0
100
AcDbBlockEnd
  0
BLOCK
  5
A32
330
A31
100
AcDbEntity
  8
0
100
AcDbBlockBegin
  2
SQUAREV
 70
     0
 10
0.0
 20
0.0
 30
0.0
  3
SQUAREV
  1
SQUAREV
  0
SOLID
  5
F1
330
A31
100
AcDbEntity
  8
0
100
AcDbTrace
 10
-0.5
 20
-0.5
 30
0.0
 11
0.5
 21
-0.5
 31
0.0
 12
-0.5
 22
0.5
 32
0.0
 13
0.5
 23
0.5
 33
0.0
  0
ENDBLK
  5
A33
330
A31
100
AcDbEntity
  8
0
100
AcDbBlockEnd
  0
BLOCK
  5
A35
330
A34
100
AcDbEntity
  8
0
100
AcDbBlockBegin
  2
ROUNDV
 70
     0
 10
0.0
 20
0.0
 30
0.0
  3
ROUNDV
  1
ROUNDV
  0
LWPOLYLINE
  5
F5
330
A34
100
AcDbEntity
  8
0
100
AcDbPolyline
 90
        3
 70
     0
 43
0.0
 10
0.0
 20
-0.25
 42
1.0
 10
0.0
 20
0.25
 42
1.0
 10
0.0
 20
-0.25
  0
ENDBLK
  5
A36
330
A34
100
AcDbEntity
  8
0
100
AcDbBlockEnd
  0
BLOCK
  5
A38
330
A37
100
AcDbEntity
  8
0
100
AcDbBlockBegin
  2
ANNULUSV
 70
     0
 10
0.0
 20
0.0
 30
0.0
  3
ANNULUSV
  1
ANNULUSV
  0
LWPOLYLINE
  5
FD
330
A37
100
AcDbEntity
  8
0
100
AcDbPolyline
 90
        3
 70
     0
 43
0.0
 10
0.0
 20
-0.25
 42
1.0
 10
0.0
 20
0.25
 42
1.0
 10
0.0
 20
-0.25
  0
ENDBLK
  5
A39
330
A37
100
AcDbEntity
  8
0
100
AcDbBlockEnd
  0
BLOCK
  5
A3B
330
A3A
100
AcDbEntity
  8
0
100
AcDbBlockBegin
  2
THERMALV
 70
     0
 10
0.0
 20
0.0
 30
0.0
  3
THERMALV
  1
THERMALV
  0
LWPOLYLINE
  5
105
330
A3A
100
AcDbEntity
  8
0
100
AcDbPolyline
 90
        2
 70
     0
 43
0.0
 10
-0.2379
 20
0.45
 10
0.2379
 20
0.45
  0
LWPOLYLINE
  5
109
330
A3A
100
AcDbEntity
  8
0
100
AcDbPolyline
 90
        2
 70
     0
 43
0.0
 10
0.2379
 20
0.425
 42
1.0
 10
0.2379
 20
0.475
  0
LWPOLYLINE
  5
10D
330
A3A
100
AcDbEntity
  8
0
100
AcDbPolyline
 90
        2
 70
     0
 43
0.0
 10
-0.2379
 20
0.475
 42
1.0
 10
-0.2379
 20
0.425
  0
LWPOLYLINE
  5
111
330
A3A
100
AcDbEntity
  8
0
100
AcDbPolyline
 90
        2
 70
     0
 43
0.0
 10
0.45
 20
0.2379
 10
0.45
 20
-0.2379
  0
LWPOLYLINE
  5
115
330
A3A
100
AcDbEntity
  8
0
100
AcDbPolyline
 90
        2
 70
     0
 43
0.0
 10
0.425
 20
-0.2379
 42
1.0
 10
0.475
 20
-0.2379
  0
LWPOLYLINE
  5
119
330
A3A
100
AcDbEntity
  8
0
100
AcDbPolyline
 90
        2
 70
     0
 43
0.0
 10
0.475
 20
0.2379
 42
1.0
 10
0.425
 20
0.2379
  0
LWPOLYLINE
  5
11D
330
A3A
100
AcDbEntity
  8
0
100
AcDbPolyline
 90
        2
 70
     0
 43
0.0
 10
0.2379
 20
-0.45
 10
-0.2379
 20
-0.45
  0
LWPOLYLINE
  5
121
330
A3A
100
AcDbEntity
  8
0
100
AcDbPolyline
 90
        2
 70
     0
 43
0.0
 10
-0.2379
 20
-0.425
 42
1.0
 10
-0.2379
 20
-0.475
  0
LWPOLYLINE
  5
125
330
A3A
100
AcDbEntity
  8
0
100
AcDbPolyline
 90
        2
 70
     0
 43
0.0
 10
0.2379
 20
-0.475
 42
1.0
 10
0.2379
 20
-0.425
  0
LWPOLYLINE
  5
129
330
A3A
100
AcDbEntity
  8
0
100
AcDbPolyline
 90
        2
 70
     0
 43
0.0
 10
-0.45
 20
-0.2379
 10
-0.45
 20
0.2379
  0
LWPOLYLINE
  5
12D
330
A3A
100
AcDbEntity
  8
0
100
AcDbPolyline
 90
        2
 70
     0
 43
0.0
 10
-0.425
 20
0.2379
 42
1.0
 10
-0.475
 20
0.2379
  0
LWPOLYLINE
  5
131
330
A3A
100
AcDbEntity
  8
0
100
AcDbPolyline
 90
        2
 70
     0
 43
0.0
 10
-0.475
 20
-0.2379
 42
1.0
 10
-0.425
 20
-0.2379
  0
ENDBLK
  5
A3C
330
A3A
100
AcDbEntity
  8
0
100
AcDbBlockEnd
  0
BLOCK
  5
A3E
330
A3D
100
AcDbEntity
  8
0
100
AcDbBlockBegin
  2
RECT
 70
     0
 10
0.0
 20
0.0
 30
0.0
  3
RECT
  1
RECT
  0
SOLID
  5
80
330
A3D
100
AcDbEntity
  8
0
100
AcDbTrace
 10
-0.5
 20
-0.5
 30
0.0
 11
0.5
 21
-0.5
 31
0.0
 12
-0.5
 22
0.5
 32
0.0
 13
0.5
 23
0.5
 33
0.0
  0
ENDBLK
  5
A3F
330
A3D
100
AcDbEntity
  8
0
100
AcDbBlockEnd
  0
BLOCK
  5
A41
330
A40
100
AcDbEntity
  8
0
100
AcDbBlockBegin
  2
PIE
 70
     0
 10
0.0
 20
0.0
 30
0.0
  3
PIE
  1
PIE
  0
LWPOLYLINE
  5
84
330
A40
100
AcDbEntity
  8
0
100
AcDbPolyline
 90
        3
 70
     0
 43
0.0
 10
0.0
 20
-0.25
 42
1.0
 10
0.0
 20
0.25
 42
1.0
 10
0.0
 20
-0.25
  0
ENDBLK
  5
A42
330
A40
100
AcDbEntity
  8
0
100
AcDbBlockEnd
  0
BLOCK
  5
A44
330
A43
100
AcDbEntity
  8
0
100
AcDbBlockBegin
  2
OCTAGONP
 70
     0
 10
0.0
 20
0.0
 30
0.0
  3
OCTAGONP
  1
OCTAGONP
  0
LWPOLYLINE
  5
8C
330
A43
100
AcDbEntity
  8
0
100
AcDbPolyline
 90
       10
 70
     0
 43
0.0
 10
-0.25
 20
-0.1036
 10
-0.25
 20
0.1036
 10
-0.1036
 20
0.25
 10
0.1036
 20
0.25
 10
0.25
 20
0.1036
 10
0.25
 20
-0.1036
 10
0.1036
 20
-0.25
 10
-0.1036
 20
-0.25
 10
-0.25
 20
-0.1036
 10
-0.25
 20
0.1036
  0
ENDBLK
  5
A45
330
A43
100
AcDbEntity
  8
0
100
AcDbBlockEnd
  0
BLOCK
  5
A47
330
A46
100
AcDbEntity
  8
0
100
AcDbBlockBegin
  2
SQUAREP
 70
     0
 10
0.0
 20
0.0
 30
0.0
  3
SQUAREP
  1
SQUAREP
  0
SOLID
  5
9B
330
A46
100
AcDbEntity
  8
0
100
AcDbTrace
 10
-0.5
 20
-0.5
 30
0.0
 11
0.5
 21
-0.5
 31
0.0
 12
-0.5
 22
0.5
 32
0.0
 13
0.5
 23
0.5
 33
0.0
  0
ENDBLK
  5
A48
330
A46
100
AcDbEntity
  8
0
100
AcDbBlockEnd
  0
BLOCK
  5
A4A
330
A49
100
AcDbEntity
  8
0
100
AcDbBlockBegin
  2
ROUNDP
 70
     0
 10
0.0
 20
0.0
 30
0.0
  3
ROUNDP
  1
ROUNDP
  0
LWPOLYLINE
  5
9F
330
A49
100
AcDbEntity
  8
0
100
AcDbPolyline
 90
        3
 70
     0
 43
0.0
 10
0.0
 20
-0.25
 42
1.0
 10
0.0
 20
0.25
 42
1.0
 10
0.0
 20
-0.25
  0
ENDBLK
  5
A4B
330
A49
100
AcDbEntity
  8
0
100
AcDbBlockEnd
  0
BLOCK
  5
A4D
330
A4C
100
AcDbEntity
  8
0
100
AcDbBlockBegin
  2
ANNULUSP
 70
     0
 10
0.0
 20
0.0
 30
0.0
  3
ANNULUSP
  1
ANNULUSP
  0
LWPOLYLINE
  5
A7
330
A4C
100
AcDbEntity
  8
0
100
AcDbPolyline
 90
        3
 70
     0
 43
0.0
 10
0.0
 20
-0.25
 42
1.0
 10
0.0
 20
0.25
 42
1.0
 10
0.0
 20
-0.25
  0
ENDBLK
  5
A4E
330
A4C
100
AcDbEntity
  8
0
100
AcDbBlockEnd
  0
BLOCK
  5
A50
330
A4F
100
AcDbEntity
  8
0
100
AcDbBlockBegin
  2
THERMALP
 70
     0
 10
0.0
 20
0.0
 30
0.0
  3
THERMALP
  1
THERMALP
  0
LWPOLYLINE
  5
AF
330
A4F
100
AcDbEntity
  8
0
100
AcDbPolyline
 90
        2
 70
     0
 43
0.0
 10
-0.2379
 20
0.45
 10
0.2379
 20
0.45
  0
LWPOLYLINE
  5
B3
330
A4F
100
AcDbEntity
  8
0
100
AcDbPolyline
 90
        2
 70
     0
 43
0.0
 10
0.2379
 20
0.425
 42
1.0
 10
0.2379
 20
0.475
  0
LWPOLYLINE
  5
B7
330
A4F
100
AcDbEntity
  8
0
100
AcDbPolyline
 90
        2
 70
     0
 43
0.0
 10
-0.2379
 20
0.475
 42
1.0
 10
-0.2379
 20
0.425
  0
LWPOLYLINE
  5
BB
330
A4F
100
AcDbEntity
  8
0
100
AcDbPolyline
 90
        2
 70
     0
 43
0.0
 10
0.45
 20
0.2379
 10
0.45
 20
-0.2379
  0
LWPOLYLINE
  5
BF
330
A4F
100
AcDbEntity
  8
0
100
AcDbPolyline
 90
        2
 70
     0
 43
0.0
 10
0.425
 20
-0.2379
 42
1.0
 10
0.475
 20
-0.2379
  0
LWPOLYLINE
  5
C3
330
A4F
100
AcDbEntity
  8
0
100
AcDbPolyline
 90
        2
 70
     0
 43
0.0
 10
0.475
 20
0.2379
 42
1.0
 10
0.425
 20
0.2379
  0
LWPOLYLINE
  5
C7
330
A4F
100
AcDbEntity
  8
0
100
AcDbPolyline
 90
        2
 70
     0
 43
0.0
 10
0.2379
 20
-0.45
 10
-0.2379
 20
-0.45
  0
LWPOLYLINE
  5
CB
330
A4F
100
AcDbEntity
  8
0
100
AcDbPolyline
 90
        2
 70
     0
 43
0.0
 10
-0.2379
 20
-0.425
 42
1.0
 10
-0.2379
 20
-0.475
  0
LWPOLYLINE
  5
CF
330
A4F
100
AcDbEntity
  8
0
100
AcDbPolyline
 90
        2
 70
     0
 43
0.0
 10
0.2379
 20
-0.475
 42
1.0
 10
0.2379
 20
-0.425
  0
LWPOLYLINE
  5
D3
330
A4F
100
AcDbEntity
  8
0
100
AcDbPolyline
 90
        2
 70
     0
 43
0.0
 10
-0.45
 20
-0.2379
 10
-0.45
 20
0.2379
  0
LWPOLYLINE
  5
D7
330
A4F
100
AcDbEntity
  8
0
100
AcDbPolyline
 90
        2
 70
     0
 43
0.0
 10
-0.425
 20
0.2379
 42
1.0
 10
-0.475
 20
0.2379
  0
LWPOLYLINE
  5
DB
330
A4F
100
AcDbEntity
  8
0
100
AcDbPolyline
 90
        2
 70
     0
 43
0.0
 10
-0.475
 20
-0.2379
 42
1.0
 10
-0.425
 20
-0.2379
  0
ENDBLK
  5
A51
330
A4F
100
AcDbEntity
  8
0
100
AcDbBlockEnd
  0
ENDSEC
  0
SECTION
  2
ENTITIES
  0
LINE
  5
136
330
919
100
AcDbEntity
  8
39
100
AcDbLine
 10
0.0
 20
0.0
 30
0.0
 11
0.0
 21
46.99
 31
0.0
  0
LINE
  5
137
330
919
100
AcDbEntity
  8
39
100
AcDbLine
 10
0.0
 20
46.99
 30
0.0
 11
28.0035
 21
46.99
 31
0.0
  0
LINE
  5
138
330
919
100
AcDbEntity
  8
39
100
AcDbLine
 10
28.0035
 20
46.99
 30
0.0
 11
28.0035
 21
0.0
 31
0.0
  0
LINE
  5
139
330
919
100
AcDbEntity
  8
39
100
AcDbLine
 10
17.018
 20
0.0
 30
0.0
 11
13.462
 21
0.0
 31
0.0
  0
INSERT
  5
13A
330
919
100
AcDbEntity
  8
25
100
AcDbBlockReference
  2
RECT
 10
14.478
 20
34.544
 30
0.0
 41
14.224
 42
11.176
  0
INSERT
  5
13C
330
919
100
AcDbEntity
  8
39
100
AcDbBlockReference
  2
RECT
 10
3.8735
 20
43.815
 30
0.0
 41
2.921
 42
1.524
  0
INSERT
  5
13D
330
919
100
AcDbEntity
  8
39
100
AcDbBlockReference
  2
RECT
 10
24.9555
 20
43.688
 30
0.0
 41
3.175
 42
1.524
  0
POINT
  5
140
330
919
100
AcDbEntity
  8
23
100
AcDbPoint
 10
24.9913
 20
43.7348
 30
0.0
  0
LWPOLYLINE
  5
141
330
919
100
AcDbEntity
  8
51
100
AcDbPolyline
 90
        2
 70
     0
 43
0.0
 10
25.4413
 20
44.1348
 10
24.5413
 20
44.1348
  0
LWPOLYLINE
  5
145
330
919
100
AcDbEntity
  8
51
100
AcDbPolyline
 90
        2
 70
     0
 43
0.0
 10
24.5413
 20
44.1602
 42
1.0
 10
24.5413
 20
44.1094
  0
LWPOLYLINE
  5
149
330
919
100
AcDbEntity
  8
51
100
AcDbPolyline
 90
        2
 70
     0
 43
0.0
 10
25.4413
 20
44.1094
 42
1.0
 10
25.4413
 20
44.1602
  0
LWPOLYLINE
  5
14D
330
919
100
AcDbEntity
  8
51
100
AcDbPolyline
 90
        2
 70
     0
 43
0.0
 10
25.4413
 20
43.3348
 10
24.5413
 20
43.3348
  0
LWPOLYLINE
  5
151
330
919
100
AcDbEntity
  8
51
100
AcDbPolyline
 90
        2
 70
     0
 43
0.0
 10
24.5413
 20
43.3602
 42
1.0
 10
24.5413
 20
43.3094
  0
LWPOLYLINE
  5
155
330
919
100
AcDbEntity
  8
51
100
AcDbPolyline
 90
        2
 70
     0
 43
0.0
 10
25.4413
 20
43.3094
 42
1.0
 10
25.4413
 20
43.3602
  0
INSERT
  5
159
330
919
100
AcDbEntity
  8
51
100
AcDbBlockReference
  2
RECT
 10
25.6413
 20
43.7348
 30
0.0
 41
0.9
 42
0.4
 50
270.0
  0
INSERT
  5
15A
330
919
100
AcDbEntity
  8
51
100
AcDbBlockReference
  2
RECT
 10
24.3413
 20
43.7348
 30
0.0
 41
0.9
 42
0.4
 50
270.0
  0
INSERT
  5
15B
330
919
100
AcDbEntity
  8
21
100
AcDbBlockReference
  2
RECT
 10
25.1413
 20
44.1098
 30
0.0
 41
0.15
 42
0.3
 50
270.0
  0
INSERT
  5
15C
330
919
100
AcDbEntity
  8
21
100
AcDbBlockReference
  2
RECT
 10
25.1413
 20
43.3598
 30
0.0
 41
0.15
 42
0.3
 50
270.0
  0
INSERT
  5
15D
330
919
100
AcDbEntity
  8
21
100
AcDbBlockReference
  2
RECT
 10
25.1413
 20
43.7348
 30
0.0
 41
0.3
 42
0.3
 50
270.0
  0
LWPOLYLINE
  5
15E
330
919
100
AcDbEntity
  8
25
100
AcDbPolyline
 90
        2
 70
     0
 43
0.0
 10
23.1395
 20
45.0553
 10
23.1395
 20
46.2237
  0
LWPOLYLINE
  5
162
330
919
100
AcDbEntity
  8
25
100
AcDbPolyline
 90
        2
 70
     0
 43
0.0
 10
23.1649
 20
46.2237
 42
1.0
 10
23.1141
 20
46.2237
  0
LWPOLYLINE
  5
166
330
919
100
AcDbEntity
  8
25
100
AcDbPolyline
 90
        2
 70
     0
 43
0.0
 10
23.1141
 20
45.0553
 42
1.0
 10
23.1649
 20
45.0553
  0
LWPOLYLINE
  5
16A
330
919
100
AcDbEntity
  8
25
100
AcDbPolyline
 90
        2
 70
     0
 43
0.0
 10
23.1395
 20
45.7044
 10
23.7886
 20
45.7044
  0
LWPOLYLINE
  5
16E
330
919
100
AcDbEntity
  8
25
100
AcDbPolyline
 90
        2
 70
     0
 43
0.0
 10
23.7886
 20
45.679
 42
1.0
 10
23.7886
 20
45.7298
  0
LWPOLYLINE
  5
172
330
919
100
AcDbEntity
  8
25
100
AcDbPolyline
 90
        2
 70
     0
 43
0.0
 10
23.1395
 20
45.7298
 42
1.0
 10
23.1395
 20
45.679
  0
LWPOLYLINE
  5
176
330
919
100
AcDbEntity
  8
25
100
AcDbPolyline
 90
        2
 70
     0
 43
0.0
 10
23.7886
 20
46.2237
 10
23.7886
 20
45.0553
  0
LWPOLYLINE
  5
17A
330
919
100
AcDbEntity
  8
25
100
AcDbPolyline
 90
        2
 70
     0
 43
0.0
 10
23.7632
 20
45.0553
 42
1.0
 10
23.814
 20
45.0553
  0
LWPOLYLINE
  5
17E
330
919
100
AcDbEntity
  8
25
100
AcDbPolyline
 90
        2
 70
     0
 43
0.0
 10
23.814
 20
46.2237
 42
1.0
 10
23.7632
 20
46.2237
  0
LWPOLYLINE
  5
182
330
919
100
AcDbEntity
  8
25
100
AcDbPolyline
 90
        2
 70
     0
 43
0.0
 10
24.3587
 20
45.0553
 10
24.3587
 20
46.2237
  0
LWPOLYLINE
  5
186
330
919
100
AcDbEntity
  8
25
100
AcDbPolyline
 90
        2
 70
     0
 43
0.0
 10
24.3841
 20
46.2237
 42
1.0
 10
24.3333
 20
46.2237
  0
LWPOLYLINE
  5
18A
330
919
100
AcDbEntity
  8
25
100
AcDbPolyline
 90
        2
 70
     0
 43
0.0
 10
24.3333
 20
45.0553
 42
1.0
 10
24.3841
 20
45.0553
  0
LWPOLYLINE
  5
18E
330
919
100
AcDbEntity
  8
25
100
AcDbPolyline
 90
        2
 70
     0
 43
0.0
 10
24.3587
 20
46.2237
 10
24.6832
 20
46.2237
  0
LWPOLYLINE
  5
192
330
919
100
AcDbEntity
  8
25
100
AcDbPolyline
 90
        2
 70
     0
 43
0.0
 10
24.6832
 20
46.1983
 42
1.0
 10
24.6832
 20
46.2491
  0
LWPOLYLINE
  5
196
330
919
100
AcDbEntity
  8
25
100
AcDbPolyline
 90
        2
 70
     0
 43
0.0
 10
24.3587
 20
46.2491
 42
1.0
 10
24.3587
 20
46.1983
  0
LWPOLYLINE
  5
19A
330
919
100
AcDbEntity
  8
25
100
AcDbPolyline
 90
        2
 70
     0
 43
0.0
 10
25.0078
 20
45.8991
 42
0.4142
 10
24.6832
 20
46.2237
  0
LWPOLYLINE
  5
19E
330
919
100
AcDbEntity
  8
25
100
AcDbPolyline
 90
        2
 70
     0
 43
0.0
 10
24.9824
 20
45.8991
 42
1.0
 10
25.0332
 20
45.8991
  0
LWPOLYLINE
  5
1A2
330
919
100
AcDbEntity
  8
25
100
AcDbPolyline
 90
        2
 70
     0
 43
0.0
 10
24.6832
 20
46.2491
 42
1.0
 10
24.6832
 20
46.1983
  0
LWPOLYLINE
  5
1A6
330
919
100
AcDbEntity
  8
25
100
AcDbPolyline
 90
        2
 70
     0
 43
0.0
 10
25.0078
 20
45.8991
 10
25.0078
 20
45.3798
  0
LWPOLYLINE
  5
1AA
330
919
100
AcDbEntity
  8
25
100
AcDbPolyline
 90
        2
 70
     0
 43
0.0
 10
24.9824
 20
45.3798
 42
1.0
 10
25.0332
 20
45.3798
  0
LWPOLYLINE
  5
1AE
330
919
100
AcDbEntity
  8
25
100
AcDbPolyline
 90
        2
 70
     0
 43
0.0
 10
25.0332
 20
45.8991
 42
1.0
 10
24.9824
 20
45.8991
  0
LWPOLYLINE
  5
1B2
330
919
100
AcDbEntity
  8
25
100
AcDbPolyline
 90
        2
 70
     0
 43
0.0
 10
24.6832
 20
45.0553
 42
0.4142
 10
25.0078
 20
45.3798
  0
LWPOLYLINE
  5
1B6
330
919
100
AcDbEntity
  8
25
100
AcDbPolyline
 90
        2
 70
     0
 43
0.0
 10
24.6832
 20
45.0807
 42
1.0
 10
24.6832
 20
45.0299
  0
LWPOLYLINE
  5
1BA
330
919
100
AcDbEntity
  8
25
100
AcDbPolyline
 90
        2
 70
     0
 43
0.0
 10
25.0332
 20
45.3798
 42
1.0
 10
24.9824
 20
45.3798
  0
LWPOLYLINE
  5
1BE
330
919
100
AcDbEntity
  8
25
100
AcDbPolyline
 90
        2
 70
     0
 43
0.0
 10
24.6832
 20
45.0553
 10
24.3587
 20
45.0553
  0
LWPOLYLINE
  5
1C2
330
919
100
AcDbEntity
  8
25
100
AcDbPolyline
 90
        2
 70
     0
 43
0.0
 10
24.3587
 20
45.0807
 42
1.0
 10
24.3587
 20
45.0299
  0
LWPOLYLINE
  5
1C6
330
919
100
AcDbEntity
  8
25
100
AcDbPolyline
 90
        2
 70
     0
 43
0.0
 10
24.6832
 20
45.0299
 42
1.0
 10
24.6832
 20
45.0807
  0
LWPOLYLINE
  5
1CA
330
919
100
AcDbEntity
  8
25
100
AcDbPolyline
 90
        2
 70
     0
 43
0.0
 10
25.5779
 20
45.0553
 10
25.5779
 20
46.2237
  0
LWPOLYLINE
  5
1CE
330
919
100
AcDbEntity
  8
25
100
AcDbPolyline
 90
        2
 70
     0
 43
0.0
 10
25.6033
 20
46.2237
 42
1.0
 10
25.5525
 20
46.2237
  0
LWPOLYLINE
  5
1D2
330
919
100
AcDbEntity
  8
25
100
AcDbPolyline
 90
        2
 70
     0
 43
0.0
 10
25.5525
 20
45.0553
 42
1.0
 10
25.6033
 20
45.0553
  0
LWPOLYLINE
  5
1D6
330
919
100
AcDbEntity
  8
25
100
AcDbPolyline
 90
        2
 70
     0
 43
0.0
 10
25.5779
 20
46.2237
 10
25.9024
 20
46.2237
  0
LWPOLYLINE
  5
1DA
330
919
100
AcDbEntity
  8
25
100
AcDbPolyline
 90
        2
 70
     0
 43
0.0
 10
25.9024
 20
46.1983
 42
1.0
 10
25.9024
 20
46.2491
  0
LWPOLYLINE
  5
1DE
330
919
100
AcDbEntity
  8
25
100
AcDbPolyline
 90
        2
 70
     0
 43
0.0
 10
25.5779
 20
46.2491
 42
1.0
 10
25.5779
 20
46.1983
  0
LWPOLYLINE
  5
1E2
330
919
100
AcDbEntity
  8
25
100
AcDbPolyline
 90
        2
 70
     0
 43
0.0
 10
26.227
 20
45.8991
 42
0.4142
 10
25.9024
 20
46.2237
  0
LWPOLYLINE
  5
1E6
330
919
100
AcDbEntity
  8
25
100
AcDbPolyline
 90
        2
 70
     0
 43
0.0
 10
26.2016
 20
45.8991
 42
1.0
 10
26.2524
 20
45.8991
  0
LWPOLYLINE
  5
1EA
330
919
100
AcDbEntity
  8
25
100
AcDbPolyline
 90
        2
 70
     0
 43
0.0
 10
25.9024
 20
46.2491
 42
1.0
 10
25.9024
 20
46.1983
  0
LWPOLYLINE
  5
1EE
330
919
100
AcDbEntity
  8
25
100
AcDbPolyline
 90
        2
 70
     0
 43
0.0
 10
26.227
 20
45.8991
 10
26.227
 20
45.3798
  0
LWPOLYLINE
  5
1F2
330
919
100
AcDbEntity
  8
25
100
AcDbPolyline
 90
        2
 70
     0
 43
0.0
 10
26.2016
 20
45.3798
 42
1.0
 10
26.2524
 20
45.3798
  0
LWPOLYLINE
  5
1F6
330
919
100
AcDbEntity
  8
25
100
AcDbPolyline
 90
        2
 70
     0
 43
0.0
 10
26.2524
 20
45.8991
 42
1.0
 10
26.2016
 20
45.8991
  0
LWPOLYLINE
  5
1FA
330
919
100
AcDbEntity
  8
25
100
AcDbPolyline
 90
        2
 70
     0
 43
0.0
 10
25.9024
 20
45.0553
 42
0.4142
 10
26.227
 20
45.3798
  0
LWPOLYLINE
  5
1FE
330
919
100
AcDbEntity
  8
25
100
AcDbPolyline
 90
        2
 70
     0
 43
0.0
 10
25.9024
 20
45.0807
 42
1.0
 10
25.9024
 20
45.0299
  0
LWPOLYLINE
  5
202
330
919
100
AcDbEntity
  8
25
100
AcDbPolyline
 90
        2
 70
     0
 43
0.0
 10
26.2524
 20
45.3798
 42
1.0
 10
26.2016
 20
45.3798
  0
LWPOLYLINE
  5
206
330
919
100
AcDbEntity
  8
25
100
AcDbPolyline
 90
        2
 70
     0
 43
0.0
 10
25.9024
 20
45.0553
 10
25.5779
 20
45.0553
  0
LWPOLYLINE
  5
20A
330
919
100
AcDbEntity
  8
25
100
AcDbPolyline
 90
        2
 70
     0
 43
0.0
 10
25.5779
 20
45.0807
 42
1.0
 10
25.5779
 20
45.0299
  0
LWPOLYLINE
  5
20E
330
919
100
AcDbEntity
  8
25
100
AcDbPolyline
 90
        2
 70
     0
 43
0.0
 10
25.9024
 20
45.0299
 42
1.0
 10
25.9024
 20
45.0807
  0
LWPOLYLINE
  5
213
330
919
100
AcDbEntity
  8
51
100
AcDbPolyline
 90
        2
 70
     0
 43
0.0
 10
17.836
 20
0.824
 10
17.836
 20
5.074
  0
LWPOLYLINE
  5
217
330
919
100
AcDbEntity
  8
51
100
AcDbPolyline
 90
        2
 70
     0
 43
0.0
 10
17.8678
 20
5.074
 42
1.0
 10
17.8043
 20
5.074
  0
LWPOLYLINE
  5
21B
330
919
100
AcDbEntity
  8
51
100
AcDbPolyline
 90
        2
 70
     0
 43
0.0
 10
17.8043
 20
0.824
 42
1.0
 10
17.8678
 20
0.824
  0
LWPOLYLINE
  5
21F
330
919
100
AcDbEntity
  8
51
100
AcDbPolyline
 90
        2
 70
     0
 43
0.0
 10
17.836
 20
5.074
 10
24.836
 20
5.074
  0
LWPOLYLINE
  5
223
330
919
100
AcDbEntity
  8
51
100
AcDbPolyline
 90
        2
 70
     0
 43
0.0
 10
24.836
 20
5.0423
 42
1.0
 10
24.836
 20
5.1057
  0
LWPOLYLINE
  5
227
330
919
100
AcDbEntity
  8
51
100
AcDbPolyline
 90
        2
 70
     0
 43
0.0
 10
17.836
 20
5.1057
 42
1.0
 10
17.836
 20
5.0423
  0
LWPOLYLINE
  5
22B
330
919
100
AcDbEntity
  8
51
100
AcDbPolyline
 90
        2
 70
     0
 43
0.0
 10
24.836
 20
5.074
 10
24.836
 20
0.824
  0
LWPOLYLINE
  5
22F
330
919
100
AcDbEntity
  8
51
100
AcDbPolyline
 90
        2
 70
     0
 43
0.0
 10
24.8043
 20
0.824
 42
1.0
 10
24.8678
 20
0.824
  0
LWPOLYLINE
  5
233
330
919
100
AcDbEntity
  8
51
100
AcDbPolyline
 90
        2
 70
     0
 43
0.0
 10
24.8678
 20
5.074
 42
1.0
 10
24.8043
 20
5.074
  0
LWPOLYLINE
  5
237
330
919
100
AcDbEntity
  8
51
100
AcDbPolyline
 90
        2
 70
     0
 43
0.0
 10
24.836
 20
0.824
 10
17.836
 20
0.824
  0
LWPOLYLINE
  5
23B
330
919
100
AcDbEntity
  8
51
100
AcDbPolyline
 90
        2
 70
     0
 43
0.0
 10
17.836
 20
0.8558
 42
1.0
 10
17.836
 20
0.7923
  0
LWPOLYLINE
  5
23F
330
919
100
AcDbEntity
  8
51
100
AcDbPolyline
 90
        2
 70
     0
 43
0.0
 10
24.836
 20
0.7923
 42
1.0
 10
24.836
 20
0.8558
  0
LWPOLYLINE
  5
243
330
919
100
AcDbEntity
  8
21
100
AcDbPolyline
 90
        2
 70
     0
 43
0.0
 10
18.726
 20
5.074
 10
17.836
 20
5.074
  0
LWPOLYLINE
  5
247
330
919
100
AcDbEntity
  8
21
100
AcDbPolyline
 90
        2
 70
     0
 43
0.0
 10
17.836
 20
5.1057
 42
1.0
 10
17.836
 20
5.0423
  0
LWPOLYLINE
  5
24B
330
919
100
AcDbEntity
  8
21
100
AcDbPolyline
 90
        2
 70
     0
 43
0.0
 10
18.726
 20
5.0423
 42
1.0
 10
18.726
 20
5.1057
  0
LWPOLYLINE
  5
24F
330
919
100
AcDbEntity
  8
21
100
AcDbPolyline
 90
        2
 70
     0
 43
0.0
 10
17.836
 20
5.074
 10
17.836
 20
2.734
  0
LWPOLYLINE
  5
253
330
919
100
AcDbEntity
  8
21
100
AcDbPolyline
 90
        2
 70
     0
 43
0.0
 10
17.8043
 20
2.734
 42
1.0
 10
17.8678
 20
2.734
  0
LWPOLYLINE
  5
257
330
919
100
AcDbEntity
  8
21
100
AcDbPolyline
 90
        2
 70
     0
 43
0.0
 10
17.8678
 20
5.074
 42
1.0
 10
17.8043
 20
5.074
  0
LWPOLYLINE
  5
25B
330
919
100
AcDbEntity
  8
21
100
AcDbPolyline
 90
        2
 70
     0
 43
0.0
 10
18.946
 20
0.824
 10
23.726
 20
0.824
  0
LWPOLYLINE
  5
25F
330
919
100
AcDbEntity
  8
21
100
AcDbPolyline
 90
        2
 70
     0
 43
0.0
 10
23.726
 20
0.7923
 42
1.0
 10
23.726
 20
0.8558
  0
LWPOLYLINE
  5
263
330
919
100
AcDbEntity
  8
21
100
AcDbPolyline
 90
        2
 70
     0
 43
0.0
 10
18.946
 20
0.8558
 42
1.0
 10
18.946
 20
0.7923
  0
LWPOLYLINE
  5
267
330
919
100
AcDbEntity
  8
21
100
AcDbPolyline
 90
        2
 70
     0
 43
0.0
 10
23.946
 20
5.074
 10
24.836
 20
5.074
  0
LWPOLYLINE
  5
26B
330
919
100
AcDbEntity
  8
21
100
AcDbPolyline
 90
        2
 70
     0
 43
0.0
 10
24.836
 20
5.0423
 42
1.0
 10
24.836
 20
5.1057
  0
LWPOLYLINE
  5
26F
330
919
100
AcDbEntity
  8
21
100
AcDbPolyline
 90
        2
 70
     0
 43
0.0
 10
23.946
 20
5.1057
 42
1.0
 10
23.946
 20
5.0423
  0
LWPOLYLINE
  5
273
330
919
100
AcDbEntity
  8
21
100
AcDbPolyline
 90
        2
 70
     0
 43
0.0
 10
24.836
 20
5.074
 10
24.836
 20
2.734
  0
LWPOLYLINE
  5
277
330
919
100
AcDbEntity
  8
21
100
AcDbPolyline
 90
        2
 70
     0
 43
0.0
 10
24.8043
 20
2.734
 42
1.0
 10
24.8678
 20
2.734
  0
LWPOLYLINE
  5
27B
330
919
100
AcDbEntity
  8
21
100
AcDbPolyline
 90
        2
 70
     0
 43
0.0
 10
24.8678
 20
5.074
 42
1.0
 10
24.8043
 20
5.074
  0
LWPOLYLINE
  5
29B
330
919
100
AcDbEntity
  8
39
100
AcDbPolyline
 90
        2
 70
     0
 43
0.0
 10
17.5985
 20
6.424
 42
1.0
 10
17.5735
 20
6.424
  0
LWPOLYLINE
  5
2A7
330
919
100
AcDbEntity
  8
39
100
AcDbPolyline
 90
        2
 70
     0
 43
0.0
 10
25.086
 20
6.4115
 42
1.0
 10
25.086
 20
6.4365
  0
LWPOLYLINE
  5
2AB
330
919
100
AcDbEntity
  8
39
100
AcDbPolyline
 90
        2
 70
     0
 43
0.0
 10
17.586
 20
6.4365
 42
1.0
 10
17.586
 20
6.4115
  0
LWPOLYLINE
  5
2B7
330
919
100
AcDbEntity
  8
39
100
AcDbPolyline
 90
        2
 70
     0
 43
0.0
 10
25.0985
 20
6.424
 42
1.0
 10
25.0735
 20
6.424
  0
LWPOLYLINE
  5
2DF
330
919
100
AcDbEntity
  8
21
100
AcDbPolyline
 90
        3
 70
     0
 43
0.0
 10
19.336
 20
6.624
 42
1.0
 10
19.336
 20
6.824
 42
1.0
 10
19.336
 20
6.624
  0
LWPOLYLINE
  5
2E4
330
919
100
AcDbEntity
  8
51
100
AcDbPolyline
 90
        3
 70
     0
 43
0.0
 10
19.336
 20
6.624
 42
1.0
 10
19.336
 20
6.824
 42
1.0
 10
19.336
 20
6.624
  0
LWPOLYLINE
  5
2E9
330
919
100
AcDbEntity
  8
25
100
AcDbPolyline
 90
        2
 70
     0
 43
0.0
 10
17.8196
 20
7.7987
 10
17.8196
 20
7.2258
  0
LWPOLYLINE
  5
2ED
330
919
100
AcDbEntity
  8
25
100
AcDbPolyline
 90
        2
 70
     0
 43
0.0
 10
17.8006
 20
7.2258
 42
1.0
 10
17.8387
 20
7.2258
  0
LWPOLYLINE
  5
2F1
330
919
100
AcDbEntity
  8
25
100
AcDbPolyline
 90
        2
 70
     0
 43
0.0
 10
17.8387
 20
7.7987
 42
1.0
 10
17.8006
 20
7.7987
  0
LWPOLYLINE
  5
2F5
330
919
100
AcDbEntity
  8
25
100
AcDbPolyline
 90
        2
 70
     0
 43
0.0
 10
17.6559
 20
7.0621
 42
0.4142
 10
17.8196
 20
7.2258
  0
LWPOLYLINE
  5
2F9
330
919
100
AcDbEntity
  8
25
100
AcDbPolyline
 90
        2
 70
     0
 43
0.0
 10
17.6559
 20
7.0812
 42
1.0
 10
17.6559
 20
7.0431
  0
LWPOLYLINE
  5
2FD
330
919
100
AcDbEntity
  8
25
100
AcDbPolyline
 90
        2
 70
     0
 43
0.0
 10
17.8387
 20
7.2258
 42
1.0
 10
17.8006
 20
7.2258
  0
LWPOLYLINE
  5
301
330
919
100
AcDbEntity
  8
25
100
AcDbPolyline
 90
        2
 70
     0
 43
0.0
 10
17.6559
 20
7.0621
 10
17.5741
 20
7.0621
  0
LWPOLYLINE
  5
305
330
919
100
AcDbEntity
  8
25
100
AcDbPolyline
 90
        2
 70
     0
 43
0.0
 10
17.5741
 20
7.0812
 42
1.0
 10
17.5741
 20
7.0431
  0
LWPOLYLINE
  5
309
330
919
100
AcDbEntity
  8
25
100
AcDbPolyline
 90
        2
 70
     0
 43
0.0
 10
17.6559
 20
7.0431
 42
1.0
 10
17.6559
 20
7.0812
  0
LWPOLYLINE
  5
30D
330
919
100
AcDbEntity
  8
25
100
AcDbPolyline
 90
        2
 70
     0
 43
0.0
 10
18.1631
 20
7.635
 10
18.3677
 20
7.7987
  0
LWPOLYLINE
  5
311
330
919
100
AcDbEntity
  8
25
100
AcDbPolyline
 90
        2
 70
     0
 43
0.0
 10
18.3796
 20
7.7838
 42
1.0
 10
18.3558
 20
7.8136
  0
LWPOLYLINE
  5
315
330
919
100
AcDbEntity
  8
25
100
AcDbPolyline
 90
        2
 70
     0
 43
0.0
 10
18.1512
 20
7.6499
 42
1.0
 10
18.175
 20
7.6201
  0
LWPOLYLINE
  5
319
330
919
100
AcDbEntity
  8
25
100
AcDbPolyline
 90
        2
 70
     0
 43
0.0
 10
18.3677
 20
7.7987
 10
18.3677
 20
7.0621
  0
LWPOLYLINE
  5
31D
330
919
100
AcDbEntity
  8
25
100
AcDbPolyline
 90
        2
 70
     0
 43
0.0
 10
18.3486
 20
7.0621
 42
1.0
 10
18.3867
 20
7.0621
  0
LWPOLYLINE
  5
321
330
919
100
AcDbEntity
  8
25
100
AcDbPolyline
 90
        2
 70
     0
 43
0.0
 10
18.3867
 20
7.7987
 42
1.0
 10
18.3486
 20
7.7987
  0
LWPOLYLINE
  5
325
330
919
100
AcDbEntity
  8
25
100
AcDbPolyline
 90
        2
 70
     0
 43
0.0
 10
18.1631
 20
7.0621
 10
18.5723
 20
7.0621
  0
LWPOLYLINE
  5
329
330
919
100
AcDbEntity
  8
25
100
AcDbPolyline
 90
        2
 70
     0
 43
0.0
 10
18.5723
 20
7.0431
 42
1.0
 10
18.5723
 20
7.0812
  0
LWPOLYLINE
  5
32D
330
919
100
AcDbEntity
  8
25
100
AcDbPolyline
 90
        2
 70
     0
 43
0.0
 10
18.1631
 20
7.0812
 42
1.0
 10
18.1631
 20
7.0431
  0
POINT
  5
331
330
919
100
AcDbEntity
  8
23
100
AcDbPoint
 10
3.81
 20
0.508
 30
0.0
  0
LWPOLYLINE
  5
332
330
919
100
AcDbEntity
  8
51
100
AcDbPolyline
 90
        2
 70
     0
 43
0.0
 10
3.81
 20
4.908
 10
12.81
 20
4.908
  0
LWPOLYLINE
  5
336
330
919
100
AcDbEntity
  8
51
100
AcDbPolyline
 90
        2
 70
     0
 43
0.0
 10
12.81
 20
4.8445
 42
1.0
 10
12.81
 20
4.9715
  0
LWPOLYLINE
  5
33A
330
919
100
AcDbEntity
  8
51
100
AcDbPolyline
 90
        2
 70
     0
 43
0.0
 10
3.81
 20
4.9715
 42
1.0
 10
3.81
 20
4.8445
  0
LWPOLYLINE
  5
33E
330
919
100
AcDbEntity
  8
51
100
AcDbPolyline
 90
        2
 70
     0
 43
0.0
 10
12.81
 20
4.908
 10
12.81
 20
0.508
  0
LWPOLYLINE
  5
342
330
919
100
AcDbEntity
  8
51
100
AcDbPolyline
 90
        2
 70
     0
 43
0.0
 10
12.7465
 20
0.508
 42
1.0
 10
12.8735
 20
0.508
  0
LWPOLYLINE
  5
346
330
919
100
AcDbEntity
  8
51
100
AcDbPolyline
 90
        2
 70
     0
 43
0.0
 10
12.8735
 20
4.908
 42
1.0
 10
12.7465
 20
4.908
  0
LWPOLYLINE
  5
34A
330
919
100
AcDbEntity
  8
51
100
AcDbPolyline
 90
        2
 70
     0
 43
0.0
 10
12.81
 20
0.508
 10
3.81
 20
0.508
  0
LWPOLYLINE
  5
34E
330
919
100
AcDbEntity
  8
51
100
AcDbPolyline
 90
        2
 70
     0
 43
0.0
 10
3.81
 20
0.5715
 42
1.0
 10
3.81
 20
0.4445
  0
LWPOLYLINE
  5
352
330
919
100
AcDbEntity
  8
51
100
AcDbPolyline
 90
        2
 70
     0
 43
0.0
 10
12.81
 20
0.4445
 42
1.0
 10
12.81
 20
0.5715
  0
LWPOLYLINE
  5
356
330
919
100
AcDbEntity
  8
51
100
AcDbPolyline
 90
        2
 70
     0
 43
0.0
 10
3.81
 20
0.508
 10
3.81
 20
4.908
  0
LWPOLYLINE
  5
35A
330
919
100
AcDbEntity
  8
51
100
AcDbPolyline
 90
        2
 70
     0
 43
0.0
 10
3.8735
 20
4.908
 42
1.0
 10
3.7465
 20
4.908
  0
LWPOLYLINE
  5
35E
330
919
100
AcDbEntity
  8
51
100
AcDbPolyline
 90
        2
 70
     0
 43
0.0
 10
3.7465
 20
0.508
 42
1.0
 10
3.8735
 20
0.508
  0
LWPOLYLINE
  5
362
330
919
100
AcDbEntity
  8
21
100
AcDbPolyline
 90
        2
 70
     0
 43
0.0
 10
4.8043
 20
0.508
 10
11.7713
 20
0.508
  0
LWPOLYLINE
  5
366
330
919
100
AcDbEntity
  8
21
100
AcDbPolyline
 90
        2
 70
     0
 43
0.0
 10
11.7713
 20
0.4445
 42
1.0
 10
11.7713
 20
0.5715
  0
LWPOLYLINE
  5
36A
330
919
100
AcDbEntity
  8
21
100
AcDbPolyline
 90
        2
 70
     0
 43
0.0
 10
4.8043
 20
0.5715
 42
1.0
 10
4.8043
 20
0.4445
  0
LWPOLYLINE
  5
36E
330
919
100
AcDbEntity
  8
21
100
AcDbPolyline
 90
        2
 70
     0
 43
0.0
 10
3.81
 20
4.908
 10
3.81
 20
2.708
  0
LWPOLYLINE
  5
372
330
919
100
AcDbEntity
  8
21
100
AcDbPolyline
 90
        2
 70
     0
 43
0.0
 10
3.7465
 20
2.708
 42
1.0
 10
3.8735
 20
2.708
  0
LWPOLYLINE
  5
376
330
919
100
AcDbEntity
  8
21
100
AcDbPolyline
 90
        2
 70
     0
 43
0.0
 10
3.8735
 20
4.908
 42
1.0
 10
3.7465
 20
4.908
  0
LWPOLYLINE
  5
37A
330
919
100
AcDbEntity
  8
21
100
AcDbPolyline
 90
        2
 70
     0
 43
0.0
 10
12.81
 20
4.908
 10
12.81
 20
2.708
  0
LWPOLYLINE
  5
37E
330
919
100
AcDbEntity
  8
21
100
AcDbPolyline
 90
        2
 70
     0
 43
0.0
 10
12.7465
 20
2.708
 42
1.0
 10
12.8735
 20
2.708
  0
LWPOLYLINE
  5
382
330
919
100
AcDbEntity
  8
21
100
AcDbPolyline
 90
        2
 70
     0
 43
0.0
 10
12.8735
 20
4.908
 42
1.0
 10
12.7465
 20
4.908
  0
LWPOLYLINE
  5
386
330
919
100
AcDbEntity
  8
21
100
AcDbPolyline
 90
        2
 70
     0
 43
0.0
 10
12.81
 20
4.908
 10
11.828
 20
4.908
  0
LWPOLYLINE
  5
38A
330
919
100
AcDbEntity
  8
21
100
AcDbPolyline
 90
        2
 70
     0
 43
0.0
 10
11.828
 20
4.9715
 42
1.0
 10
11.828
 20
4.8445
  0
LWPOLYLINE
  5
38E
330
919
100
AcDbEntity
  8
21
100
AcDbPolyline
 90
        2
 70
     0
 43
0.0
 10
12.81
 20
4.8445
 42
1.0
 10
12.81
 20
4.9715
  0
LWPOLYLINE
  5
392
330
919
100
AcDbEntity
  8
21
100
AcDbPolyline
 90
        2
 70
     0
 43
0.0
 10
3.81
 20
4.908
 10
4.79
 20
4.908
  0
LWPOLYLINE
  5
396
330
919
100
AcDbEntity
  8
21
100
AcDbPolyline
 90
        2
 70
     0
 43
0.0
 10
4.79
 20
4.8445
 42
1.0
 10
4.79
 20
4.9715
  0
LWPOLYLINE
  5
39A
330
919
100
AcDbEntity
  8
21
100
AcDbPolyline
 90
        2
 70
     0
 43
0.0
 10
3.81
 20
4.9715
 42
1.0
 10
3.81
 20
4.8445
  0
POINT
  5
39E
330
919
100
AcDbEntity
  8
23
100
AcDbPoint
 10
3.9054
 20
43.8041
 30
0.0
  0
LWPOLYLINE
  5
39F
330
919
100
AcDbEntity
  8
51
100
AcDbPolyline
 90
        2
 70
     0
 43
0.0
 10
4.3554
 20
44.2041
 10
3.4554
 20
44.2041
  0
LWPOLYLINE
  5
3A3
330
919
100
AcDbEntity
  8
51
100
AcDbPolyline
 90
        2
 70
     0
 43
0.0
 10
3.4554
 20
44.2295
 42
1.0
 10
3.4554
 20
44.1787
  0
LWPOLYLINE
  5
3A7
330
919
100
AcDbEntity
  8
51
100
AcDbPolyline
 90
        2
 70
     0
 43
0.0
 10
4.3554
 20
44.1787
 42
1.0
 10
4.3554
 20
44.2295
  0
LWPOLYLINE
  5
3AB
330
919
100
AcDbEntity
  8
51
100
AcDbPolyline
 90
        2
 70
     0
 43
0.0
 10
4.3554
 20
43.4041
 10
3.4554
 20
43.4041
  0
LWPOLYLINE
  5
3AF
330
919
100
AcDbEntity
  8
51
100
AcDbPolyline
 90
        2
 70
     0
 43
0.0
 10
3.4554
 20
43.4295
 42
1.0
 10
3.4554
 20
43.3787
  0
LWPOLYLINE
  5
3B3
330
919
100
AcDbEntity
  8
51
100
AcDbPolyline
 90
        2
 70
     0
 43
0.0
 10
4.3554
 20
43.3787
 42
1.0
 10
4.3554
 20
43.4295
  0
INSERT
  5
3B7
330
919
100
AcDbEntity
  8
51
100
AcDbBlockReference
  2
RECT
 10
4.5554
 20
43.8041
 30
0.0
 41
0.9
 42
0.4
 50
270.0
  0
INSERT
  5
3B8
330
919
100
AcDbEntity
  8
51
100
AcDbBlockReference
  2
RECT
 10
3.2554
 20
43.8041
 30
0.0
 41
0.9
 42
0.4
 50
270.0
  0
INSERT
  5
3B9
330
919
100
AcDbEntity
  8
21
100
AcDbBlockReference
  2
RECT
 10
4.0554
 20
44.1791
 30
0.0
 41
0.15
 42
0.3
 50
270.0
  0
INSERT
  5
3BA
330
919
100
AcDbEntity
  8
21
100
AcDbBlockReference
  2
RECT
 10
4.0554
 20
43.4291
 30
0.0
 41
0.15
 42
0.3
 50
270.0
  0
INSERT
  5
3BB
330
919
100
AcDbEntity
  8
21
100
AcDbBlockReference
  2
RECT
 10
4.0554
 20
43.8041
 30
0.0
 41
0.3
 42
0.3
 50
270.0
  0
LWPOLYLINE
  5
3BC
330
919
100
AcDbEntity
  8
25
100
AcDbPolyline
 90
        2
 70
     0
 43
0.0
 10
2.5134
 20
46.4798
 10
2.5134
 20
45.3114
  0
LWPOLYLINE
  5
3C0
330
919
100
AcDbEntity
  8
25
100
AcDbPolyline
 90
        2
 70
     0
 43
0.0
 10
2.488
 20
45.3114
 42
1.0
 10
2.5388
 20
45.3114
  0
LWPOLYLINE
  5
3C4
330
919
100
AcDbEntity
  8
25
100
AcDbPolyline
 90
        2
 70
     0
 43
0.0
 10
2.5388
 20
46.4798
 42
1.0
 10
2.488
 20
46.4798
  0
LWPOLYLINE
  5
3C8
330
919
100
AcDbEntity
  8
25
100
AcDbPolyline
 90
        2
 70
     0
 43
0.0
 10
2.5134
 20
45.3114
 10
3.0327
 20
45.3114
  0
LWPOLYLINE
  5
3CC
330
919
100
AcDbEntity
  8
25
100
AcDbPolyline
 90
        2
 70
     0
 43
0.0
 10
3.0327
 20
45.286
 42
1.0
 10
3.0327
 20
45.3368
  0
LWPOLYLINE
  5
3D0
330
919
100
AcDbEntity
  8
25
100
AcDbPolyline
 90
        2
 70
     0
 43
0.0
 10
2.5134
 20
45.3368
 42
1.0
 10
2.5134
 20
45.286
  0
LWPOLYLINE
  5
3D4
330
919
100
AcDbEntity
  8
25
100
AcDbPolyline
 90
        2
 70
     0
 43
0.0
 10
3.3987
 20
45.3114
 10
3.7882
 20
46.4798
  0
LWPOLYLINE
  5
3D8
330
919
100
AcDbEntity
  8
25
100
AcDbPolyline
 90
        2
 70
     0
 43
0.0
 10
3.8123
 20
46.4717
 42
1.0
 10
3.7641
 20
46.4878
  0
LWPOLYLINE
  5
3DC
330
919
100
AcDbEntity
  8
25
100
AcDbPolyline
 90
        2
 70
     0
 43
0.0
 10
3.3746
 20
45.3194
 42
1.0
 10
3.4228
 20
45.3033
  0
LWPOLYLINE
  5
3E0
330
919
100
AcDbEntity
  8
25
100
AcDbPolyline
 90
        2
 70
     0
 43
0.0
 10
3.7882
 20
46.4798
 10
4.1776
 20
45.3114
  0
LWPOLYLINE
  5
3E4
330
919
100
AcDbEntity
  8
25
100
AcDbPolyline
 90
        2
 70
     0
 43
0.0
 10
4.1535
 20
45.3033
 42
1.0
 10
4.2017
 20
45.3194
  0
LWPOLYLINE
  5
3E8
330
919
100
AcDbEntity
  8
25
100
AcDbPolyline
 90
        2
 70
     0
 43
0.0
 10
3.8123
 20
46.4878
 42
1.0
 10
3.7641
 20
46.4717
  0
LWPOLYLINE
  5
3EC
330
919
100
AcDbEntity
  8
25
100
AcDbPolyline
 90
        2
 70
     0
 43
0.0
 10
4.0803
 20
45.6035
 10
3.4961
 20
45.6035
  0
LWPOLYLINE
  5
3F0
330
919
100
AcDbEntity
  8
25
100
AcDbPolyline
 90
        2
 70
     0
 43
0.0
 10
3.4961
 20
45.6289
 42
1.0
 10
3.4961
 20
45.5781
  0
LWPOLYLINE
  5
3F4
330
919
100
AcDbEntity
  8
25
100
AcDbPolyline
 90
        2
 70
     0
 43
0.0
 10
4.0803
 20
45.5781
 42
1.0
 10
4.0803
 20
45.6289
  0
LWPOLYLINE
  5
3F8
330
919
100
AcDbEntity
  8
25
100
AcDbPolyline
 90
        2
 70
     0
 43
0.0
 10
4.6447
 20
45.3114
 10
4.6447
 20
46.4798
  0
LWPOLYLINE
  5
3FC
330
919
100
AcDbEntity
  8
25
100
AcDbPolyline
 90
        2
 70
     0
 43
0.0
 10
4.6701
 20
46.4798
 42
1.0
 10
4.6193
 20
46.4798
  0
LWPOLYLINE
  5
400
330
919
100
AcDbEntity
  8
25
100
AcDbPolyline
 90
        2
 70
     0
 43
0.0
 10
4.6193
 20
45.3114
 42
1.0
 10
4.6701
 20
45.3114
  0
LWPOLYLINE
  5
404
330
919
100
AcDbEntity
  8
25
100
AcDbPolyline
 90
        2
 70
     0
 43
0.0
 10
4.6447
 20
46.4798
 10
5.2938
 20
45.3114
  0
LWPOLYLINE
  5
408
330
919
100
AcDbEntity
  8
25
100
AcDbPolyline
 90
        2
 70
     0
 43
0.0
 10
5.2716
 20
45.299
 42
1.0
 10
5.316
 20
45.3237
  0
LWPOLYLINE
  5
40C
330
919
100
AcDbEntity
  8
25
100
AcDbPolyline
 90
        2
 70
     0
 43
0.0
 10
4.6669
 20
46.4921
 42
1.0
 10
4.6225
 20
46.4674
  0
LWPOLYLINE
  5
410
330
919
100
AcDbEntity
  8
25
100
AcDbPolyline
 90
        2
 70
     0
 43
0.0
 10
5.2938
 20
45.3114
 10
5.2938
 20
46.4798
  0
LWPOLYLINE
  5
414
330
919
100
AcDbEntity
  8
25
100
AcDbPolyline
 90
        2
 70
     0
 43
0.0
 10
5.3192
 20
46.4798
 42
1.0
 10
5.2684
 20
46.4798
  0
LWPOLYLINE
  5
418
330
919
100
AcDbEntity
  8
25
100
AcDbPolyline
 90
        2
 70
     0
 43
0.0
 10
5.2684
 20
45.3114
 42
1.0
 10
5.3192
 20
45.3114
  0
POINT
  5
41C
330
919
100
AcDbEntity
  8
23
100
AcDbPoint
 10
24.2569
 20
23.8816
 30
0.0
  0
LWPOLYLINE
  5
41D
330
919
100
AcDbEntity
  8
51
100
AcDbPolyline
 90
        2
 70
     0
 43
0.0
 10
23.8249
 20
23.5256
 10
24.6889
 20
23.5256
  0
LWPOLYLINE
  5
421
330
919
100
AcDbEntity
  8
51
100
AcDbPolyline
 90
        2
 70
     0
 43
0.0
 10
24.6889
 20
23.4875
 42
1.0
 10
24.6889
 20
23.5637
  0
LWPOLYLINE
  5
425
330
919
100
AcDbEntity
  8
51
100
AcDbPolyline
 90
        2
 70
     0
 43
0.0
 10
23.8249
 20
23.5637
 42
1.0
 10
23.8249
 20
23.4875
  0
LWPOLYLINE
  5
429
330
919
100
AcDbEntity
  8
51
100
AcDbPolyline
 90
        2
 70
     0
 43
0.0
 10
24.6889
 20
24.2376
 10
23.8249
 20
24.2376
  0
LWPOLYLINE
  5
42D
330
919
100
AcDbEntity
  8
51
100
AcDbPolyline
 90
        2
 70
     0
 43
0.0
 10
23.8249
 20
24.2757
 42
1.0
 10
23.8249
 20
24.1995
  0
LWPOLYLINE
  5
431
330
919
100
AcDbEntity
  8
51
100
AcDbPolyline
 90
        2
 70
     0
 43
0.0
 10
24.6889
 20
24.1995
 42
1.0
 10
24.6889
 20
24.2757
  0
INSERT
  5
465
330
919
100
AcDbEntity
  8
51
100
AcDbBlockReference
  2
RECT
 10
24.8919
 20
23.8816
 30
0.0
 41
0.4064
 42
0.8636
  0
INSERT
  5
466
330
919
100
AcDbEntity
  8
51
100
AcDbBlockReference
  2
RECT
 10
23.6219
 20
23.8816
 30
0.0
 41
0.4064
 42
0.8636
  0
POINT
  5
467
330
919
100
AcDbEntity
  8
23
100
AcDbPoint
 10
24.1227
 20
8.6574
 30
0.0
  0
LWPOLYLINE
  5
468
330
919
100
AcDbEntity
  8
51
100
AcDbPolyline
 90
        2
 70
     0
 43
0.0
 10
23.6907
 20
8.3014
 10
24.5547
 20
8.3014
  0
LWPOLYLINE
  5
46C
330
919
100
AcDbEntity
  8
51
100
AcDbPolyline
 90
        2
 70
     0
 43
0.0
 10
24.5547
 20
8.2633
 42
1.0
 10
24.5547
 20
8.3395
  0
LWPOLYLINE
  5
470
330
919
100
AcDbEntity
  8
51
100
AcDbPolyline
 90
        2
 70
     0
 43
0.0
 10
23.6907
 20
8.3395
 42
1.0
 10
23.6907
 20
8.2633
  0
LWPOLYLINE
  5
474
330
919
100
AcDbEntity
  8
51
100
AcDbPolyline
 90
        2
 70
     0
 43
0.0
 10
24.5547
 20
9.0134
 10
23.6907
 20
9.0134
  0
LWPOLYLINE
  5
478
330
919
100
AcDbEntity
  8
51
100
AcDbPolyline
 90
        2
 70
     0
 43
0.0
 10
23.6907
 20
9.0515
 42
1.0
 10
23.6907
 20
8.9753
  0
LWPOLYLINE
  5
47C
330
919
100
AcDbEntity
  8
51
100
AcDbPolyline
 90
        2
 70
     0
 43
0.0
 10
24.5547
 20
8.9753
 42
1.0
 10
24.5547
 20
9.0515
  0
LWPOLYLINE
  5
49C
330
919
100
AcDbEntity
  8
39
100
AcDbPolyline
 90
        2
 70
     0
 43
0.0
 10
22.6497
 20
7.6871
 42
1.0
 10
22.6497
 20
7.6617
  0
LWPOLYLINE
  5
4AC
330
919
100
AcDbEntity
  8
39
100
AcDbPolyline
 90
        2
 70
     0
 43
0.0
 10
22.637
 20
7.6744
 42
1.0
 10
22.6624
 20
7.6744
  0
INSERT
  5
4B0
330
919
100
AcDbEntity
  8
51
100
AcDbBlockReference
  2
RECT
 10
24.7577
 20
8.6574
 30
0.0
 41
0.4064
 42
0.8636
  0
INSERT
  5
4B1
330
919
100
AcDbEntity
  8
51
100
AcDbBlockReference
  2
RECT
 10
23.4877
 20
8.6574
 30
0.0
 41
0.4064
 42
0.8636
  0
POINT
  5
4B2
330
919
100
AcDbEntity
  8
23
100
AcDbPoint
 10
8.89
 20
17.78
 30
0.0
  0
LWPOLYLINE
  5
4B3
330
919
100
AcDbEntity
  8
51
100
AcDbPolyline
 90
        2
 70
     0
 43
0.0
 10
5.79
 20
24.63
 10
11.99
 20
24.63
  0
LWPOLYLINE
  5
4B7
330
919
100
AcDbEntity
  8
51
100
AcDbPolyline
 90
        2
 70
     0
 43
0.0
 10
11.99
 20
24.5983
 42
1.0
 10
11.99
 20
24.6618
  0
LWPOLYLINE
  5
4BB
330
919
100
AcDbEntity
  8
51
100
AcDbPolyline
 90
        2
 70
     0
 43
0.0
 10
5.79
 20
24.6618
 42
1.0
 10
5.79
 20
24.5983
  0
LWPOLYLINE
  5
4BF
330
919
100
AcDbEntity
  8
51
100
AcDbPolyline
 90
        2
 70
     0
 43
0.0
 10
11.99
 20
24.63
 10
11.99
 20
10.93
  0
LWPOLYLINE
  5
4C3
330
919
100
AcDbEntity
  8
51
100
AcDbPolyline
 90
        2
 70
     0
 43
0.0
 10
11.9582
 20
10.93
 42
1.0
 10
12.0218
 20
10.93
  0
LWPOLYLINE
  5
4C7
330
919
100
AcDbEntity
  8
51
100
AcDbPolyline
 90
        2
 70
     0
 43
0.0
 10
12.0218
 20
24.63
 42
1.0
 10
11.9582
 20
24.63
  0
LWPOLYLINE
  5
4CB
330
919
100
AcDbEntity
  8
51
100
AcDbPolyline
 90
        2
 70
     0
 43
0.0
 10
11.99
 20
10.93
 10
5.79
 20
10.93
  0
LWPOLYLINE
  5
4CF
330
919
100
AcDbEntity
  8
51
100
AcDbPolyline
 90
        2
 70
     0
 43
0.0
 10
5.79
 20
10.9618
 42
1.0
 10
5.79
 20
10.8982
  0
LWPOLYLINE
  5
4D3
330
919
100
AcDbEntity
  8
51
100
AcDbPolyline
 90
        2
 70
     0
 43
0.0
 10
11.99
 20
10.8982
 42
1.0
 10
11.99
 20
10.9618
  0
LWPOLYLINE
  5
4D7
330
919
100
AcDbEntity
  8
51
100
AcDbPolyline
 90
        2
 70
     0
 43
0.0
 10
5.79
 20
10.93
 10
5.79
 20
24.63
  0
LWPOLYLINE
  5
4DB
330
919
100
AcDbEntity
  8
51
100
AcDbPolyline
 90
        2
 70
     0
 43
0.0
 10
5.8217
 20
24.63
 42
1.0
 10
5.7583
 20
24.63
  0
LWPOLYLINE
  5
4DF
330
919
100
AcDbEntity
  8
51
100
AcDbPolyline
 90
        2
 70
     0
 43
0.0
 10
5.7583
 20
10.93
 42
1.0
 10
5.8217
 20
10.93
  0
LWPOLYLINE
  5
4E3
330
919
100
AcDbEntity
  8
21
100
AcDbPolyline
 90
        2
 70
     0
 43
0.0
 10
5.79
 20
24.63
 10
11.99
 20
24.63
  0
LWPOLYLINE
  5
4E7
330
919
100
AcDbEntity
  8
21
100
AcDbPolyline
 90
        2
 70
     0
 43
0.0
 10
11.99
 20
24.5983
 42
1.0
 10
11.99
 20
24.6618
  0
LWPOLYLINE
  5
4EB
330
919
100
AcDbEntity
  8
21
100
AcDbPolyline
 90
        2
 70
     0
 43
0.0
 10
5.79
 20
24.6618
 42
1.0
 10
5.79
 20
24.5983
  0
LWPOLYLINE
  5
4EF
330
919
100
AcDbEntity
  8
21
100
AcDbPolyline
 90
        2
 70
     0
 43
0.0
 10
11.99
 20
24.63
 10
11.99
 20
10.93
  0
LWPOLYLINE
  5
4F3
330
919
100
AcDbEntity
  8
21
100
AcDbPolyline
 90
        2
 70
     0
 43
0.0
 10
11.9582
 20
10.93
 42
1.0
 10
12.0218
 20
10.93
  0
LWPOLYLINE
  5
4F7
330
919
100
AcDbEntity
  8
21
100
AcDbPolyline
 90
        2
 70
     0
 43
0.0
 10
12.0218
 20
24.63
 42
1.0
 10
11.9582
 20
24.63
  0
LWPOLYLINE
  5
4FB
330
919
100
AcDbEntity
  8
21
100
AcDbPolyline
 90
        2
 70
     0
 43
0.0
 10
11.99
 20
10.93
 10
5.79
 20
10.93
  0
LWPOLYLINE
  5
4FF
330
919
100
AcDbEntity
  8
21
100
AcDbPolyline
 90
        2
 70
     0
 43
0.0
 10
5.79
 20
10.9618
 42
1.0
 10
5.79
 20
10.8982
  0
LWPOLYLINE
  5
503
330
919
100
AcDbEntity
  8
21
100
AcDbPolyline
 90
        2
 70
     0
 43
0.0
 10
11.99
 20
10.8982
 42
1.0
 10
11.99
 20
10.9618
  0
LWPOLYLINE
  5
507
330
919
100
AcDbEntity
  8
21
100
AcDbPolyline
 90
        2
 70
     0
 43
0.0
 10
5.79
 20
10.93
 10
5.79
 20
24.63
  0
LWPOLYLINE
  5
50B
330
919
100
AcDbEntity
  8
21
100
AcDbPolyline
 90
        2
 70
     0
 43
0.0
 10
5.8217
 20
24.63
 42
1.0
 10
5.7583
 20
24.63
  0
LWPOLYLINE
  5
50F
330
919
100
AcDbEntity
  8
21
100
AcDbPolyline
 90
        2
 70
     0
 43
0.0
 10
5.7583
 20
10.93
 42
1.0
 10
5.8217
 20
10.93
  0
LWPOLYLINE
  5
513
330
919
100
AcDbEntity
  8
39
100
AcDbPolyline
 90
        2
 70
     0
 43
0.0
 10
5.1
 20
24.9
 10
5.1
 20
10.7
  0
LWPOLYLINE
  5
517
330
919
100
AcDbEntity
  8
39
100
AcDbPolyline
 90
        2
 70
     0
 43
0.0
 10
3.4275
 20
10.68
 42
1.0
 10
3.4525
 20
10.68
  0
LWPOLYLINE
  5
51F
330
919
100
AcDbEntity
  8
39
100
AcDbPolyline
 90
        2
 70
     0
 43
0.0
 10
5.1
 20
10.7
 10
12.5
 20
10.7
  0
LWPOLYLINE
  5
523
330
919
100
AcDbEntity
  8
39
100
AcDbPolyline
 90
        2
 70
     0
 43
0.0
 10
14.34
 20
10.6675
 42
1.0
 10
14.34
 20
10.6925
  0
LWPOLYLINE
  5
527
330
919
100
AcDbEntity
  8
39
100
AcDbPolyline
 90
        2
 70
     0
 43
0.0
 10
3.44
 20
10.6925
 42
1.0
 10
3.44
 20
10.6675
  0
LWPOLYLINE
  5
52B
330
919
100
AcDbEntity
  8
39
100
AcDbPolyline
 90
        2
 70
     0
 43
0.0
 10
12.5
 20
10.7
 10
12.5
 20
24.9
  0
LWPOLYLINE
  5
52F
330
919
100
AcDbEntity
  8
39
100
AcDbPolyline
 90
        2
 70
     0
 43
0.0
 10
14.3525
 20
24.88
 42
1.0
 10
14.3275
 20
24.88
  0
LWPOLYLINE
  5
533
330
919
100
AcDbEntity
  8
39
100
AcDbPolyline
 90
        2
 70
     0
 43
0.0
 10
14.3275
 20
10.68
 42
1.0
 10
14.3525
 20
10.68
  0
LWPOLYLINE
  5
537
330
919
100
AcDbEntity
  8
39
100
AcDbPolyline
 90
        2
 70
     0
 43
0.0
 10
12.5
 20
24.9
 10
5.1
 20
24.9
  0
LWPOLYLINE
  5
53F
330
919
100
AcDbEntity
  8
39
100
AcDbPolyline
 90
        2
 70
     0
 43
0.0
 10
14.34
 20
24.8675
 42
1.0
 10
14.34
 20
24.8925
  0
POINT
  5
54D
330
919
100
AcDbEntity
  8
23
100
AcDbPoint
 10
6.3801
 20
34.3859
 30
0.0
  0
LWPOLYLINE
  5
54E
330
919
100
AcDbEntity
  8
51
100
AcDbPolyline
 90
        2
 70
     0
 43
0.0
 10
5.8801
 20
32.8859
 10
5.8801
 20
35.8859
  0
LWPOLYLINE
  5
552
330
919
100
AcDbEntity
  8
51
100
AcDbPolyline
 90
        2
 70
     0
 43
0.0
 10
5.8928
 20
35.8859
 42
1.0
 10
5.8674
 20
35.8859
  0
LWPOLYLINE
  5
556
330
919
100
AcDbEntity
  8
51
100
AcDbPolyline
 90
        2
 70
     0
 43
0.0
 10
5.8674
 20
32.8859
 42
1.0
 10
5.8928
 20
32.8859
  0
LWPOLYLINE
  5
55A
330
919
100
AcDbEntity
  8
51
100
AcDbPolyline
 90
        2
 70
     0
 43
0.0
 10
5.8801
 20
35.8859
 10
6.8801
 20
35.8859
  0
LWPOLYLINE
  5
55E
330
919
100
AcDbEntity
  8
51
100
AcDbPolyline
 90
        2
 70
     0
 43
0.0
 10
6.8801
 20
35.8732
 42
1.0
 10
6.8801
 20
35.8986
  0
LWPOLYLINE
  5
562
330
919
100
AcDbEntity
  8
51
100
AcDbPolyline
 90
        2
 70
     0
 43
0.0
 10
5.8801
 20
35.8986
 42
1.0
 10
5.8801
 20
35.8732
  0
LWPOLYLINE
  5
566
330
919
100
AcDbEntity
  8
51
100
AcDbPolyline
 90
        2
 70
     0
 43
0.0
 10
6.8801
 20
35.8859
 10
6.8801
 20
35.3859
  0
LWPOLYLINE
  5
56A
330
919
100
AcDbEntity
  8
51
100
AcDbPolyline
 90
        2
 70
     0
 43
0.0
 10
6.8674
 20
35.3859
 42
1.0
 10
6.8928
 20
35.3859
  0
LWPOLYLINE
  5
56E
330
919
100
AcDbEntity
  8
51
100
AcDbPolyline
 90
        2
 70
     0
 43
0.0
 10
6.8928
 20
35.8859
 42
1.0
 10
6.8674
 20
35.8859
  0
LWPOLYLINE
  5
572
330
919
100
AcDbEntity
  8
51
100
AcDbPolyline
 90
        2
 70
     0
 43
0.0
 10
6.8801
 20
35.3859
 10
6.8801
 20
33.3859
  0
LWPOLYLINE
  5
576
330
919
100
AcDbEntity
  8
51
100
AcDbPolyline
 90
        2
 70
     0
 43
0.0
 10
6.8674
 20
33.3859
 42
1.0
 10
6.8928
 20
33.3859
  0
LWPOLYLINE
  5
57A
330
919
100
AcDbEntity
  8
51
100
AcDbPolyline
 90
        2
 70
     0
 43
0.0
 10
6.8928
 20
35.3859
 42
1.0
 10
6.8674
 20
35.3859
  0
LWPOLYLINE
  5
57E
330
919
100
AcDbEntity
  8
51
100
AcDbPolyline
 90
        2
 70
     0
 43
0.0
 10
6.8801
 20
33.3859
 10
6.8801
 20
32.8859
  0
LWPOLYLINE
  5
582
330
919
100
AcDbEntity
  8
51
100
AcDbPolyline
 90
        2
 70
     0
 43
0.0
 10
6.8674
 20
32.8859
 42
1.0
 10
6.8928
 20
32.8859
  0
LWPOLYLINE
  5
586
330
919
100
AcDbEntity
  8
51
100
AcDbPolyline
 90
        2
 70
     0
 43
0.0
 10
6.8928
 20
33.3859
 42
1.0
 10
6.8674
 20
33.3859
  0
LWPOLYLINE
  5
58A
330
919
100
AcDbEntity
  8
51
100
AcDbPolyline
 90
        2
 70
     0
 43
0.0
 10
6.8801
 20
32.8859
 10
5.8801
 20
32.8859
  0
LWPOLYLINE
  5
58E
330
919
100
AcDbEntity
  8
51
100
AcDbPolyline
 90
        2
 70
     0
 43
0.0
 10
5.8801
 20
32.8986
 42
1.0
 10
5.8801
 20
32.8732
  0
LWPOLYLINE
  5
592
330
919
100
AcDbEntity
  8
51
100
AcDbPolyline
 90
        2
 70
     0
 43
0.0
 10
6.8801
 20
32.8732
 42
1.0
 10
6.8801
 20
32.8986
  0
LWPOLYLINE
  5
596
330
919
100
AcDbEntity
  8
51
100
AcDbPolyline
 90
        2
 70
     0
 43
0.0
 10
6.8801
 20
33.3859
 10
7.0301
 20
33.3859
  0
LWPOLYLINE
  5
59A
330
919
100
AcDbEntity
  8
51
100
AcDbPolyline
 90
        2
 70
     0
 43
0.0
 10
7.0301
 20
33.3732
 42
1.0
 10
7.0301
 20
33.3986
  0
LWPOLYLINE
  5
59E
330
919
100
AcDbEntity
  8
51
100
AcDbPolyline
 90
        2
 70
     0
 43
0.0
 10
6.8801
 20
33.3986
 42
1.0
 10
6.8801
 20
33.3732
  0
LWPOLYLINE
  5
5A2
330
919
100
AcDbEntity
  8
51
100
AcDbPolyline
 90
        2
 70
     0
 43
0.0
 10
7.8801
 20
33.8859
 10
7.8801
 20
34.8859
  0
LWPOLYLINE
  5
5A6
330
919
100
AcDbEntity
  8
51
100
AcDbPolyline
 90
        2
 70
     0
 43
0.0
 10
7.8928
 20
34.8859
 42
1.0
 10
7.8674
 20
34.8859
  0
LWPOLYLINE
  5
5AA
330
919
100
AcDbEntity
  8
51
100
AcDbPolyline
 90
        2
 70
     0
 43
0.0
 10
7.8674
 20
33.8859
 42
1.0
 10
7.8928
 20
33.8859
  0
LWPOLYLINE
  5
5AE
330
919
100
AcDbEntity
  8
51
100
AcDbPolyline
 90
        2
 70
     0
 43
0.0
 10
7.0301
 20
33.3859
 42
0.2973
 10
7.8801
 20
33.8859
  0
LWPOLYLINE
  5
5B2
330
919
100
AcDbEntity
  8
51
100
AcDbPolyline
 90
        2
 70
     0
 43
0.0
 10
7.0307
 20
33.3986
 42
1.0
 10
7.0295
 20
33.3732
  0
LWPOLYLINE
  5
5B6
330
919
100
AcDbEntity
  8
51
100
AcDbPolyline
 90
        2
 70
     0
 43
0.0
 10
7.8915
 20
33.8802
 42
1.0
 10
7.8687
 20
33.8915
  0
LWPOLYLINE
  5
5BA
330
919
100
AcDbEntity
  8
51
100
AcDbPolyline
 90
        2
 70
     0
 43
0.0
 10
7.8801
 20
34.8859
 42
0.2973
 10
7.0301
 20
35.3859
  0
LWPOLYLINE
  5
5BE
330
919
100
AcDbEntity
  8
51
100
AcDbPolyline
 90
        2
 70
     0
 43
0.0
 10
7.8687
 20
34.8802
 42
1.0
 10
7.8915
 20
34.8915
  0
LWPOLYLINE
  5
5C2
330
919
100
AcDbEntity
  8
51
100
AcDbPolyline
 90
        2
 70
     0
 43
0.0
 10
7.0295
 20
35.3986
 42
1.0
 10
7.0307
 20
35.3732
  0
LWPOLYLINE
  5
5C6
330
919
100
AcDbEntity
  8
51
100
AcDbPolyline
 90
        2
 70
     0
 43
0.0
 10
7.0301
 20
35.3859
 10
6.8801
 20
35.3859
  0
LWPOLYLINE
  5
5CA
330
919
100
AcDbEntity
  8
51
100
AcDbPolyline
 90
        2
 70
     0
 43
0.0
 10
6.8801
 20
35.3986
 42
1.0
 10
6.8801
 20
35.3732
  0
LWPOLYLINE
  5
5CE
330
919
100
AcDbEntity
  8
51
100
AcDbPolyline
 90
        2
 70
     0
 43
0.0
 10
7.0301
 20
35.3732
 42
1.0
 10
7.0301
 20
35.3986
  0
LWPOLYLINE
  5
5D2
330
919
100
AcDbEntity
  8
21
100
AcDbPolyline
 90
        2
 70
     0
 43
0.0
 10
7.1301
 20
33.6359
 10
7.1301
 20
35.1359
  0
LWPOLYLINE
  5
5D6
330
919
100
AcDbEntity
  8
21
100
AcDbPolyline
 90
        2
 70
     0
 43
0.0
 10
7.1809
 20
35.1359
 42
1.0
 10
7.0793
 20
35.1359
  0
LWPOLYLINE
  5
5DA
330
919
100
AcDbEntity
  8
21
100
AcDbPolyline
 90
        2
 70
     0
 43
0.0
 10
7.0793
 20
33.6359
 42
1.0
 10
7.1809
 20
33.6359
  0
INSERT
  5
5DE
330
919
100
AcDbEntity
  8
21
100
AcDbBlockReference
  2
RECT
 10
5.7551
 20
35.1109
 30
0.0
 41
0.25
 42
0.25
 50
90.0
  0
POINT
  5
5DF
330
919
100
AcDbEntity
  8
23
100
AcDbPoint
 10
14.5664
 20
40.8156
 30
0.0
  0
LWPOLYLINE
  5
5E0
330
919
100
AcDbEntity
  8
51
100
AcDbPolyline
 90
        2
 70
     0
 43
0.0
 10
13.0664
 20
41.3156
 10
16.0664
 20
41.3156
  0
LWPOLYLINE
  5
5E4
330
919
100
AcDbEntity
  8
51
100
AcDbPolyline
 90
        2
 70
     0
 43
0.0
 10
16.0664
 20
41.3029
 42
1.0
 10
16.0664
 20
41.3283
  0
LWPOLYLINE
  5
5E8
330
919
100
AcDbEntity
  8
51
100
AcDbPolyline
 90
        2
 70
     0
 43
0.0
 10
13.0664
 20
41.3283
 42
1.0
 10
13.0664
 20
41.3029
  0
LWPOLYLINE
  5
5EC
330
919
100
AcDbEntity
  8
51
100
AcDbPolyline
 90
        2
 70
     0
 43
0.0
 10
16.0664
 20
41.3156
 10
16.0664
 20
40.3156
  0
LWPOLYLINE
  5
5F0
330
919
100
AcDbEntity
  8
51
100
AcDbPolyline
 90
        2
 70
     0
 43
0.0
 10
16.0537
 20
40.3156
 42
1.0
 10
16.0791
 20
40.3156
  0
LWPOLYLINE
  5
5F4
330
919
100
AcDbEntity
  8
51
100
AcDbPolyline
 90
        2
 70
     0
 43
0.0
 10
16.0791
 20
41.3156
 42
1.0
 10
16.0537
 20
41.3156
  0
LWPOLYLINE
  5
5F8
330
919
100
AcDbEntity
  8
51
100
AcDbPolyline
 90
        2
 70
     0
 43
0.0
 10
16.0664
 20
40.3156
 10
15.5664
 20
40.3156
  0
LWPOLYLINE
  5
5FC
330
919
100
AcDbEntity
  8
51
100
AcDbPolyline
 90
        2
 70
     0
 43
0.0
 10
15.5664
 20
40.3283
 42
1.0
 10
15.5664
 20
40.3029
  0
LWPOLYLINE
  5
600
330
919
100
AcDbEntity
  8
51
100
AcDbPolyline
 90
        2
 70
     0
 43
0.0
 10
16.0664
 20
40.3029
 42
1.0
 10
16.0664
 20
40.3283
  0
LWPOLYLINE
  5
604
330
919
100
AcDbEntity
  8
51
100
AcDbPolyline
 90
        2
 70
     0
 43
0.0
 10
15.5664
 20
40.3156
 10
13.5664
 20
40.3156
  0
LWPOLYLINE
  5
608
330
919
100
AcDbEntity
  8
51
100
AcDbPolyline
 90
        2
 70
     0
 43
0.0
 10
13.5664
 20
40.3283
 42
1.0
 10
13.5664
 20
40.3029
  0
LWPOLYLINE
  5
60C
330
919
100
AcDbEntity
  8
51
100
AcDbPolyline
 90
        2
 70
     0
 43
0.0
 10
15.5664
 20
40.3029
 42
1.0
 10
15.5664
 20
40.3283
  0
LWPOLYLINE
  5
610
330
919
100
AcDbEntity
  8
51
100
AcDbPolyline
 90
        2
 70
     0
 43
0.0
 10
13.5664
 20
40.3156
 10
13.0664
 20
40.3156
  0
LWPOLYLINE
  5
614
330
919
100
AcDbEntity
  8
51
100
AcDbPolyline
 90
        2
 70
     0
 43
0.0
 10
13.0664
 20
40.3283
 42
1.0
 10
13.0664
 20
40.3029
  0
LWPOLYLINE
  5
618
330
919
100
AcDbEntity
  8
51
100
AcDbPolyline
 90
        2
 70
     0
 43
0.0
 10
13.5664
 20
40.3029
 42
1.0
 10
13.5664
 20
40.3283
  0
LWPOLYLINE
  5
61C
330
919
100
AcDbEntity
  8
51
100
AcDbPolyline
 90
        2
 70
     0
 43
0.0
 10
13.0664
 20
40.3156
 10
13.0664
 20
41.3156
  0
LWPOLYLINE
  5
620
330
919
100
AcDbEntity
  8
51
100
AcDbPolyline
 90
        2
 70
     0
 43
0.0
 10
13.0791
 20
41.3156
 42
1.0
 10
13.0537
 20
41.3156
  0
LWPOLYLINE
  5
624
330
919
100
AcDbEntity
  8
51
100
AcDbPolyline
 90
        2
 70
     0
 43
0.0
 10
13.0537
 20
40.3156
 42
1.0
 10
13.0791
 20
40.3156
  0
LWPOLYLINE
  5
628
330
919
100
AcDbEntity
  8
51
100
AcDbPolyline
 90
        2
 70
     0
 43
0.0
 10
13.5664
 20
40.3156
 10
13.5664
 20
40.1656
  0
LWPOLYLINE
  5
62C
330
919
100
AcDbEntity
  8
51
100
AcDbPolyline
 90
        2
 70
     0
 43
0.0
 10
13.5537
 20
40.1656
 42
1.0
 10
13.5791
 20
40.1656
  0
LWPOLYLINE
  5
630
330
919
100
AcDbEntity
  8
51
100
AcDbPolyline
 90
        2
 70
     0
 43
0.0
 10
13.5791
 20
40.3156
 42
1.0
 10
13.5537
 20
40.3156
  0
LWPOLYLINE
  5
634
330
919
100
AcDbEntity
  8
51
100
AcDbPolyline
 90
        2
 70
     0
 43
0.0
 10
14.0664
 20
39.3156
 10
15.0664
 20
39.3156
  0
LWPOLYLINE
  5
638
330
919
100
AcDbEntity
  8
51
100
AcDbPolyline
 90
        2
 70
     0
 43
0.0
 10
15.0664
 20
39.3029
 42
1.0
 10
15.0664
 20
39.3283
  0
LWPOLYLINE
  5
63C
330
919
100
AcDbEntity
  8
51
100
AcDbPolyline
 90
        2
 70
     0
 43
0.0
 10
14.0664
 20
39.3283
 42
1.0
 10
14.0664
 20
39.3029
  0
LWPOLYLINE
  5
640
330
919
100
AcDbEntity
  8
51
100
AcDbPolyline
 90
        2
 70
     0
 43
0.0
 10
13.5664
 20
40.1656
 42
0.2973
 10
14.0664
 20
39.3156
  0
LWPOLYLINE
  5
644
330
919
100
AcDbEntity
  8
51
100
AcDbPolyline
 90
        2
 70
     0
 43
0.0
 10
13.5791
 20
40.165
 42
1.0
 10
13.5537
 20
40.1662
  0
LWPOLYLINE
  5
648
330
919
100
AcDbEntity
  8
51
100
AcDbPolyline
 90
        2
 70
     0
 43
0.0
 10
14.0607
 20
39.3043
 42
1.0
 10
14.072
 20
39.327
  0
LWPOLYLINE
  5
64C
330
919
100
AcDbEntity
  8
51
100
AcDbPolyline
 90
        2
 70
     0
 43
0.0
 10
15.0664
 20
39.3156
 42
0.2973
 10
15.5664
 20
40.1656
  0
LWPOLYLINE
  5
650
330
919
100
AcDbEntity
  8
51
100
AcDbPolyline
 90
        2
 70
     0
 43
0.0
 10
15.0607
 20
39.327
 42
1.0
 10
15.072
 20
39.3043
  0
LWPOLYLINE
  5
654
330
919
100
AcDbEntity
  8
51
100
AcDbPolyline
 90
        2
 70
     0
 43
0.0
 10
15.5791
 20
40.1662
 42
1.0
 10
15.5537
 20
40.165
  0
LWPOLYLINE
  5
658
330
919
100
AcDbEntity
  8
51
100
AcDbPolyline
 90
        2
 70
     0
 43
0.0
 10
15.5664
 20
40.1656
 10
15.5664
 20
40.3156
  0
LWPOLYLINE
  5
65C
330
919
100
AcDbEntity
  8
51
100
AcDbPolyline
 90
        2
 70
     0
 43
0.0
 10
15.5791
 20
40.3156
 42
1.0
 10
15.5537
 20
40.3156
  0
LWPOLYLINE
  5
660
330
919
100
AcDbEntity
  8
51
100
AcDbPolyline
 90
        2
 70
     0
 43
0.0
 10
15.5537
 20
40.1656
 42
1.0
 10
15.5791
 20
40.1656
  0
LWPOLYLINE
  5
664
330
919
100
AcDbEntity
  8
21
100
AcDbPolyline
 90
        2
 70
     0
 43
0.0
 10
13.8164
 20
40.0656
 10
15.3164
 20
40.0656
  0
LWPOLYLINE
  5
668
330
919
100
AcDbEntity
  8
21
100
AcDbPolyline
 90
        2
 70
     0
 43
0.0
 10
15.3164
 20
40.0148
 42
1.0
 10
15.3164
 20
40.1164
  0
LWPOLYLINE
  5
66C
330
919
100
AcDbEntity
  8
21
100
AcDbPolyline
 90
        2
 70
     0
 43
0.0
 10
13.8164
 20
40.1164
 42
1.0
 10
13.8164
 20
40.0148
  0
INSERT
  5
670
330
919
100
AcDbEntity
  8
21
100
AcDbBlockReference
  2
RECT
 10
15.2914
 20
41.4406
 30
0.0
 41
0.25
 42
0.25
  0
POINT
  5
671
330
919
100
AcDbEntity
  8
23
100
AcDbPoint
 10
22.6548
 20
34.3924
 30
0.0
  0
LWPOLYLINE
  5
672
330
919
100
AcDbEntity
  8
51
100
AcDbPolyline
 90
        2
 70
     0
 43
0.0
 10
23.1548
 20
35.8924
 10
23.1548
 20
32.8924
  0
LWPOLYLINE
  5
676
330
919
100
AcDbEntity
  8
51
100
AcDbPolyline
 90
        2
 70
     0
 43
0.0
 10
23.1421
 20
32.8924
 42
1.0
 10
23.1675
 20
32.8924
  0
LWPOLYLINE
  5
67A
330
919
100
AcDbEntity
  8
51
100
AcDbPolyline
 90
        2
 70
     0
 43
0.0
 10
23.1675
 20
35.8924
 42
1.0
 10
23.1421
 20
35.8924
  0
LWPOLYLINE
  5
67E
330
919
100
AcDbEntity
  8
51
100
AcDbPolyline
 90
        2
 70
     0
 43
0.0
 10
23.1548
 20
32.8924
 10
22.1548
 20
32.8924
  0
LWPOLYLINE
  5
682
330
919
100
AcDbEntity
  8
51
100
AcDbPolyline
 90
        2
 70
     0
 43
0.0
 10
22.1548
 20
32.9051
 42
1.0
 10
22.1548
 20
32.8797
  0
LWPOLYLINE
  5
686
330
919
100
AcDbEntity
  8
51
100
AcDbPolyline
 90
        2
 70
     0
 43
0.0
 10
23.1548
 20
32.8797
 42
1.0
 10
23.1548
 20
32.9051
  0
LWPOLYLINE
  5
68A
330
919
100
AcDbEntity
  8
51
100
AcDbPolyline
 90
        2
 70
     0
 43
0.0
 10
22.1548
 20
32.8924
 10
22.1548
 20
33.3924
  0
LWPOLYLINE
  5
68E
330
919
100
AcDbEntity
  8
51
100
AcDbPolyline
 90
        2
 70
     0
 43
0.0
 10
22.1675
 20
33.3924
 42
1.0
 10
22.1421
 20
33.3924
  0
LWPOLYLINE
  5
692
330
919
100
AcDbEntity
  8
51
100
AcDbPolyline
 90
        2
 70
     0
 43
0.0
 10
22.1421
 20
32.8924
 42
1.0
 10
22.1675
 20
32.8924
  0
LWPOLYLINE
  5
696
330
919
100
AcDbEntity
  8
51
100
AcDbPolyline
 90
        2
 70
     0
 43
0.0
 10
22.1548
 20
33.3924
 10
22.1548
 20
35.3924
  0
LWPOLYLINE
  5
69A
330
919
100
AcDbEntity
  8
51
100
AcDbPolyline
 90
        2
 70
     0
 43
0.0
 10
22.1675
 20
35.3924
 42
1.0
 10
22.1421
 20
35.3924
  0
LWPOLYLINE
  5
69E
330
919
100
AcDbEntity
  8
51
100
AcDbPolyline
 90
        2
 70
     0
 43
0.0
 10
22.1421
 20
33.3924
 42
1.0
 10
22.1675
 20
33.3924
  0
LWPOLYLINE
  5
6A2
330
919
100
AcDbEntity
  8
51
100
AcDbPolyline
 90
        2
 70
     0
 43
0.0
 10
22.1548
 20
35.3924
 10
22.1548
 20
35.8924
  0
LWPOLYLINE
  5
6A6
330
919
100
AcDbEntity
  8
51
100
AcDbPolyline
 90
        2
 70
     0
 43
0.0
 10
22.1675
 20
35.8924
 42
1.0
 10
22.1421
 20
35.8924
  0
LWPOLYLINE
  5
6AA
330
919
100
AcDbEntity
  8
51
100
AcDbPolyline
 90
        2
 70
     0
 43
0.0
 10
22.1421
 20
35.3924
 42
1.0
 10
22.1675
 20
35.3924
  0
LWPOLYLINE
  5
6AE
330
919
100
AcDbEntity
  8
51
100
AcDbPolyline
 90
        2
 70
     0
 43
0.0
 10
22.1548
 20
35.8924
 10
23.1548
 20
35.8924
  0
LWPOLYLINE
  5
6B2
330
919
100
AcDbEntity
  8
51
100
AcDbPolyline
 90
        2
 70
     0
 43
0.0
 10
23.1548
 20
35.8797
 42
1.0
 10
23.1548
 20
35.9051
  0
LWPOLYLINE
  5
6B6
330
919
100
AcDbEntity
  8
51
100
AcDbPolyline
 90
        2
 70
     0
 43
0.0
 10
22.1548
 20
35.9051
 42
1.0
 10
22.1548
 20
35.8797
  0
LWPOLYLINE
  5
6BA
330
919
100
AcDbEntity
  8
51
100
AcDbPolyline
 90
        2
 70
     0
 43
0.0
 10
22.1548
 20
35.3924
 10
22.0048
 20
35.3924
  0
LWPOLYLINE
  5
6BE
330
919
100
AcDbEntity
  8
51
100
AcDbPolyline
 90
        2
 70
     0
 43
0.0
 10
22.0048
 20
35.4051
 42
1.0
 10
22.0048
 20
35.3797
  0
LWPOLYLINE
  5
6C2
330
919
100
AcDbEntity
  8
51
100
AcDbPolyline
 90
        2
 70
     0
 43
0.0
 10
22.1548
 20
35.3797
 42
1.0
 10
22.1548
 20
35.4051
  0
LWPOLYLINE
  5
6C6
330
919
100
AcDbEntity
  8
51
100
AcDbPolyline
 90
        2
 70
     0
 43
0.0
 10
21.1548
 20
34.8924
 10
21.1548
 20
33.8924
  0
LWPOLYLINE
  5
6CA
330
919
100
AcDbEntity
  8
51
100
AcDbPolyline
 90
        2
 70
     0
 43
0.0
 10
21.1421
 20
33.8924
 42
1.0
 10
21.1675
 20
33.8924
  0
LWPOLYLINE
  5
6CE
330
919
100
AcDbEntity
  8
51
100
AcDbPolyline
 90
        2
 70
     0
 43
0.0
 10
21.1675
 20
34.8924
 42
1.0
 10
21.1421
 20
34.8924
  0
LWPOLYLINE
  5
6D2
330
919
100
AcDbEntity
  8
51
100
AcDbPolyline
 90
        2
 70
     0
 43
0.0
 10
22.0048
 20
35.3924
 42
0.2973
 10
21.1548
 20
34.8924
  0
LWPOLYLINE
  5
6D6
330
919
100
AcDbEntity
  8
51
100
AcDbPolyline
 90
        2
 70
     0
 43
0.0
 10
22.0042
 20
35.3797
 42
1.0
 10
22.0054
 20
35.4051
  0
LWPOLYLINE
  5
6DA
330
919
100
AcDbEntity
  8
51
100
AcDbPolyline
 90
        2
 70
     0
 43
0.0
 10
21.1434
 20
34.8981
 42
1.0
 10
21.1661
 20
34.8868
  0
LWPOLYLINE
  5
6DE
330
919
100
AcDbEntity
  8
51
100
AcDbPolyline
 90
        2
 70
     0
 43
0.0
 10
21.1548
 20
33.8924
 42
0.2973
 10
22.0048
 20
33.3924
  0
LWPOLYLINE
  5
6E2
330
919
100
AcDbEntity
  8
51
100
AcDbPolyline
 90
        2
 70
     0
 43
0.0
 10
21.1661
 20
33.8981
 42
1.0
 10
21.1434
 20
33.8868
  0
LWPOLYLINE
  5
6E6
330
919
100
AcDbEntity
  8
51
100
AcDbPolyline
 90
        2
 70
     0
 43
0.0
 10
22.0054
 20
33.3797
 42
1.0
 10
22.0042
 20
33.4051
  0
LWPOLYLINE
  5
6EA
330
919
100
AcDbEntity
  8
51
100
AcDbPolyline
 90
        2
 70
     0
 43
0.0
 10
22.0048
 20
33.3924
 10
22.1548
 20
33.3924
  0
LWPOLYLINE
  5
6EE
330
919
100
AcDbEntity
  8
51
100
AcDbPolyline
 90
        2
 70
     0
 43
0.0
 10
22.1548
 20
33.3797
 42
1.0
 10
22.1548
 20
33.4051
  0
LWPOLYLINE
  5
6F2
330
919
100
AcDbEntity
  8
51
100
AcDbPolyline
 90
        2
 70
     0
 43
0.0
 10
22.0048
 20
33.4051
 42
1.0
 10
22.0048
 20
33.3797
  0
LWPOLYLINE
  5
6F6
330
919
100
AcDbEntity
  8
21
100
AcDbPolyline
 90
        2
 70
     0
 43
0.0
 10
21.9048
 20
35.1424
 10
21.9048
 20
33.6424
  0
LWPOLYLINE
  5
6FA
330
919
100
AcDbEntity
  8
21
100
AcDbPolyline
 90
        2
 70
     0
 43
0.0
 10
21.854
 20
33.6424
 42
1.0
 10
21.9556
 20
33.6424
  0
LWPOLYLINE
  5
6FE
330
919
100
AcDbEntity
  8
21
100
AcDbPolyline
 90
        2
 70
     0
 43
0.0
 10
21.9556
 20
35.1424
 42
1.0
 10
21.854
 20
35.1424
  0
INSERT
  5
702
330
919
100
AcDbEntity
  8
21
100
AcDbBlockReference
  2
RECT
 10
23.2798
 20
33.6674
 30
0.0
 41
0.25
 42
0.25
 50
270.0
  0
POINT
  5
703
330
919
100
AcDbEntity
  8
23
100
AcDbPoint
 10
14.7523
 20
28.0497
 30
0.0
  0
LWPOLYLINE
  5
704
330
919
100
AcDbEntity
  8
51
100
AcDbPolyline
 90
        2
 70
     0
 43
0.0
 10
16.2523
 20
27.5497
 10
13.2523
 20
27.5497
  0
LWPOLYLINE
  5
708
330
919
100
AcDbEntity
  8
51
100
AcDbPolyline
 90
        2
 70
     0
 43
0.0
 10
13.2523
 20
27.5624
 42
1.0
 10
13.2523
 20
27.537
  0
LWPOLYLINE
  5
70C
330
919
100
AcDbEntity
  8
51
100
AcDbPolyline
 90
        2
 70
     0
 43
0.0
 10
16.2523
 20
27.537
 42
1.0
 10
16.2523
 20
27.5624
  0
LWPOLYLINE
  5
710
330
919
100
AcDbEntity
  8
51
100
AcDbPolyline
 90
        2
 70
     0
 43
0.0
 10
13.2523
 20
27.5497
 10
13.2523
 20
28.5497
  0
LWPOLYLINE
  5
714
330
919
100
AcDbEntity
  8
51
100
AcDbPolyline
 90
        2
 70
     0
 43
0.0
 10
13.2651
 20
28.5497
 42
1.0
 10
13.2396
 20
28.5497
  0
LWPOLYLINE
  5
718
330
919
100
AcDbEntity
  8
51
100
AcDbPolyline
 90
        2
 70
     0
 43
0.0
 10
13.2396
 20
27.5497
 42
1.0
 10
13.2651
 20
27.5497
  0
LWPOLYLINE
  5
71C
330
919
100
AcDbEntity
  8
51
100
AcDbPolyline
 90
        2
 70
     0
 43
0.0
 10
13.2523
 20
28.5497
 10
13.7523
 20
28.5497
  0
LWPOLYLINE
  5
720
330
919
100
AcDbEntity
  8
51
100
AcDbPolyline
 90
        2
 70
     0
 43
0.0
 10
13.7523
 20
28.537
 42
1.0
 10
13.7523
 20
28.5624
  0
LWPOLYLINE
  5
724
330
919
100
AcDbEntity
  8
51
100
AcDbPolyline
 90
        2
 70
     0
 43
0.0
 10
13.2523
 20
28.5624
 42
1.0
 10
13.2523
 20
28.537
  0
LWPOLYLINE
  5
728
330
919
100
AcDbEntity
  8
51
100
AcDbPolyline
 90
        2
 70
     0
 43
0.0
 10
13.7523
 20
28.5497
 10
15.7524
 20
28.5497
  0
LWPOLYLINE
  5
72C
330
919
100
AcDbEntity
  8
51
100
AcDbPolyline
 90
        2
 70
     0
 43
0.0
 10
15.7524
 20
28.537
 42
1.0
 10
15.7524
 20
28.5624
  0
LWPOLYLINE
  5
730
330
919
100
AcDbEntity
  8
51
100
AcDbPolyline
 90
        2
 70
     0
 43
0.0
 10
13.7523
 20
28.5624
 42
1.0
 10
13.7523
 20
28.537
  0
LWPOLYLINE
  5
734
330
919
100
AcDbEntity
  8
51
100
AcDbPolyline
 90
        2
 70
     0
 43
0.0
 10
15.7524
 20
28.5497
 10
16.2523
 20
28.5497
  0
LWPOLYLINE
  5
738
330
919
100
AcDbEntity
  8
51
100
AcDbPolyline
 90
        2
 70
     0
 43
0.0
 10
16.2523
 20
28.537
 42
1.0
 10
16.2523
 20
28.5624
  0
LWPOLYLINE
  5
73C
330
919
100
AcDbEntity
  8
51
100
AcDbPolyline
 90
        2
 70
     0
 43
0.0
 10
15.7524
 20
28.5624
 42
1.0
 10
15.7524
 20
28.537
  0
LWPOLYLINE
  5
740
330
919
100
AcDbEntity
  8
51
100
AcDbPolyline
 90
        2
 70
     0
 43
0.0
 10
16.2523
 20
28.5497
 10
16.2523
 20
27.5497
  0
LWPOLYLINE
  5
744
330
919
100
AcDbEntity
  8
51
100
AcDbPolyline
 90
        2
 70
     0
 43
0.0
 10
16.2397
 20
27.5497
 42
1.0
 10
16.265
 20
27.5497
  0
LWPOLYLINE
  5
748
330
919
100
AcDbEntity
  8
51
100
AcDbPolyline
 90
        2
 70
     0
 43
0.0
 10
16.265
 20
28.5497
 42
1.0
 10
16.2397
 20
28.5497
  0
LWPOLYLINE
  5
74C
330
919
100
AcDbEntity
  8
51
100
AcDbPolyline
 90
        2
 70
     0
 43
0.0
 10
15.7524
 20
28.5497
 10
15.7524
 20
28.6997
  0
LWPOLYLINE
  5
750
330
919
100
AcDbEntity
  8
51
100
AcDbPolyline
 90
        2
 70
     0
 43
0.0
 10
15.7651
 20
28.6997
 42
1.0
 10
15.7397
 20
28.6997
  0
LWPOLYLINE
  5
754
330
919
100
AcDbEntity
  8
51
100
AcDbPolyline
 90
        2
 70
     0
 43
0.0
 10
15.7397
 20
28.5497
 42
1.0
 10
15.7651
 20
28.5497
  0
LWPOLYLINE
  5
758
330
919
100
AcDbEntity
  8
51
100
AcDbPolyline
 90
        2
 70
     0
 43
0.0
 10
15.2523
 20
29.5497
 10
14.2523
 20
29.5497
  0
LWPOLYLINE
  5
75C
330
919
100
AcDbEntity
  8
51
100
AcDbPolyline
 90
        2
 70
     0
 43
0.0
 10
14.2523
 20
29.5624
 42
1.0
 10
14.2523
 20
29.537
  0
LWPOLYLINE
  5
760
330
919
100
AcDbEntity
  8
51
100
AcDbPolyline
 90
        2
 70
     0
 43
0.0
 10
15.2523
 20
29.537
 42
1.0
 10
15.2523
 20
29.5624
  0
LWPOLYLINE
  5
764
330
919
100
AcDbEntity
  8
51
100
AcDbPolyline
 90
        2
 70
     0
 43
0.0
 10
15.7524
 20
28.6997
 42
0.2973
 10
15.2523
 20
29.5497
  0
LWPOLYLINE
  5
768
330
919
100
AcDbEntity
  8
51
100
AcDbPolyline
 90
        2
 70
     0
 43
0.0
 10
15.7397
 20
28.7003
 42
1.0
 10
15.765
 20
28.6991
  0
LWPOLYLINE
  5
76C
330
919
100
AcDbEntity
  8
51
100
AcDbPolyline
 90
        2
 70
     0
 43
0.0
 10
15.258
 20
29.5611
 42
1.0
 10
15.2467
 20
29.5383
  0
LWPOLYLINE
  5
770
330
919
100
AcDbEntity
  8
51
100
AcDbPolyline
 90
        2
 70
     0
 43
0.0
 10
14.2523
 20
29.5497
 42
0.2973
 10
13.7523
 20
28.6997
  0
LWPOLYLINE
  5
774
330
919
100
AcDbEntity
  8
51
100
AcDbPolyline
 90
        2
 70
     0
 43
0.0
 10
14.258
 20
29.5383
 42
1.0
 10
14.2467
 20
29.5611
  0
LWPOLYLINE
  5
778
330
919
100
AcDbEntity
  8
51
100
AcDbPolyline
 90
        2
 70
     0
 43
0.0
 10
13.7397
 20
28.6991
 42
1.0
 10
13.765
 20
28.7003
  0
LWPOLYLINE
  5
77C
330
919
100
AcDbEntity
  8
51
100
AcDbPolyline
 90
        2
 70
     0
 43
0.0
 10
13.7523
 20
28.6997
 10
13.7523
 20
28.5497
  0
LWPOLYLINE
  5
780
330
919
100
AcDbEntity
  8
51
100
AcDbPolyline
 90
        2
 70
     0
 43
0.0
 10
13.7396
 20
28.5497
 42
1.0
 10
13.7651
 20
28.5497
  0
LWPOLYLINE
  5
784
330
919
100
AcDbEntity
  8
51
100
AcDbPolyline
 90
        2
 70
     0
 43
0.0
 10
13.7651
 20
28.6997
 42
1.0
 10
13.7396
 20
28.6997
  0
LWPOLYLINE
  5
788
330
919
100
AcDbEntity
  8
21
100
AcDbPolyline
 90
        2
 70
     0
 43
0.0
 10
15.5024
 20
28.7997
 10
14.0023
 20
28.7997
  0
LWPOLYLINE
  5
78C
330
919
100
AcDbEntity
  8
21
100
AcDbPolyline
 90
        2
 70
     0
 43
0.0
 10
14.0023
 20
28.8505
 42
1.0
 10
14.0023
 20
28.7489
  0
LWPOLYLINE
  5
790
330
919
100
AcDbEntity
  8
21
100
AcDbPolyline
 90
        2
 70
     0
 43
0.0
 10
15.5024
 20
28.7489
 42
1.0
 10
15.5024
 20
28.8505
  0
INSERT
  5
794
330
919
100
AcDbEntity
  8
21
100
AcDbBlockReference
  2
RECT
 10
14.0274
 20
27.4247
 30
0.0
 41
0.25
 42
0.25
 50
180.0
  0
POINT
  5
795
330
919
100
AcDbEntity
  8
23
100
AcDbPoint
 10
19.5434
 20
8.7959
 30
0.0
  0
LWPOLYLINE
  5
796
330
919
100
AcDbEntity
  8
51
100
AcDbPolyline
 90
        2
 70
     0
 43
0.0
 10
21.0434
 20
8.2959
 10
18.0434
 20
8.2959
  0
LWPOLYLINE
  5
79A
330
919
100
AcDbEntity
  8
51
100
AcDbPolyline
 90
        2
 70
     0
 43
0.0
 10
18.0434
 20
8.3086
 42
1.0
 10
18.0434
 20
8.2832
  0
LWPOLYLINE
  5
79E
330
919
100
AcDbEntity
  8
51
100
AcDbPolyline
 90
        2
 70
     0
 43
0.0
 10
21.0434
 20
8.2832
 42
1.0
 10
21.0434
 20
8.3086
  0
LWPOLYLINE
  5
7A2
330
919
100
AcDbEntity
  8
51
100
AcDbPolyline
 90
        2
 70
     0
 43
0.0
 10
18.0434
 20
8.2959
 10
18.0434
 20
9.2959
  0
LWPOLYLINE
  5
7A6
330
919
100
AcDbEntity
  8
51
100
AcDbPolyline
 90
        2
 70
     0
 43
0.0
 10
18.0561
 20
9.2959
 42
1.0
 10
18.0307
 20
9.2959
  0
LWPOLYLINE
  5
7AA
330
919
100
AcDbEntity
  8
51
100
AcDbPolyline
 90
        2
 70
     0
 43
0.0
 10
18.0307
 20
8.2959
 42
1.0
 10
18.0561
 20
8.2959
  0
LWPOLYLINE
  5
7AE
330
919
100
AcDbEntity
  8
51
100
AcDbPolyline
 90
        2
 70
     0
 43
0.0
 10
18.0434
 20
9.2959
 10
18.5434
 20
9.2959
  0
LWPOLYLINE
  5
7B2
330
919
100
AcDbEntity
  8
51
100
AcDbPolyline
 90
        2
 70
     0
 43
0.0
 10
18.5434
 20
9.2832
 42
1.0
 10
18.5434
 20
9.3086
  0
LWPOLYLINE
  5
7B6
330
919
100
AcDbEntity
  8
51
100
AcDbPolyline
 90
        2
 70
     0
 43
0.0
 10
18.0434
 20
9.3086
 42
1.0
 10
18.0434
 20
9.2832
  0
LWPOLYLINE
  5
7BA
330
919
100
AcDbEntity
  8
51
100
AcDbPolyline
 90
        2
 70
     0
 43
0.0
 10
18.5434
 20
9.2959
 10
20.5434
 20
9.2959
  0
LWPOLYLINE
  5
7BE
330
919
100
AcDbEntity
  8
51
100
AcDbPolyline
 90
        2
 70
     0
 43
0.0
 10
20.5434
 20
9.2832
 42
1.0
 10
20.5434
 20
9.3086
  0
LWPOLYLINE
  5
7C2
330
919
100
AcDbEntity
  8
51
100
AcDbPolyline
 90
        2
 70
     0
 43
0.0
 10
18.5434
 20
9.3086
 42
1.0
 10
18.5434
 20
9.2832
  0
LWPOLYLINE
  5
7C6
330
919
100
AcDbEntity
  8
51
100
AcDbPolyline
 90
        2
 70
     0
 43
0.0
 10
20.5434
 20
9.2959
 10
21.0434
 20
9.2959
  0
LWPOLYLINE
  5
7CA
330
919
100
AcDbEntity
  8
51
100
AcDbPolyline
 90
        2
 70
     0
 43
0.0
 10
21.0434
 20
9.2832
 42
1.0
 10
21.0434
 20
9.3086
  0
LWPOLYLINE
  5
7CE
330
919
100
AcDbEntity
  8
51
100
AcDbPolyline
 90
        2
 70
     0
 43
0.0
 10
20.5434
 20
9.3086
 42
1.0
 10
20.5434
 20
9.2832
  0
LWPOLYLINE
  5
7D2
330
919
100
AcDbEntity
  8
51
100
AcDbPolyline
 90
        2
 70
     0
 43
0.0
 10
21.0434
 20
9.2959
 10
21.0434
 20
8.2959
  0
LWPOLYLINE
  5
7D6
330
919
100
AcDbEntity
  8
51
100
AcDbPolyline
 90
        2
 70
     0
 43
0.0
 10
21.0307
 20
8.2959
 42
1.0
 10
21.0561
 20
8.2959
  0
LWPOLYLINE
  5
7DA
330
919
100
AcDbEntity
  8
51
100
AcDbPolyline
 90
        2
 70
     0
 43
0.0
 10
21.0561
 20
9.2959
 42
1.0
 10
21.0307
 20
9.2959
  0
LWPOLYLINE
  5
7DE
330
919
100
AcDbEntity
  8
51
100
AcDbPolyline
 90
        2
 70
     0
 43
0.0
 10
20.5434
 20
9.2959
 10
20.5434
 20
9.4459
  0
LWPOLYLINE
  5
7E2
330
919
100
AcDbEntity
  8
51
100
AcDbPolyline
 90
        2
 70
     0
 43
0.0
 10
20.5561
 20
9.4459
 42
1.0
 10
20.5307
 20
9.4459
  0
LWPOLYLINE
  5
7E6
330
919
100
AcDbEntity
  8
51
100
AcDbPolyline
 90
        2
 70
     0
 43
0.0
 10
20.5307
 20
9.2959
 42
1.0
 10
20.5561
 20
9.2959
  0
LWPOLYLINE
  5
7EA
330
919
100
AcDbEntity
  8
51
100
AcDbPolyline
 90
        2
 70
     0
 43
0.0
 10
20.0434
 20
10.2959
 10
19.0434
 20
10.2959
  0
LWPOLYLINE
  5
7EE
330
919
100
AcDbEntity
  8
51
100
AcDbPolyline
 90
        2
 70
     0
 43
0.0
 10
19.0434
 20
10.3086
 42
1.0
 10
19.0434
 20
10.2832
  0
LWPOLYLINE
  5
7F2
330
919
100
AcDbEntity
  8
51
100
AcDbPolyline
 90
        2
 70
     0
 43
0.0
 10
20.0434
 20
10.2832
 42
1.0
 10
20.0434
 20
10.3086
  0
LWPOLYLINE
  5
7F6
330
919
100
AcDbEntity
  8
51
100
AcDbPolyline
 90
        2
 70
     0
 43
0.0
 10
20.5434
 20
9.4459
 42
0.2973
 10
20.0434
 20
10.2959
  0
LWPOLYLINE
  5
7FA
330
919
100
AcDbEntity
  8
51
100
AcDbPolyline
 90
        2
 70
     0
 43
0.0
 10
20.5307
 20
9.4465
 42
1.0
 10
20.5561
 20
9.4454
  0
LWPOLYLINE
  5
7FE
330
919
100
AcDbEntity
  8
51
100
AcDbPolyline
 90
        2
 70
     0
 43
0.0
 10
20.0491
 20
10.3073
 42
1.0
 10
20.0378
 20
10.2846
  0
LWPOLYLINE
  5
802
330
919
100
AcDbEntity
  8
51
100
AcDbPolyline
 90
        2
 70
     0
 43
0.0
 10
19.0434
 20
10.2959
 42
0.2973
 10
18.5434
 20
9.4459
  0
LWPOLYLINE
  5
806
330
919
100
AcDbEntity
  8
51
100
AcDbPolyline
 90
        2
 70
     0
 43
0.0
 10
19.0491
 20
10.2846
 42
1.0
 10
19.0378
 20
10.3073
  0
LWPOLYLINE
  5
80A
330
919
100
AcDbEntity
  8
51
100
AcDbPolyline
 90
        2
 70
     0
 43
0.0
 10
18.5307
 20
9.4454
 42
1.0
 10
18.5561
 20
9.4465
  0
LWPOLYLINE
  5
80E
330
919
100
AcDbEntity
  8
51
100
AcDbPolyline
 90
        2
 70
     0
 43
0.0
 10
18.5434
 20
9.4459
 10
18.5434
 20
9.2959
  0
LWPOLYLINE
  5
812
330
919
100
AcDbEntity
  8
51
100
AcDbPolyline
 90
        2
 70
     0
 43
0.0
 10
18.5307
 20
9.2959
 42
1.0
 10
18.5561
 20
9.2959
  0
LWPOLYLINE
  5
816
330
919
100
AcDbEntity
  8
51
100
AcDbPolyline
 90
        2
 70
     0
 43
0.0
 10
18.5561
 20
9.4459
 42
1.0
 10
18.5307
 20
9.4459
  0
LWPOLYLINE
  5
81A
330
919
100
AcDbEntity
  8
21
100
AcDbPolyline
 90
        2
 70
     0
 43
0.0
 10
20.2934
 20
9.5459
 10
18.7934
 20
9.5459
  0
LWPOLYLINE
  5
81E
330
919
100
AcDbEntity
  8
21
100
AcDbPolyline
 90
        2
 70
     0
 43
0.0
 10
18.7934
 20
9.5967
 42
1.0
 10
18.7934
 20
9.4951
  0
LWPOLYLINE
  5
822
330
919
100
AcDbEntity
  8
21
100
AcDbPolyline
 90
        2
 70
     0
 43
0.0
 10
20.2934
 20
9.4951
 42
1.0
 10
20.2934
 20
9.5967
  0
INSERT
  5
826
330
919
100
AcDbEntity
  8
21
100
AcDbBlockReference
  2
RECT
 10
18.8184
 20
8.1709
 30
0.0
 41
0.25
 42
0.25
 50
180.0
  0
POINT
  5
827
330
919
100
AcDbEntity
  8
23
100
AcDbPoint
 10
19.7205
 20
23.8803
 30
0.0
  0
LWPOLYLINE
  5
828
330
919
100
AcDbEntity
  8
51
100
AcDbPolyline
 90
        2
 70
     0
 43
0.0
 10
18.2205
 20
24.3803
 10
21.2205
 20
24.3803
  0
LWPOLYLINE
  5
82C
330
919
100
AcDbEntity
  8
51
100
AcDbPolyline
 90
        2
 70
     0
 43
0.0
 10
21.2205
 20
24.3676
 42
1.0
 10
21.2205
 20
24.393
  0
LWPOLYLINE
  5
830
330
919
100
AcDbEntity
  8
51
100
AcDbPolyline
 90
        2
 70
     0
 43
0.0
 10
18.2205
 20
24.393
 42
1.0
 10
18.2205
 20
24.3676
  0
LWPOLYLINE
  5
834
330
919
100
AcDbEntity
  8
51
100
AcDbPolyline
 90
        2
 70
     0
 43
0.0
 10
21.2205
 20
24.3803
 10
21.2205
 20
23.3803
  0
LWPOLYLINE
  5
838
330
919
100
AcDbEntity
  8
51
100
AcDbPolyline
 90
        2
 70
     0
 43
0.0
 10
21.2078
 20
23.3803
 42
1.0
 10
21.2332
 20
23.3803
  0
LWPOLYLINE
  5
83C
330
919
100
AcDbEntity
  8
51
100
AcDbPolyline
 90
        2
 70
     0
 43
0.0
 10
21.2332
 20
24.3803
 42
1.0
 10
21.2078
 20
24.3803
  0
LWPOLYLINE
  5
840
330
919
100
AcDbEntity
  8
51
100
AcDbPolyline
 90
        2
 70
     0
 43
0.0
 10
21.2205
 20
23.3803
 10
20.7205
 20
23.3803
  0
LWPOLYLINE
  5
844
330
919
100
AcDbEntity
  8
51
100
AcDbPolyline
 90
        2
 70
     0
 43
0.0
 10
20.7205
 20
23.393
 42
1.0
 10
20.7205
 20
23.3676
  0
LWPOLYLINE
  5
848
330
919
100
AcDbEntity
  8
51
100
AcDbPolyline
 90
        2
 70
     0
 43
0.0
 10
21.2205
 20
23.3676
 42
1.0
 10
21.2205
 20
23.393
  0
LWPOLYLINE
  5
84C
330
919
100
AcDbEntity
  8
51
100
AcDbPolyline
 90
        2
 70
     0
 43
0.0
 10
20.7205
 20
23.3803
 10
18.7205
 20
23.3803
  0
LWPOLYLINE
  5
850
330
919
100
AcDbEntity
  8
51
100
AcDbPolyline
 90
        2
 70
     0
 43
0.0
 10
18.7205
 20
23.393
 42
1.0
 10
18.7205
 20
23.3676
  0
LWPOLYLINE
  5
854
330
919
100
AcDbEntity
  8
51
100
AcDbPolyline
 90
        2
 70
     0
 43
0.0
 10
20.7205
 20
23.3676
 42
1.0
 10
20.7205
 20
23.393
  0
LWPOLYLINE
  5
858
330
919
100
AcDbEntity
  8
51
100
AcDbPolyline
 90
        2
 70
     0
 43
0.0
 10
18.7205
 20
23.3803
 10
18.2205
 20
23.3803
  0
LWPOLYLINE
  5
85C
330
919
100
AcDbEntity
  8
51
100
AcDbPolyline
 90
        2
 70
     0
 43
0.0
 10
18.2205
 20
23.393
 42
1.0
 10
18.2205
 20
23.3676
  0
LWPOLYLINE
  5
860
330
919
100
AcDbEntity
  8
51
100
AcDbPolyline
 90
        2
 70
     0
 43
0.0
 10
18.7205
 20
23.3676
 42
1.0
 10
18.7205
 20
23.393
  0
LWPOLYLINE
  5
864
330
919
100
AcDbEntity
  8
51
100
AcDbPolyline
 90
        2
 70
     0
 43
0.0
 10
18.2205
 20
23.3803
 10
18.2205
 20
24.3803
  0
LWPOLYLINE
  5
868
330
919
100
AcDbEntity
  8
51
100
AcDbPolyline
 90
        2
 70
     0
 43
0.0
 10
18.2332
 20
24.3803
 42
1.0
 10
18.2078
 20
24.3803
  0
LWPOLYLINE
  5
86C
330
919
100
AcDbEntity
  8
51
100
AcDbPolyline
 90
        2
 70
     0
 43
0.0
 10
18.2078
 20
23.3803
 42
1.0
 10
18.2332
 20
23.3803
  0
LWPOLYLINE
  5
870
330
919
100
AcDbEntity
  8
51
100
AcDbPolyline
 90
        2
 70
     0
 43
0.0
 10
18.7205
 20
23.3803
 10
18.7205
 20
23.2303
  0
LWPOLYLINE
  5
874
330
919
100
AcDbEntity
  8
51
100
AcDbPolyline
 90
        2
 70
     0
 43
0.0
 10
18.7078
 20
23.2303
 42
1.0
 10
18.7332
 20
23.2303
  0
LWPOLYLINE
  5
878
330
919
100
AcDbEntity
  8
51
100
AcDbPolyline
 90
        2
 70
     0
 43
0.0
 10
18.7332
 20
23.3803
 42
1.0
 10
18.7078
 20
23.3803
  0
LWPOLYLINE
  5
87C
330
919
100
AcDbEntity
  8
51
100
AcDbPolyline
 90
        2
 70
     0
 43
0.0
 10
19.2205
 20
22.3803
 10
20.2205
 20
22.3803
  0
LWPOLYLINE
  5
880
330
919
100
AcDbEntity
  8
51
100
AcDbPolyline
 90
        2
 70
     0
 43
0.0
 10
20.2205
 20
22.3676
 42
1.0
 10
20.2205
 20
22.393
  0
LWPOLYLINE
  5
884
330
919
100
AcDbEntity
  8
51
100
AcDbPolyline
 90
        2
 70
     0
 43
0.0
 10
19.2205
 20
22.393
 42
1.0
 10
19.2205
 20
22.3676
  0
LWPOLYLINE
  5
888
330
919
100
AcDbEntity
  8
51
100
AcDbPolyline
 90
        2
 70
     0
 43
0.0
 10
18.7205
 20
23.2303
 42
0.2973
 10
19.2205
 20
22.3803
  0
LWPOLYLINE
  5
88C
330
919
100
AcDbEntity
  8
51
100
AcDbPolyline
 90
        2
 70
     0
 43
0.0
 10
18.7332
 20
23.2297
 42
1.0
 10
18.7078
 20
23.2309
  0
LWPOLYLINE
  5
890
330
919
100
AcDbEntity
  8
51
100
AcDbPolyline
 90
        2
 70
     0
 43
0.0
 10
19.2148
 20
22.3689
 42
1.0
 10
19.2261
 20
22.3917
  0
LWPOLYLINE
  5
894
330
919
100
AcDbEntity
  8
51
100
AcDbPolyline
 90
        2
 70
     0
 43
0.0
 10
20.2205
 20
22.3803
 42
0.2973
 10
20.7205
 20
23.2303
  0
LWPOLYLINE
  5
898
330
919
100
AcDbEntity
  8
51
100
AcDbPolyline
 90
        2
 70
     0
 43
0.0
 10
20.2148
 20
22.3917
 42
1.0
 10
20.2261
 20
22.3689
  0
LWPOLYLINE
  5
89C
330
919
100
AcDbEntity
  8
51
100
AcDbPolyline
 90
        2
 70
     0
 43
0.0
 10
20.7332
 20
23.2309
 42
1.0
 10
20.7078
 20
23.2297
  0
LWPOLYLINE
  5
8A0
330
919
100
AcDbEntity
  8
51
100
AcDbPolyline
 90
        2
 70
     0
 43
0.0
 10
20.7205
 20
23.2303
 10
20.7205
 20
23.3803
  0
LWPOLYLINE
  5
8A4
330
919
100
AcDbEntity
  8
51
100
AcDbPolyline
 90
        2
 70
     0
 43
0.0
 10
20.7332
 20
23.3803
 42
1.0
 10
20.7078
 20
23.3803
  0
LWPOLYLINE
  5
8A8
330
919
100
AcDbEntity
  8
51
100
AcDbPolyline
 90
        2
 70
     0
 43
0.0
 10
20.7078
 20
23.2303
 42
1.0
 10
20.7332
 20
23.2303
  0
LWPOLYLINE
  5
8AC
330
919
100
AcDbEntity
  8
21
100
AcDbPolyline
 90
        2
 70
     0
 43
0.0
 10
18.9705
 20
23.1303
 10
20.4705
 20
23.1303
  0
LWPOLYLINE
  5
8B0
330
919
100
AcDbEntity
  8
21
100
AcDbPolyline
 90
        2
 70
     0
 43
0.0
 10
20.4705
 20
23.0795
 42
1.0
 10
20.4705
 20
23.1811
  0
LWPOLYLINE
  5
8B4
330
919
100
AcDbEntity
  8
21
100
AcDbPolyline
 90
        2
 70
     0
 43
0.0
 10
18.9705
 20
23.1811
 42
1.0
 10
18.9705
 20
23.0795
  0
INSERT
  5
8B8
330
919
100
AcDbEntity
  8
21
100
AcDbBlockReference
  2
RECT
 10
20.4455
 20
24.5053
 30
0.0
 41
0.25
 42
0.25
  0
LINE
  5
8B9
330
919
100
AcDbEntity
  8
39
100
AcDbLine
 10
7.142675197855718
 20
36.30617249049676
 30
0.0
 11
5.410998420834451
 21
36.30617249049676
 31
0.0
  0
LINE
  5
8BA
330
919
100
AcDbEntity
  8
39
100
AcDbLine
 10
5.410998420834451
 20
36.30617249049676
 30
0.0
 11
5.410998420834451
 21
32.60933442719293
 31
0.0
  0
LINE
  5
8BB
330
919
100
AcDbEntity
  8
39
100
AcDbLine
 10
5.410998420834451
 20
32.60933442719293
 30
0.0
 11
7.1
 21
32.59999999999999
 31
0.0
  0
LINE
  5
8BC
330
919
100
AcDbEntity
  8
39
100
AcDbLine
 10
7.1
 20
32.59999999999999
 30
0.0
 11
7.1
 21
28.8
 31
0.0
  0
LINE
  5
8BD
330
919
100
AcDbEntity
  8
39
100
AcDbLine
 10
7.1
 20
28.8
 30
0.0
 11
13.0
 21
28.8
 31
0.0
  0
LINE
  5
8BE
330
919
100
AcDbEntity
  8
39
100
AcDbLine
 10
13.0
 20
28.8
 30
0.0
 11
13.0
 21
27.3
 31
0.0
  0
LINE
  5
8BF
330
919
100
AcDbEntity
  8
39
100
AcDbLine
 10
13.0
 20
27.3
 30
0.0
 11
16.5
 21
27.3
 31
0.0
  0
LINE
  5
8C0
330
919
100
AcDbEntity
  8
39
100
AcDbLine
 10
16.5
 20
27.3
 30
0.0
 11
16.5
 21
28.8
 31
0.0
  0
LINE
  5
8C1
330
919
100
AcDbEntity
  8
39
100
AcDbLine
 10
16.5
 20
28.8
 30
0.0
 11
21.8
 21
28.8
 31
0.0
  0
LINE
  5
8C2
330
919
100
AcDbEntity
  8
39
100
AcDbLine
 10
21.8
 20
28.8
 30
0.0
 11
21.8
 21
32.7
 31
0.0
  0
LINE
  5
8C3
330
919
100
AcDbEntity
  8
39
100
AcDbLine
 10
21.8
 20
32.7
 30
0.0
 11
23.4
 21
32.7
 31
0.0
  0
LINE
  5
8C4
330
919
100
AcDbEntity
  8
39
100
AcDbLine
 10
23.4
 20
32.7
 30
0.0
 11
23.4
 21
36.0
 31
0.0
  0
LINE
  5
8C5
330
919
100
AcDbEntity
  8
0
100
AcDbLine
 10
23.4
 20
36.09999999999999
 30
0.0
 11
23.4
 21
36.0
 31
0.0
  0
LINE
  5
8C6
330
919
100
AcDbEntity
  8
0
100
AcDbLine
 10
23.4
 20
36.0
 30
0.0
 11
23.4
 21
36.09999999999999
 31
0.0
  0
LINE
  5
8C7
330
919
100
AcDbEntity
  8
39
100
AcDbLine
 10
23.4
 20
36.09999999999999
 30
0.0
 11
21.8
 21
36.09999999999999
 31
0.0
  0
LINE
  5
8C8
330
919
100
AcDbEntity
  8
39
100
AcDbLine
 10
21.8
 20
36.09999999999999
 30
0.0
 11
21.8
 21
40.3
 31
0.0
  0
LINE
  5
8C9
330
919
100
AcDbEntity
  8
39
100
AcDbLine
 10
21.8
 20
40.3
 30
0.0
 11
16.3
 21
40.3
 31
0.0
  0
LINE
  5
8CA
330
919
100
AcDbEntity
  8
39
100
AcDbLine
 10
16.3
 20
40.3
 30
0.0
 11
16.3
 21
41.5
 31
0.0
  0
LINE
  5
8CB
330
919
100
AcDbEntity
  8
39
100
AcDbLine
 10
16.3
 20
41.5
 30
0.0
 11
12.8
 21
41.5
 31
0.0
  0
LINE
  5
8CC
330
919
100
AcDbEntity
  8
39
100
AcDbLine
 10
12.8
 20
41.5
 30
0.0
 11
12.8
 21
40.3
 31
0.0
  0
LINE
  5
8CD
330
919
100
AcDbEntity
  8
39
100
AcDbLine
 10
12.8
 20
40.3
 30
0.0
 11
7.1
 21
40.3
 31
0.0
  0
LINE
  5
8CE
330
919
100
AcDbEntity
  8
39
100
AcDbLine
 10
7.1
 20
40.3
 30
0.0
 11
7.1
 21
36.30617249049676
 31
0.0
  0
LINE
  5
8CF
330
919
100
AcDbEntity
  8
39
100
AcDbLine
 10
18.0
 20
23.4
 30
0.0
 11
18.0
 21
24.6
 31
0.0
  0
LINE
  5
8D0
330
919
100
AcDbEntity
  8
39
100
AcDbLine
 10
18.0
 20
24.6
 30
0.0
 11
21.5
 21
24.6
 31
0.0
  0
LINE
  5
8D1
330
919
100
AcDbEntity
  8
39
100
AcDbLine
 10
21.5
 20
24.6
 30
0.0
 11
21.5
 21
23.2
 31
0.0
  0
LINE
  5
8D2
330
919
100
AcDbEntity
  8
39
100
AcDbLine
 10
21.5
 20
23.2
 30
0.0
 11
23.2
 21
23.2
 31
0.0
  0
LINE
  5
8D3
330
919
100
AcDbEntity
  8
39
100
AcDbLine
 10
23.2
 20
23.2
 30
0.0
 11
23.2
 21
24.5
 31
0.0
  0
LINE
  5
8D4
330
919
100
AcDbEntity
  8
39
100
AcDbLine
 10
23.2
 20
24.5
 30
0.0
 11
25.4
 21
24.5
 31
0.0
  0
LINE
  5
8D5
330
919
100
AcDbEntity
  8
39
100
AcDbLine
 10
25.4
 20
24.5
 30
0.0
 11
25.4
 21
23.2
 31
0.0
  0
LINE
  5
8D6
330
919
100
AcDbEntity
  8
39
100
AcDbLine
 10
25.4
 20
23.2
 30
0.0
 11
26.19999999999999
 21
23.2
 31
0.0
  0
LINE
  5
8D7
330
919
100
AcDbEntity
  8
39
100
AcDbLine
 10
26.2
 20
23.2
 30
0.0
 11
26.2
 21
9.104224708104798
 31
0.0
  0
LINE
  5
8D8
330
919
100
AcDbEntity
  8
39
100
AcDbLine
 10
26.14830613839861
 20
9.104224708104798
 30
0.0
 11
25.1
 21
9.1
 31
0.0
  0
LINE
  5
8D9
330
919
100
AcDbEntity
  8
39
100
AcDbLine
 10
25.1
 20
9.1
 30
0.0
 11
25.1
 21
8.1
 31
0.0
  0
LINE
  5
8DA
330
919
100
AcDbEntity
  8
39
100
AcDbLine
 10
25.1
 20
8.1
 30
0.0
 11
23.1
 21
8.1
 31
0.0
  0
LINE
  5
8DB
330
919
100
AcDbEntity
  8
39
100
AcDbLine
 10
23.1
 20
8.1
 30
0.0
 11
23.1
 21
9.1
 31
0.0
  0
LINE
  5
8DC
330
919
100
AcDbEntity
  8
39
100
AcDbLine
 10
23.1
 20
9.1
 30
0.0
 11
21.2
 21
9.1
 31
0.0
  0
LINE
  5
8DD
330
919
100
AcDbEntity
  8
39
100
AcDbLine
 10
21.2
 20
9.1
 30
0.0
 11
21.2
 21
8.2
 31
0.0
  0
LINE
  5
8DE
330
919
100
AcDbEntity
  8
39
100
AcDbLine
 10
21.2
 20
8.2
 30
0.0
 11
17.8
 21
8.2
 31
0.0
  0
LINE
  5
8DF
330
919
100
AcDbEntity
  8
39
100
AcDbLine
 10
17.8
 20
8.2
 30
0.0
 11
17.8
 21
9.2
 31
0.0
  0
LINE
  5
8E0
330
919
100
AcDbEntity
  8
39
100
AcDbLine
 10
17.8
 20
9.2
 30
0.0
 11
15.3
 21
9.2
 31
0.0
  0
LINE
  5
8E1
330
919
100
AcDbEntity
  8
39
100
AcDbLine
 10
15.3
 20
9.2
 30
0.0
 11
15.3
 21
23.0
 31
0.0
  0
LINE
  5
8E2
330
919
100
AcDbEntity
  8
39
100
AcDbLine
 10
15.3
 20
23.0
 30
0.0
 11
18.0
 21
23.0
 31
0.0
  0
LINE
  5
8E3
330
919
100
AcDbEntity
  8
39
100
AcDbLine
 10
18.0
 20
23.0
 30
0.0
 11
18.0
 21
23.4
 31
0.0
  0
LINE
  5
8EA
330
919
100
AcDbEntity
  8
39
100
AcDbLine
 10
2.1
 20
44.7
 30
0.0
 11
2.1
 21
42.9
 31
0.0
  0
LINE
  5
8EB
330
919
100
AcDbEntity
  8
39
100
AcDbLine
 10
2.1
 20
42.9
 30
0.0
 11
5.499999999999999
 21
42.9
 31
0.0
  0
LINE
  5
8EC
330
919
100
AcDbEntity
  8
39
100
AcDbLine
 10
5.499999999999999
 20
42.9
 30
0.0
 11
5.499999999999999
 21
44.7
 31
0.0
  0
LINE
  5
8ED
330
919
100
AcDbEntity
  8
39
100
AcDbLine
 10
5.499999999999999
 20
44.7
 30
0.0
 11
2.1
 21
44.7
 31
0.0
  0
LINE
  5
8EE
330
919
100
AcDbEntity
  8
39
100
AcDbLine
 10
23.2
 20
44.4
 30
0.0
 11
23.2
 21
42.8
 31
0.0
  0
LINE
  5
8EF
330
919
100
AcDbEntity
  8
39
100
AcDbLine
 10
23.2
 20
42.8
 30
0.0
 11
26.7
 21
42.8
 31
0.0
  0
LINE
  5
8F0
330
919
100
AcDbEntity
  8
39
100
AcDbLine
 10
26.7
 20
42.8
 30
0.0
 11
26.7
 21
44.59999999999999
 31
0.0
  0
LINE
  5
8F1
330
919
100
AcDbEntity
  8
39
100
AcDbLine
 10
26.7
 20
44.59999999999999
 30
0.0
 11
23.2
 21
44.59999999999999
 31
0.0
  0
LINE
  5
8F2
330
919
100
AcDbEntity
  8
39
100
AcDbLine
 10
23.2
 20
44.59999999999999
 30
0.0
 11
23.2
 21
44.4
 31
0.0
  0
LINE
  5
8F3
330
919
100
AcDbEntity
  8
39
100
AcDbLine
 10
3.175000000000001
 20
0.0
 30
0.0
 11
3.175000000000001
 21
5.588
 31
0.0
  0
LINE
  5
8F4
330
919
100
AcDbEntity
  8
39
100
AcDbLine
 10
3.175000000000001
 20
5.588
 30
0.0
 11
13.462
 21
5.588
 31
0.0
  0
LINE
  5
8F5
330
919
100
AcDbEntity
  8
39
100
AcDbLine
 10
13.462
 20
5.588
 30
0.0
 11
13.462
 21
0.0
 31
0.0
  0
LINE
  5
8F6
330
919
100
AcDbEntity
  8
39
100
AcDbLine
 10
17.018
 20
0.0
 30
0.0
 11
17.018
 21
5.334
 31
0.0
  0
LINE
  5
8F7
330
919
100
AcDbEntity
  8
39
100
AcDbLine
 10
17.018
 20
5.334
 30
0.0
 11
25.527
 21
5.334
 31
0.0
  0
LINE
  5
8F8
330
919
100
AcDbEntity
  8
39
100
AcDbLine
 10
25.527
 20
5.334
 30
0.0
 11
25.527
 21
0.0
 31
0.0
  0
LINE
  5
8F9
330
919
100
AcDbEntity
  8
39
100
AcDbLine
 10
25.527
 20
0.0
 30
0.0
 11
28.0035
 21
0.0
 31
0.0
  0
LINE
  5
8FA
330
919
100
AcDbEntity
  8
39
100
AcDbLine
 10
3.175000000000001
 20
0.0
 30
0.0
 11
0.0
 21
0.0
 31
0.0
  0
ENDSEC
  0
SECTION
  2
OBJECTS
  0
DICTIONARY
  5
907
330
0
100
AcDbDictionary
281
     1
  3
ACAD_DETAILVIEWSTYLE
350
A59
  3
ACAD_GROUP
350
908
  3
ACAD_LAYOUT
350
914
  3
ACAD_MATERIAL
350
93D
  3
ACAD_MLEADERSTYLE
350
965
  3
ACAD_MLINESTYLE
350
911
  3
ACAD_PLOTSETTINGS
350
913
  3
ACAD_PLOTSTYLENAME
350
909
  3
ACAD_SCALELIST
350
941
  3
ACAD_SECTIONVIEWSTYLE
350
A5A
  3
ACAD_TABLESTYLE
350
963
  3
ACAD_VISUALSTYLE
350
924
  3
ACDB_RECOMPOSE_DATA
350
A56
  3
AcDbVariableDictionary
350
A52
  3
QCAD_OBJECTS
350
969
  0
SUN
  5
967
330
923
100
AcDbSun
 90
        1
290
     0
 63
     7
421
 16777215
 40
1.0
291
     1
 91
  2455826
 92
 54000000
292
     0
 70
     2
 71
   256
280
     1
  0
DICTIONARY
  5
A59
102
{ACAD_REACTORS
330
907
102
}
330
907
100
AcDbDictionary
281
     1
  0
DICTIONARY
  5
908
102
{ACAD_REACTORS
330
907
102
}
330
907
100
AcDbDictionary
281
     1
  0
DICTIONARY
  5
914
102
{ACAD_REACTORS
330
907
102
}
330
907
100
AcDbDictionary
281
     1
  3
Layout1
350
918
  3
Layout2
350
920
  3
Model
350
91C
  0
DICTIONARY
  5
93D
102
{ACAD_REACTORS
330
907
102
}
330
907
100
AcDbDictionary
281
     1
  3
ByBlock
350
93F
  3
ByLayer
350
93E
  3
Global
350
940
  0
DICTIONARY
  5
965
102
{ACAD_REACTORS
330
907
102
}
330
907
100
AcDbDictionary
281
     1
  3
Standard
350
966
  0
DICTIONARY
  5
911
102
{ACAD_REACTORS
330
907
102
}
330
907
100
AcDbDictionary
281
     1
  3
Standard
350
912
  0
DICTIONARY
  5
913
102
{ACAD_REACTORS
330
907
102
}
330
907
100
AcDbDictionary
281
     1
  0
ACDBDICTIONARYWDFLT
  5
909
102
{ACAD_REACTORS
330
907
102
}
330
907
100
AcDbDictionary
281
     1
  3
Normal
350
90A
100
AcDbDictionaryWithDefault
340
90A
  0
DICTIONARY
  5
941
102
{ACAD_REACTORS
330
907
102
}
330
907
100
AcDbDictionary
281
     1
  3
A0
350
942
  3
A1
350
943
  3
A2
350
944
  3
A3
350
945
  3
A4
350
946
  3
A5
350
947
  3
A6
350
948
  3
A7
350
949
  3
A8
350
94A
  3
A9
350
94B
  3
B0
350
94C
  3
B1
350
94D
  3
B2
350
94E
  3
B3
350
94F
  3
B4
350
950
  3
B5
350
951
  3
B6
350
952
  3
B7
350
953
  3
B8
350
954
  3
B9
350
955
  3
C0
350
956
  3
C1
350
957
  3
C2
350
958
  3
C3
350
959
  3
C4
350
95A
  3
C5
350
95B
  3
C6
350
95C
  3
C7
350
95D
  3
C8
350
95E
  3
C9
350
95F
  3
D0
350
960
  3
D1
350
961
  3
D2
350
962
  0
DICTIONARY
  5
A5A
102
{ACAD_REACTORS
330
907
102
}
330
907
100
AcDbDictionary
281
     1
  0
DICTIONARY
  5
963
102
{ACAD_REACTORS
330
907
102
}
330
907
100
AcDbDictionary
281
     1
  3
Standard
350
964
  0
DICTIONARY
  5
924
102
{ACAD_REACTORS
330
907
102
}
330
907
100
AcDbDictionary
281
     1
  3
2dWireframe
350
929
  3
Basic
350
92C
  3
Brighten
350
930
  3
ColorChange
350
934
  3
Conceptual
350
92E
  3
Dim
350
92F
  3
EdgeColorOff
350
937
  3
Facepattern
350
933
  3
Flat
350
925
  3
FlatWithEdges
350
926
  3
Gouraud
350
927
  3
GouraudWithEdges
350
928
  3
Hidden
350
92B
  3
JitterOff
350
935
  3
Linepattern
350
932
  3
OverhangOff
350
936
  3
Realistic
350
92D
  3
Shaded
350
93C
  3
Shaded with edges
350
93B
  3
Shades of Gray
350
938
  3
Sketchy
350
939
  3
Thicken
350
931
  3
Wireframe
350
92A
  3
X-Ray
350
93A
  0
XRECORD
  5
A56
102
{ACAD_REACTORS
330
907
102
}
330
907
100
AcDbXrecord
280
     1
 90
        1
330
964
  0
DICTIONARY
  5
A52
102
{ACAD_REACTORS
330
907
102
}
330
907
100
AcDbDictionary
281
     1
  3
CANNOSCALE
350
A53
  3
CMLEADERSTYLE
350
A58
  3
CTABLESTYLE
350
A57
  0
DICTIONARY
  5
969
102
{ACAD_REACTORS
330
907
102
}
330
907
100
AcDbDictionary
281
     1
  3
Grid/DisplayGrid00
350
96B
  3
Grid/DisplayGrid01
350
96C
  3
Grid/DisplayGrid02
350
96D
  3
Grid/DisplayGrid03
350
96E
  3
Grid/GridSpacingX00
350
96F
  3
Grid/GridSpacingX01
350
970
  3
Grid/GridSpacingX02
350
971
  3
Grid/GridSpacingX03
350
972
  3
Grid/GridSpacingY00
350
973
  3
Grid/GridSpacingY01
350
974
  3
Grid/GridSpacingY02
350
975
  3
Grid/GridSpacingY03
350
976
  3
Grid/IsometricGrid00
350
977
  3
Grid/IsometricGrid01
350
978
  3
Grid/IsometricGrid02
350
979
  3
Grid/IsometricGrid03
350
97A
  3
Grid/IsometricProjection00
350
97B
  3
Grid/IsometricProjection01
350
97C
  3
Grid/IsometricProjection02
350
97D
  3
Grid/IsometricProjection03
350
97E
  3
Grid/MetaGridSpacingX00
350
97F
  3
Grid/MetaGridSpacingX01
350
980
  3
Grid/MetaGridSpacingX02
350
981
  3
Grid/MetaGridSpacingX03
350
982
  3
Grid/MetaGridSpacingY00
350
983
  3
Grid/MetaGridSpacingY01
350
984
  3
Grid/MetaGridSpacingY02
350
985
  3
Grid/MetaGridSpacingY03
350
986
  3
MultiPageSettings/Columns
350
987
  3
MultiPageSettings/GlueMarginsBottom
350
988
  3
MultiPageSettings/GlueMarginsLeft
350
989
  3
MultiPageSettings/GlueMarginsRight
350
98A
  3
MultiPageSettings/GlueMarginsTop
350
98B
  3
MultiPageSettings/PrintCropMarks
350
98C
  3
MultiPageSettings/Rows
350
98D
  3
PageSettings/OffsetX
350
98E
  3
PageSettings/OffsetY
350
98F
  3
PageSettings/PageOrientation
350
990
  3
PageSettings/PaperHeight
350
991
  3
PageSettings/PaperWidth
350
992
  3
PageSettings/Scale
350
993
  3
PageSettings/ShowPaperBorders
350
994
  3
QCADVersion
350
96A
  3
UnitSettings/PaperUnit
350
995
  0
LAYOUT
  5
918
102
{ACAD_REACTORS
330
914
102
}
330
914
100
AcDbPlotSettings
  1

  2
none_device
  4

  6

 40
0.0
 41
0.0
 42
0.0
 43
0.0
 44
0.0
 45
0.0
 46
0.0
 47
0.0
 48
0.0
 49
0.0
140
0.0
141
0.0
142
1.0
143
1.0
 70
   688
 72
     0
 73
     0
 74
     5
  7

 75
    16
 76
     0
 77
     2
 78
   300
147
1.0
148
0.0
149
0.0
100
AcDbLayout
  1
Layout1
 70
     1
 71
     1
 10
0.0
 20
0.0
 11
12.0
 21
9.0
 12
0.0
 22
0.0
 32
0.0
 14
1.000000000000000E+20
 24
1.000000000000000E+20
 34
1.000000000000000E+20
 15
-1.000000000000000E+20
 25
-1.000000000000000E+20
 35
-1.000000000000000E+20
146
0.0
 13
0.0
 23
0.0
 33
0.0
 16
1.0
 26
0.0
 36
0.0
 17
0.0
 27
1.0
 37
0.0
 76
     0
330
915
  0
LAYOUT
  5
920
102
{ACAD_REACTORS
330
914
102
}
330
914
100
AcDbPlotSettings
  1

  2
none_device
  4

  6

 40
0.0
 41
0.0
 42
0.0
 43
0.0
 44
0.0
 45
0.0
 46
0.0
 47
0.0
 48
0.0
 49
0.0
140
0.0
141
0.0
142
1.0
143
1.0
 70
   688
 72
     0
 73
     0
 74
     5
  7

 75
    16
 76
     0
 77
     2
 78
   300
147
1.0
148
0.0
149
0.0
100
AcDbLayout
  1
Layout2
 70
     1
 71
     2
 10
0.0
 20
0.0
 11
0.0
 21
0.0
 12
0.0
 22
0.0
 32
0.0
 14
0.0
 24
0.0
 34
0.0
 15
0.0
 25
0.0
 35
0.0
146
0.0
 13
0.0
 23
0.0
 33
0.0
 16
1.0
 26
0.0
 36
0.0
 17
0.0
 27
1.0
 37
0.0
 76
     0
330
91D
  0
LAYOUT
  5
91C
102
{ACAD_REACTORS
330
914
102
}
330
914
100
AcDbPlotSettings
  1

  2
none_device
  4
Letter_(8.50_x_11.00_Inches)
  6

 40
6.35
 41
6.35
 42
6.35000508
 43
6.35000508
 44
215.9
 45
279.4
 46
0.0
 47
0.0
 48
0.0
 49
0.0
140
0.0
141
0.0
142
1.0
143
1.0
 70
  1712
 72
     0
 73
     0
 74
     0
  7

 75
     0
 76
     0
 77
     2
 78
   300
147
1.0
148
0.0
149
0.0
100
AcDbLayout
  1
Model
 70
     1
 71
     0
 10
0.0
 20
0.0
 11
12.0
 21
9.0
 12
0.0
 22
0.0
 32
0.0
 14
0.0
 24
-0.508
 34
0.0
 15
28.0035
 25
47.0894
 35
0.0
146
0.0
 13
0.0
 23
0.0
 33
0.0
 16
1.0
 26
0.0
 36
0.0
 17
0.0
 27
1.0
 37
0.0
 76
     0
330
919
331
923
  0
MATERIAL
  5
93F
102
{ACAD_REACTORS
330
93D
102
}
330
93D
100
AcDbMaterial
  1
ByBlock
 72
     1
 94
      127
  0
MATERIAL
  5
93E
102
{ACAD_REACTORS
330
93D
102
}
330
93D
100
AcDbMaterial
  1
ByLayer
 72
     1
 94
      127
  0
MATERIAL
  5
940
102
{ACAD_REACTORS
330
93D
102
}
330
93D
100
AcDbMaterial
  1
Global
 72
     1
 94
      127
  0
MLEADERSTYLE
  5
966
102
{ACAD_REACTORS
330
965
102
}
330
965
100
AcDbMLeaderStyle
179
     2
170
     2
171
     1
172
     0
 90
        2
 40
0.0
 41
0.0
173
     1
 91
-1056964608
340
90E
 92
       -2
290
     1
 42
0.09
291
     1
 43
0.36
  3
Standard
341
0
 44
0.18
300

342
90C
174
     1
178
     6
175
     1
176
     0
 93
-1056964608
 45
0.18
292
     0
297
     0
 46
0.18
343
0
 94
-1056964608
 47
1.0
 49
1.0
140
1.0
293
     1
141
0.0
294
     1
177
     0
142
1.0
295
     0
296
     0
143
0.125
271
     0
272
     9
273
     9
298
     0
  0
MLINESTYLE
  5
912
102
{ACAD_REACTORS
330
911
102
}
330
911
100
AcDbMlineStyle
  2
Standard
 70
     0
  3

 62
   256
 51
90.0
 52
90.0
 71
     2
 49
0.5
 62
   256
  6
BYLAYER
 49
-0.5
 62
   256
  6
BYLAYER
  0
ACDBPLACEHOLDER
  5
90A
102
{ACAD_REACTORS
330
909
102
}
330
909
  0
SCALE
  5
942
102
{ACAD_REACTORS
330
941
102
}
330
941
100
AcDbScale
 70
     0
300
1:1
140
1.0
141
1.0
290
     1
  0
SCALE
  5
943
102
{ACAD_REACTORS
330
941
102
}
330
941
100
AcDbScale
 70
     0
300
1:2
140
1.0
141
2.0
290
     0
  0
SCALE
  5
944
102
{ACAD_REACTORS
330
941
102
}
330
941
100
AcDbScale
 70
     0
300
1:4
140
1.0
141
4.0
290
     0
  0
SCALE
  5
945
102
{ACAD_REACTORS
330
941
102
}
330
941
100
AcDbScale
 70
     0
300
1:5
140
1.0
141
5.0
290
     0
  0
SCALE
  5
946
102
{ACAD_REACTORS
330
941
102
}
330
941
100
AcDbScale
 70
     0
300
1:8
140
1.0
141
8.0
290
     0
  0
SCALE
  5
947
102
{ACAD_REACTORS
330
941
102
}
330
941
100
AcDbScale
 70
     0
300
1:10
140
1.0
141
10.0
290
     0
  0
SCALE
  5
948
102
{ACAD_REACTORS
330
941
102
}
330
941
100
AcDbScale
 70
     0
300
1:16
140
1.0
141
16.0
290
     0
  0
SCALE
  5
949
102
{ACAD_REACTORS
330
941
102
}
330
941
100
AcDbScale
 70
     0
300
1:20
140
1.0
141
20.0
290
     0
  0
SCALE
  5
94A
102
{ACAD_REACTORS
330
941
102
}
330
941
100
AcDbScale
 70
     0
300
1:30
140
1.0
141
30.0
290
     0
  0
SCALE
  5
94B
102
{ACAD_REACTORS
330
941
102
}
330
941
100
AcDbScale
 70
     0
300
1:40
140
1.0
141
40.0
290
     0
  0
SCALE
  5
94C
102
{ACAD_REACTORS
330
941
102
}
330
941
100
AcDbScale
 70
     0
300
1:50
140
1.0
141
50.0
290
     0
  0
SCALE
  5
94D
102
{ACAD_REACTORS
330
941
102
}
330
941
100
AcDbScale
 70
     0
300
1:100
140
1.0
141
100.0
290
     0
  0
SCALE
  5
94E
102
{ACAD_REACTORS
330
941
102
}
330
941
100
AcDbScale
 70
     0
300
2:1
140
2.0
141
1.0
290
     0
  0
SCALE
  5
94F
102
{ACAD_REACTORS
330
941
102
}
330
941
100
AcDbScale
 70
     0
300
4:1
140
4.0
141
1.0
290
     0
  0
SCALE
  5
950
102
{ACAD_REACTORS
330
941
102
}
330
941
100
AcDbScale
 70
     0
300
8:1
140
8.0
141
1.0
290
     0
  0
SCALE
  5
951
102
{ACAD_REACTORS
330
941
102
}
330
941
100
AcDbScale
 70
     0
300
10:1
140
10.0
141
1.0
290
     0
  0
SCALE
  5
952
102
{ACAD_REACTORS
330
941
102
}
330
941
100
AcDbScale
 70
     0
300
100:1
140
100.0
141
1.0
290
     0
  0
SCALE
  5
953
102
{ACAD_REACTORS
330
941
102
}
330
941
100
AcDbScale
 70
     0
300
1/128" = 1'-0"
140
0.0078125
141
12.0
290
     0
  0
SCALE
  5
954
102
{ACAD_REACTORS
330
941
102
}
330
941
100
AcDbScale
 70
     0
300
1/64" = 1'-0"
140
0.015625
141
12.0
290
     0
  0
SCALE
  5
955
102
{ACAD_REACTORS
330
941
102
}
330
941
100
AcDbScale
 70
     0
300
1/32" = 1'-0"
140
0.03125
141
12.0
290
     0
  0
SCALE
  5
956
102
{ACAD_REACTORS
330
941
102
}
330
941
100
AcDbScale
 70
     0
300
1/16" = 1'-0"
140
0.0625
141
12.0
290
     0
  0
SCALE
  5
957
102
{ACAD_REACTORS
330
941
102
}
330
941
100
AcDbScale
 70
     0
300
3/32" = 1'-0"
140
0.09375
141
12.0
290
     0
  0
SCALE
  5
958
102
{ACAD_REACTORS
330
941
102
}
330
941
100
AcDbScale
 70
     0
300
1/8" = 1'-0"
140
0.125
141
12.0
290
     0
  0
SCALE
  5
959
102
{ACAD_REACTORS
330
941
102
}
330
941
100
AcDbScale
 70
     0
300
3/16" = 1'-0"
140
0.1875
141
12.0
290
     0
  0
SCALE
  5
95A
102
{ACAD_REACTORS
330
941
102
}
330
941
100
AcDbScale
 70
     0
300
1/4" = 1'-0"
140
0.25
141
12.0
290
     0
  0
SCALE
  5
95B
102
{ACAD_REACTORS
330
941
102
}
330
941
100
AcDbScale
 70
     0
300
3/8" = 1'-0"
140
0.375
141
12.0
290
     0
  0
SCALE
  5
95C
102
{ACAD_REACTORS
330
941
102
}
330
941
100
AcDbScale
 70
     0
300
1/2" = 1'-0"
140
0.5
141
12.0
290
     0
  0
SCALE
  5
95D
102
{ACAD_REACTORS
330
941
102
}
330
941
100
AcDbScale
 70
     0
300
3/4" = 1'-0"
140
0.75
141
12.0
290
     0
  0
SCALE
  5
95E
102
{ACAD_REACTORS
330
941
102
}
330
941
100
AcDbScale
 70
     0
300
1" = 1'-0"
140
1.0
141
12.0
290
     0
  0
SCALE
  5
95F
102
{ACAD_REACTORS
330
941
102
}
330
941
100
AcDbScale
 70
     0
300
1-1/2" = 1'-0"
140
1.5
141
12.0
290
     0
  0
SCALE
  5
960
102
{ACAD_REACTORS
330
941
102
}
330
941
100
AcDbScale
 70
     0
300
3" = 1'-0"
140
3.0
141
12.0
290
     0
  0
SCALE
  5
961
102
{ACAD_REACTORS
330
941
102
}
330
941
100
AcDbScale
 70
     0
300
6" = 1'-0"
140
6.0
141
12.0
290
     0
  0
SCALE
  5
962
102
{ACAD_REACTORS
330
941
102
}
330
941
100
AcDbScale
 70
     0
300
1'-0" = 1'-0"
140
12.0
141
12.0
290
     0
  0
TABLESTYLE
  5
964
102
{ACAD_REACTORS
330
963
102
}
102
{ACAD_XDICTIONARY
360
A54
102
}
330
963
100
AcDbTableStyle
  3
Standard
 70
     0
 71
     0
 40
0.06
 41
0.06
280
     0
281
     0
  7
Standard
140
0.18
170
     2
 62
     0
 63
   257
283
     0
 90
        4
 91
        0
  1

274
    -2
284
     1
 64
     0
275
    -2
285
     1
 65
     0
276
    -2
286
     1
 66
     0
277
    -2
287
     1
 67
     0
278
    -2
288
     1
 68
     0
279
    -2
289
     1
 69
     0
  7
Standard
140
0.25
170
     5
 62
     0
 63
   257
283
     0
 90
        4
 91
        0
  1

274
    -2
284
     1
 64
     0
275
    -2
285
     1
 65
     0
276
    -2
286
     1
 66
     0
277
    -2
287
     1
 67
     0
278
    -2
288
     1
 68
     0
279
    -2
289
     1
 69
     0
  7
Standard
140
0.18
170
     5
 62
     0
 63
   257
283
     0
 90
        4
 91
        0
  1

274
    -2
284
     1
 64
     0
275
    -2
285
     1
 65
     0
276
    -2
286
     1
 66
     0
277
    -2
287
     1
 67
     0
278
    -2
288
     1
 68
     0
279
    -2
289
     1
 69
     0
  0
VISUALSTYLE
  5
929
102
{ACAD_REACTORS
330
924
102
}
330
924
100
AcDbVisualStyle
  2
2dWireframe
 70
     4
177
     3
291
     0
 70
    58
 90
        0
176
     1
 90
        2
176
     1
 90
        0
176
     1
 90
        0
176
     1
 40
0.6
176
     1
 40
30.0
176
     1
 62
     7
420
 16777215
176
     1
 90
        1
176
     1
 90
        4
176
     1
 62
     7
176
     1
 62
   257
176
     1
 90
        1
176
     1
 90
        1
176
     1
 40
1.0
176
     1
 90
        0
176
     1
 62
   257
176
     1
 40
1.0
176
     1
 90
        1
176
     1
 90
        6
176
     1
 90
        2
176
     1
 62
     7
176
     1
 90
        5
176
     1
 90
        0
176
     1
 90
        0
176
     1
290
     0
176
     1
 90
        1
176
     1
 40
0.0
176
     1
 90
        0
176
     1
290
     1
176
     1
290
     1
176
     1
290
     0
176
     1
290
     0
176
     1
290
     0
176
     1
290
     0
176
     1
290
     0
176
     1
290
     0
176
     1
290
     0
176
     1
 90
       50
176
     1
 40
0.0
176
     1
 40
1.0
176
     1
 90
        0
176
     1
 62
    18
420
        0
176
     1
 90
       50
176
     1
 90
        3
176
     1
 62
     5
420
      255
176
     1
290
     0
176
     1
 90
       50
176
     1
 90
       50
176
     1
 90
       50
176
     1
290
     0
176
     1
 90
       50
176
     1
 62
   256
176
     0
 40
1.0
176
     0
 90
        2
176
     1
  1
strokes_ogs.tif
176
     1
290
     0
176
     1
 40
1.0
176
     1
 40
1.0
176
     1
  0
VISUALSTYLE
  5
92C
102
{ACAD_REACTORS
330
924
102
}
330
924
100
AcDbVisualStyle
  2
Basic
 70
     7
177
     3
291
     1
 70
    58
 90
        1
176
     1
 90
        0
176
     1
 90
        1
176
     1
 90
        0
176
     1
 40
0.6
176
     1
 40
30.0
176
     1
 62
     7
420
 16777215
176
     1
 90
        0
176
     1
 90
        4
176
     1
 62
     7
176
     1
 62
   257
176
     1
 90
        1
176
     1
 90
        1
176
     1
 40
1.0
176
     1
 90
        8
176
     1
 62
     7
176
     1
 40
1.0
176
     1
 90
        1
176
     1
 90
        6
176
     1
 90
        2
176
     1
 62
     7
176
     1
 90
        5
176
     1
 90
        0
176
     1
 90
        0
176
     1
290
     0
176
     1
 90
        1
176
     1
 40
0.0
176
     1
 90
        0
176
     1
290
     0
176
     1
290
     1
176
     1
290
     1
176
     1
290
     0
176
     1
290
     0
176
     1
290
     0
176
     1
290
     0
176
     1
290
     0
176
     1
290
     0
176
     1
 90
       50
176
     1
 40
0.0
176
     1
 40
1.0
176
     1
 90
        0
176
     1
 62
    18
420
        0
176
     1
 90
       50
176
     1
 90
        3
176
     1
 62
     5
420
      255
176
     1
290
     0
176
     1
 90
       50
176
     1
 90
       50
176
     1
 90
       50
176
     1
290
     0
176
     1
 90
       50
176
     1
 62
   256
176
     0
 40
1.0
176
     0
 90
        2
176
     1
  1
strokes_ogs.tif
176
     1
290
     0
176
     1
 40
1.0
176
     1
 40
1.0
176
     1
  0
VISUALSTYLE
  5
930
102
{ACAD_REACTORS
330
924
102
}
330
924
100
AcDbVisualStyle
  2
Brighten
 70
    12
177
     3
291
     1
 70
    58
 90
        2
176
     1
 90
        2
176
     1
 90
        0
176
     1
 90
        0
176
     1
 40
0.6
176
     1
 40
30.0
176
     1
 62
     7
420
 16777215
176
     1
 90
        1
176
     1
 90
        4
176
     1
 62
     7
176
     1
 62
   257
176
     1
 90
        1
176
     1
 90
        1
176
     1
 40
1.0
176
     1
 90
        8
176
     1
 62
     7
176
     1
 40
1.0
176
     1
 90
        1
176
     1
 90
        6
176
     1
 90
        2
176
     1
 62
     7
176
     1
 90
        5
176
     1
 90
        0
176
     1
 90
        0
176
     1
290
     0
176
     1
 90
        1
176
     1
 40
50.0
176
     1
 90
        0
176
     1
290
     0
176
     1
290
     1
176
     1
290
     1
176
     1
290
     0
176
     1
290
     0
176
     1
290
     0
176
     1
290
     0
176
     1
290
     0
176
     1
290
     0
176
     1
 90
       50
176
     1
 40
0.0
176
     1
 40
1.0
176
     1
 90
        0
176
     1
 62
    18
420
        0
176
     1
 90
       50
176
     1
 90
        3
176
     1
 62
     5
420
      255
176
     1
290
     0
176
     1
 90
       50
176
     1
 90
       50
176
     1
 90
       50
176
     1
290
     0
176
     1
 90
       50
176
     1
 62
   256
176
     0
 40
1.0
176
     0
 90
        2
176
     1
  1
strokes_ogs.tif
176
     1
290
     0
176
     1
 40
1.0
176
     1
 40
1.0
176
     1
  0
VISUALSTYLE
  5
934
102
{ACAD_REACTORS
330
924
102
}
330
924
100
AcDbVisualStyle
  2
ColorChange
 70
    16
177
     3
291
     1
 70
    58
 90
        2
176
     1
 90
        2
176
     1
 90
        3
176
     1
 90
        0
176
     1
 40
0.6
176
     1
 40
30.0
176
     1
 62
     8
420
  8421504
176
     1
 90
        1
176
     1
 90
        4
176
     1
 62
     7
176
     1
 62
   257
176
     1
 90
        1
176
     1
 90
        1
176
     1
 40
1.0
176
     1
 90
        8
176
     1
 62
     8
420
  8421504
176
     1
 40
1.0
176
     1
 90
        1
176
     1
 90
        6
176
     1
 90
        2
176
     1
 62
     7
176
     1
 90
        5
176
     1
 90
        0
176
     1
 90
        0
176
     1
290
     0
176
     1
 90
        1
176
     1
 40
0.0
176
     1
 90
        0
176
     1
290
     0
176
     1
290
     1
176
     1
290
     1
176
     1
290
     0
176
     1
290
     0
176
     1
290
     0
176
     1
290
     0
176
     1
290
     0
176
     1
290
     0
176
     1
 90
       50
176
     1
 40
0.0
176
     1
 40
1.0
176
     1
 90
        0
176
     1
 62
    18
420
        0
176
     1
 90
       50
176
     1
 90
        3
176
     1
 62
     5
420
      255
176
     1
290
     0
176
     1
 90
       50
176
     1
 90
       50
176
     1
 90
       50
176
     1
290
     0
176
     1
 90
       50
176
     1
 62
   256
176
     0
 40
1.0
176
     0
 90
        2
176
     1
  1
strokes_ogs.tif
176
     1
290
     0
176
     1
 40
1.0
176
     1
 40
1.0
176
     1
  0
VISUALSTYLE
  5
92E
102
{ACAD_REACTORS
330
924
102
}
330
924
100
AcDbVisualStyle
  2
Conceptual
 70
     9
177
     3
291
     0
 70
    58
 90
        3
176
     1
 90
        2
176
     1
 90
        0
176
     1
 90
        0
176
     1
 40
0.6
176
     1
 40
30.0
176
     1
 62
     7
420
 16777215
176
     1
 90
        2
176
     1
 90
        2
176
     1
 62
     7
176
     1
 62
   257
176
     1
 90
        1
176
     1
 90
        1
176
     1
 40
179.0
176
     1
 90
        8
176
     1
 62
     7
176
     1
 40
1.0
176
     1
 90
        1
176
     1
 90
        6
176
     1
 90
        2
176
     1
 62
     7
176
     1
 90
        3
176
     1
 90
        0
176
     1
 90
        0
176
     1
290
     0
176
     1
 90
        1
176
     1
 40
0.0
176
     1
 90
        0
176
     1
290
     0
176
     1
290
     1
176
     1
290
     1
176
     1
290
     0
176
     1
290
     0
176
     1
290
     0
176
     1
290
     0
176
     1
290
     0
176
     1
290
     0
176
     1
 90
       50
176
     1
 40
0.0
176
     1
 40
1.0
176
     1
 90
        0
176
     1
 62
    18
420
        0
176
     1
 90
       50
176
     1
 90
        3
176
     1
 62
     5
420
      255
176
     1
290
     0
176
     1
 90
       50
176
     1
 90
       50
176
     1
 90
       50
176
     1
290
     0
176
     1
 90
       50
176
     1
 62
   256
176
     0
 40
1.0
176
     0
 90
        2
176
     1
  1
strokes_ogs.tif
176
     1
290
     0
176
     1
 40
1.0
176
     1
 40
1.0
176
     1
  0
VISUALSTYLE
  5
92F
102
{ACAD_REACTORS
330
924
102
}
330
924
100
AcDbVisualStyle
  2
Dim
 70
    11
177
     3
291
     1
 70
    58
 90
        2
176
     1
 90
        2
176
     1
 90
        0
176
     1
 90
        0
176
     1
 40
0.6
176
     1
 40
30.0
176
     1
 62
     7
420
 16777215
176
     1
 90
        1
176
     1
 90
        4
176
     1
 62
     7
176
     1
 62
   257
176
     1
 90
        1
176
     1
 90
        1
176
     1
 40
1.0
176
     1
 90
        8
176
     1
 62
     7
176
     1
 40
1.0
176
     1
 90
        1
176
     1
 90
        6
176
     1
 90
        2
176
     1
 62
     7
176
     1
 90
        5
176
     1
 90
        0
176
     1
 90
        0
176
     1
290
     0
176
     1
 90
        1
176
     1
 40
-50.0
176
     1
 90
        0
176
     1
290
     0
176
     1
290
     1
176
     1
290
     1
176
     1
290
     0
176
     1
290
     0
176
     1
290
     0
176
     1
290
     0
176
     1
290
     0
176
     1
290
     0
176
     1
 90
       50
176
     1
 40
0.0
176
     1
 40
1.0
176
     1
 90
        0
176
     1
 62
    18
420
        0
176
     1
 90
       50
176
     1
 90
        3
176
     1
 62
     5
420
      255
176
     1
290
     0
176
     1
 90
       50
176
     1
 90
       50
176
     1
 90
       50
176
     1
290
     0
176
     1
 90
       50
176
     1
 62
   256
176
     0
 40
1.0
176
     0
 90
        2
176
     1
  1
strokes_ogs.tif
176
     1
290
     0
176
     1
 40
1.0
176
     1
 40
1.0
176
     1
  0
VISUALSTYLE
  5
937
102
{ACAD_REACTORS
330
924
102
}
330
924
100
AcDbVisualStyle
  2
EdgeColorOff
 70
    22
177
     3
291
     1
 70
    58
 90
        2
176
     0
 90
        2
176
     0
 90
        0
176
     0
 90
        0
176
     0
 40
0.6
176
     0
 40
30.0
176
     0
 62
     7
420
 16777215
176
     0
 90
        1
176
     0
 90
        4
176
     0
 62
     7
176
     0
 62
   257
176
     0
 90
        1
176
     0
 90
        1
176
     0
 40
1.0
176
     0
 90
        8
176
     2
 62
     7
176
     0
 40
1.0
176
     0
 90
        1
176
     0
 90
        6
176
     0
 90
        2
176
     0
 62
     7
176
     0
 90
        5
176
     0
 90
        0
176
     0
 90
        0
176
     0
290
     0
176
     0
 90
        1
176
     0
 40
0.0
176
     0
 90
        0
176
     0
290
     0
176
     0
290
     1
176
     0
290
     1
176
     0
290
     0
176
     0
290
     0
176
     0
290
     0
176
     0
290
     0
176
     0
290
     0
176
     0
290
     0
176
     0
 90
       50
176
     0
 40
0.0
176
     0
 40
1.0
176
     0
 90
        0
176
     0
 62
    18
420
        0
176
     0
 90
       50
176
     0
 90
        3
176
     0
 62
     5
420
      255
176
     0
290
     0
176
     0
 90
       50
176
     0
 90
       50
176
     0
 90
       50
176
     0
290
     0
176
     0
 90
       50
176
     0
 62
   256
176
     0
 40
1.0
176
     0
 90
        2
176
     0
  1
strokes_ogs.tif
176
     0
290
     0
176
     0
 40
1.0
176
     0
 40
1.0
176
     0
  0
VISUALSTYLE
  5
933
102
{ACAD_REACTORS
330
924
102
}
330
924
100
AcDbVisualStyle
  2
Facepattern
 70
    15
177
     3
291
     1
 70
    58
 90
        2
176
     1
 90
        2
176
     1
 90
        0
176
     1
 90
        0
176
     1
 40
0.6
176
     1
 40
30.0
176
     1
 62
     7
420
 16777215
176
     1
 90
        1
176
     1
 90
        4
176
     1
 62
     7
176
     1
 62
   257
176
     1
 90
        1
176
     1
 90
        1
176
     1
 40
1.0
176
     1
 90
        8
176
     1
 62
     7
176
     1
 40
1.0
176
     1
 90
        1
176
     1
 90
        6
176
     1
 90
        2
176
     1
 62
     7
176
     1
 90
        5
176
     1
 90
        0
176
     1
 90
        0
176
     1
290
     0
176
     1
 90
        1
176
     1
 40
0.0
176
     1
 90
        0
176
     1
290
     0
176
     1
290
     1
176
     1
290
     1
176
     1
290
     0
176
     1
290
     0
176
     1
290
     0
176
     1
290
     0
176
     1
290
     0
176
     1
290
     0
176
     1
 90
       50
176
     1
 40
0.0
176
     1
 40
1.0
176
     1
 90
        0
176
     1
 62
    18
420
        0
176
     1
 90
       50
176
     1
 90
        3
176
     1
 62
     5
420
      255
176
     1
290
     0
176
     1
 90
       50
176
     1
 90
       50
176
     1
 90
       50
176
     1
290
     0
176
     1
 90
       50
176
     1
 62
   256
176
     0
 40
1.0
176
     0
 90
        2
176
     1
  1
strokes_ogs.tif
176
     1
290
     0
176
     1
 40
1.0
176
     1
 40
1.0
176
     1
  0
VISUALSTYLE
  5
925
102
{ACAD_REACTORS
330
924
102
}
330
924
100
AcDbVisualStyle
  2
Flat
 70
     0
177
     3
291
     1
 70
    58
 90
        2
176
     1
 90
        1
176
     1
 90
        1
176
     1
 90
        2
176
     1
 40
0.6
176
     1
 40
30.0
176
     1
 62
     7
420
 16777215
176
     1
 90
        0
176
     1
 90
        0
176
     1
 62
     7
176
     1
 62
   257
176
     1
 90
        1
176
     1
 90
        1
176
     1
 40
1.0
176
     1
 90
        8
176
     1
 62
     7
176
     1
 40
1.0
176
     1
 90
        1
176
     1
 90
        6
176
     1
 90
        2
176
     1
 62
     7
176
     1
 90
        5
176
     1
 90
        0
176
     1
 90
        0
176
     1
290
     0
176
     1
 90
       13
176
     1
 40
0.0
176
     1
 90
        0
176
     1
290
     0
176
     1
290
     1
176
     1
290
     1
176
     1
290
     0
176
     1
290
     0
176
     1
290
     0
176
     1
290
     0
176
     1
290
     0
176
     1
290
     0
176
     1
 90
       50
176
     1
 40
0.0
176
     1
 40
1.0
176
     1
 90
        0
176
     1
 62
    18
420
        0
176
     1
 90
       50
176
     1
 90
        3
176
     1
 62
     5
420
      255
176
     1
290
     0
176
     1
 90
       50
176
     1
 90
       50
176
     1
 90
       50
176
     1
290
     0
176
     1
 90
       50
176
     1
 62
   256
176
     0
 40
1.0
176
     0
 90
        2
176
     1
  1
strokes_ogs.tif
176
     1
290
     0
176
     1
 40
1.0
176
     1
 40
1.0
176
     1
  0
VISUALSTYLE
  5
926
102
{ACAD_REACTORS
330
924
102
}
330
924
100
AcDbVisualStyle
  2
FlatWithEdges
 70
     1
177
     3
291
     1
 70
    58
 90
        2
176
     1
 90
        1
176
     1
 90
        1
176
     1
 90
        2
176
     1
 40
0.6
176
     1
 40
30.0
176
     1
 62
     7
420
 16777215
176
     1
 90
        1
176
     1
 90
        0
176
     1
 62
     7
176
     1
 62
   257
176
     1
 90
        1
176
     1
 90
        1
176
     1
 40
1.0
176
     1
 90
        0
176
     1
 62
   257
176
     1
 40
1.0
176
     1
 90
        1
176
     1
 90
        6
176
     1
 90
        2
176
     1
 62
     7
176
     1
 90
        5
176
     1
 90
        0
176
     1
 90
        0
176
     1
290
     0
176
     1
 90
       13
176
     1
 40
0.0
176
     1
 90
        0
176
     1
290
     0
176
     1
290
     1
176
     1
290
     1
176
     1
290
     0
176
     1
290
     0
176
     1
290
     0
176
     1
290
     0
176
     1
290
     0
176
     1
290
     0
176
     1
 90
       50
176
     1
 40
0.0
176
     1
 40
1.0
176
     1
 90
        0
176
     1
 62
    18
420
        0
176
     1
 90
       50
176
     1
 90
        3
176
     1
 62
     5
420
      255
176
     1
290
     0
176
     1
 90
       50
176
     1
 90
       50
176
     1
 90
       50
176
     1
290
     0
176
     1
 90
       50
176
     1
 62
   256
176
     0
 40
1.0
176
     0
 90
        2
176
     1
  1
strokes_ogs.tif
176
     1
290
     0
176
     1
 40
1.0
176
     1
 40
1.0
176
     1
  0
VISUALSTYLE
  5
927
102
{ACAD_REACTORS
330
924
102
}
330
924
100
AcDbVisualStyle
  2
Gouraud
 70
     2
177
     3
291
     1
 70
    58
 90
        2
176
     1
 90
        2
176
     1
 90
        1
176
     1
 90
        2
176
     1
 40
0.6
176
     1
 40
30.0
176
     1
 62
     7
420
 16777215
176
     1
 90
        0
176
     1
 90
        0
176
     1
 62
     7
176
     1
 62
   257
176
     1
 90
        1
176
     1
 90
        1
176
     1
 40
1.0
176
     1
 90
        0
176
     1
 62
     7
176
     1
 40
1.0
176
     1
 90
        1
176
     1
 90
        6
176
     1
 90
        2
176
     1
 62
     7
176
     1
 90
        5
176
     1
 90
        0
176
     1
 90
        0
176
     1
290
     0
176
     1
 90
       13
176
     1
 40
0.0
176
     1
 90
        0
176
     1
290
     0
176
     1
290
     1
176
     1
290
     1
176
     1
290
     0
176
     1
290
     0
176
     1
290
     0
176
     1
290
     0
176
     1
290
     0
176
     1
290
     0
176
     1
 90
       50
176
     1
 40
0.0
176
     1
 40
1.0
176
     1
 90
        0
176
     1
 62
    18
420
        0
176
     1
 90
       50
176
     1
 90
        3
176
     1
 62
     5
420
      255
176
     1
290
     0
176
     1
 90
       50
176
     1
 90
       50
176
     1
 90
       50
176
     1
290
     0
176
     1
 90
       50
176
     1
 62
   256
176
     0
 40
1.0
176
     0
 90
        2
176
     1
  1
strokes_ogs.tif
176
     1
290
     0
176
     1
 40
1.0
176
     1
 40
1.0
176
     1
  0
VISUALSTYLE
  5
928
102
{ACAD_REACTORS
330
924
102
}
330
924
100
AcDbVisualStyle
  2
GouraudWithEdges
 70
     3
177
     3
291
     1
 70
    58
 90
        2
176
     1
 90
        2
176
     1
 90
        1
176
     1
 90
        2
176
     1
 40
0.6
176
     1
 40
30.0
176
     1
 62
     7
420
 16777215
176
     1
 90
        1
176
     1
 90
        0
176
     1
 62
     7
176
     1
 62
   257
176
     1
 90
        1
176
     1
 90
        1
176
     1
 40
1.0
176
     1
 90
        0
176
     1
 62
   257
176
     1
 40
1.0
176
     1
 90
        1
176
     1
 90
        6
176
     1
 90
        2
176
     1
 62
     7
176
     1
 90
        5
176
     1
 90
        0
176
     1
 90
        0
176
     1
290
     0
176
     1
 90
       13
176
     1
 40
0.0
176
     1
 90
        0
176
     1
290
     0
176
     1
290
     1
176
     1
290
     1
176
     1
290
     0
176
     1
290
     0
176
     1
290
     0
176
     1
290
     0
176
     1
290
     0
176
     1
290
     0
176
     1
 90
       50
176
     1
 40
0.0
176
     1
 40
1.0
176
     1
 90
        0
176
     1
 62
    18
420
        0
176
     1
 90
       50
176
     1
 90
        3
176
     1
 62
     5
420
      255
176
     1
290
     0
176
     1
 90
       50
176
     1
 90
       50
176
     1
 90
       50
176
     1
290
     0
176
     1
 90
       50
176
     1
 62
   256
176
     0
 40
1.0
176
     0
 90
        2
176
     1
  1
strokes_ogs.tif
176
     1
290
     0
176
     1
 40
1.0
176
     1
 40
1.0
176
     1
  0
VISUALSTYLE
  5
92B
102
{ACAD_REACTORS
330
924
102
}
330
924
100
AcDbVisualStyle
  2
Hidden
 70
     6
177
     3
291
     0
 70
    58
 90
        1
176
     1
 90
        2
176
     1
 90
        2
176
     1
 90
        0
176
     1
 40
0.6
176
     1
 40
30.0
176
     1
 62
     7
420
 16777215
176
     1
 90
        2
176
     1
 90
        2
176
     1
 62
     7
176
     1
 62
   257
176
     1
 90
        2
176
     1
 90
        1
176
     1
 40
40.0
176
     1
 90
        0
176
     1
 62
   257
176
     1
 40
1.0
176
     1
 90
        1
176
     1
 90
        6
176
     1
 90
        2
176
     1
 62
     7
176
     1
 90
        3
176
     1
 90
        0
176
     1
 90
        0
176
     1
290
     0
176
     1
 90
        1
176
     1
 40
0.0
176
     1
 90
        0
176
     1
290
     0
176
     1
290
     1
176
     1
290
     1
176
     1
290
     0
176
     1
290
     0
176
     1
290
     0
176
     1
290
     0
176
     1
290
     0
176
     1
290
     0
176
     1
 90
       50
176
     1
 40
0.0
176
     1
 40
1.0
176
     1
 90
        0
176
     1
 62
    18
420
        0
176
     1
 90
       50
176
     1
 90
        3
176
     1
 62
     5
420
      255
176
     1
290
     0
176
     1
 90
       50
176
     1
 90
       50
176
     1
 90
       50
176
     1
290
     0
176
     1
 90
       50
176
     1
 62
   256
176
     0
 40
1.0
176
     0
 90
        2
176
     1
  1
strokes_ogs.tif
176
     1
290
     0
176
     1
 40
1.0
176
     1
 40
1.0
176
     1
  0
VISUALSTYLE
  5
935
102
{ACAD_REACTORS
330
924
102
}
330
924
100
AcDbVisualStyle
  2
JitterOff
 70
    20
177
     3
291
     1
 70
    58
 90
        2
176
     0
 90
        2
176
     0
 90
        0
176
     0
 90
        0
176
     0
 40
0.6
176
     0
 40
30.0
176
     0
 62
     7
420
 16777215
176
     0
 90
        1
176
     0
 90
        4
176
     0
 62
     7
176
     0
 62
   257
176
     0
 90
        1
176
     0
 90
        1
176
     0
 40
1.0
176
     0
 90
       10
176
     2
 62
     7
176
     0
 40
1.0
176
     0
 90
        1
176
     0
 90
        6
176
     0
 90
        2
176
     0
 62
     7
176
     0
 90
        5
176
     0
 90
        0
176
     0
 90
        0
176
     0
290
     0
176
     0
 90
        1
176
     0
 40
0.0
176
     0
 90
        0
176
     0
290
     0
176
     0
290
     1
176
     0
290
     1
176
     0
290
     0
176
     0
290
     0
176
     0
290
     0
176
     0
290
     0
176
     0
290
     0
176
     0
290
     0
176
     0
 90
       50
176
     0
 40
0.0
176
     0
 40
1.0
176
     0
 90
        0
176
     0
 62
    18
420
        0
176
     0
 90
       50
176
     0
 90
        3
176
     0
 62
     5
420
      255
176
     0
290
     0
176
     0
 90
       50
176
     0
 90
       50
176
     0
 90
       50
176
     0
290
     0
176
     0
 90
       50
176
     0
 62
   256
176
     0
 40
1.0
176
     0
 90
        2
176
     0
  1
strokes_ogs.tif
176
     0
290
     0
176
     0
 40
1.0
176
     0
 40
1.0
176
     0
  0
VISUALSTYLE
  5
932
102
{ACAD_REACTORS
330
924
102
}
330
924
100
AcDbVisualStyle
  2
Linepattern
 70
    14
177
     3
291
     1
 70
    58
 90
        2
176
     1
 90
        2
176
     1
 90
        0
176
     1
 90
        0
176
     1
 40
0.6
176
     1
 40
30.0
176
     1
 62
     7
420
 16777215
176
     1
 90
        1
176
     1
 90
        4
176
     1
 62
     7
176
     1
 62
   257
176
     1
 90
        7
176
     1
 90
        7
176
     1
 40
1.0
176
     1
 90
        8
176
     1
 62
     7
176
     1
 40
1.0
176
     1
 90
        1
176
     1
 90
        6
176
     1
 90
        2
176
     1
 62
     7
176
     1
 90
        5
176
     1
 90
        0
176
     1
 90
        0
176
     1
290
     0
176
     1
 90
        1
176
     1
 40
0.0
176
     1
 90
        0
176
     1
290
     0
176
     1
290
     1
176
     1
290
     1
176
     1
290
     0
176
     1
290
     0
176
     1
290
     0
176
     1
290
     0
176
     1
290
     0
176
     1
290
     0
176
     1
 90
       50
176
     1
 40
0.0
176
     1
 40
1.0
176
     1
 90
        0
176
     1
 62
    18
420
        0
176
     1
 90
       50
176
     1
 90
        3
176
     1
 62
     5
420
      255
176
     1
290
     0
176
     1
 90
       50
176
     1
 90
       50
176
     1
 90
       50
176
     1
290
     0
176
     1
 90
       50
176
     1
 62
   256
176
     0
 40
1.0
176
     0
 90
        2
176
     1
  1
strokes_ogs.tif
176
     1
290
     0
176
     1
 40
1.0
176
     1
 40
1.0
176
     1
  0
VISUALSTYLE
  5
936
102
{ACAD_REACTORS
330
924
102
}
330
924
100
AcDbVisualStyle
  2
OverhangOff
 70
    21
177
     3
291
     1
 70
    58
 90
        2
176
     0
 90
        2
176
     0
 90
        0
176
     0
 90
        0
176
     0
 40
0.6
176
     0
 40
30.0
176
     0
 62
     7
420
 16777215
176
     0
 90
        1
176
     0
 90
        4
176
     0
 62
     7
176
     0
 62
   257
176
     0
 90
        1
176
     0
 90
        1
176
     0
 40
1.0
176
     0
 90
        9
176
     2
 62
     7
176
     0
 40
1.0
176
     0
 90
        1
176
     0
 90
        6
176
     0
 90
        2
176
     0
 62
     7
176
     0
 90
        5
176
     0
 90
        0
176
     0
 90
        0
176
     0
290
     0
176
     0
 90
        1
176
     0
 40
0.0
176
     0
 90
        0
176
     0
290
     0
176
     0
290
     1
176
     0
290
     1
176
     0
290
     0
176
     0
290
     0
176
     0
290
     0
176
     0
290
     0
176
     0
290
     0
176
     0
290
     0
176
     0
 90
       50
176
     0
 40
0.0
176
     0
 40
1.0
176
     0
 90
        0
176
     0
 62
    18
420
        0
176
     0
 90
       50
176
     0
 90
        3
176
     0
 62
     5
420
      255
176
     0
290
     0
176
     0
 90
       50
176
     0
 90
       50
176
     0
 90
       50
176
     0
290
     0
176
     0
 90
       50
176
     0
 62
   256
176
     0
 40
1.0
176
     0
 90
        2
176
     0
  1
strokes_ogs.tif
176
     0
290
     0
176
     0
 40
1.0
176
     0
 40
1.0
176
     0
  0
VISUALSTYLE
  5
92D
102
{ACAD_REACTORS
330
924
102
}
330
924
100
AcDbVisualStyle
  2
Realistic
 70
     8
177
     3
291
     0
 70
    58
 90
        2
176
     1
 90
        3
176
     1
 90
        0
176
     1
 90
        2
176
     1
 40
0.6
176
     1
 40
30.0
176
     1
 62
     7
420
 16777215
176
     1
 90
        0
176
     1
 90
        0
176
     1
 62
     7
176
     1
 62
   257
176
     1
 90
        1
176
     1
 90
        1
176
     1
 40
1.0
176
     1
 90
        8
176
     1
 62
   257
176
     1
 40
1.0
176
     1
 90
        1
176
     1
 90
        6
176
     1
 90
        2
176
     1
 62
     7
176
     1
 90
        3
176
     1
 90
        0
176
     1
 90
        0
176
     1
290
     0
176
     1
 90
       13
176
     1
 40
0.0
176
     1
 90
        0
176
     1
290
     0
176
     1
290
     1
176
     1
290
     1
176
     1
290
     0
176
     1
290
     0
176
     1
290
     0
176
     1
290
     0
176
     1
290
     0
176
     1
290
     0
176
     1
 90
       50
176
     1
 40
0.0
176
     1
 40
1.0
176
     1
 90
        0
176
     1
 62
    18
420
        0
176
     1
 90
       50
176
     1
 90
        3
176
     1
 62
     5
420
      255
176
     1
290
     0
176
     1
 90
       50
176
     1
 90
       50
176
     1
 90
       50
176
     1
290
     0
176
     1
 90
       50
176
     1
 62
   256
176
     0
 40
1.0
176
     0
 90
        2
176
     1
  1
strokes_ogs.tif
176
     1
290
     0
176
     1
 40
1.0
176
     1
 40
1.0
176
     1
  0
VISUALSTYLE
  5
93C
102
{ACAD_REACTORS
330
924
102
}
330
924
100
AcDbVisualStyle
  2
Shaded
 70
    27
177
     3
291
     0
 70
    58
 90
        2
176
     1
 90
        2
176
     1
 90
        1
176
     1
 90
        2
176
     1
 40
0.6
176
     1
 40
30.0
176
     1
 62
     7
420
 16777215
176
     1
 90
        0
176
     1
 90
        4
176
     1
 62
     7
176
     1
 62
   257
176
     1
 90
        1
176
     1
 90
        1
176
     1
 40
1.0
176
     1
 90
        8
176
     1
 62
   257
176
     1
 40
1.0
176
     1
 90
        1
176
     1
 90
        6
176
     1
 90
        2
176
     1
 62
     8
420
  7895160
176
     1
 90
        3
176
     1
 90
        0
176
     1
 90
        0
176
     1
290
     0
176
     1
 90
        5
176
     1
 40
0.0
176
     1
 90
        0
176
     1
290
     0
176
     1
290
     1
176
     1
290
     1
176
     1
290
     0
176
     1
290
     0
176
     1
290
     0
176
     1
290
     0
176
     1
290
     0
176
     1
290
     0
176
     1
 90
       50
176
     1
 40
0.0
176
     1
 40
1.0
176
     1
 90
        0
176
     1
 62
    18
420
        0
176
     1
 90
       50
176
     1
 90
        3
176
     1
 62
     5
420
      255
176
     1
290
     0
176
     1
 90
       50
176
     1
 90
       50
176
     1
 90
       50
176
     1
290
     0
176
     1
 90
       50
176
     1
 62
   256
176
     0
 40
1.0
176
     0
 90
        2
176
     1
  1
strokes_ogs.tif
176
     1
290
     0
176
     1
 40
1.0
176
     1
 40
1.0
176
     1
  0
VISUALSTYLE
  5
93B
102
{ACAD_REACTORS
330
924
102
}
330
924
100
AcDbVisualStyle
  2
Shaded with edges
 70
    26
177
     3
291
     0
 70
    58
 90
        2
176
     1
 90
        2
176
     1
 90
        1
176
     1
 90
        2
176
     1
 40
0.6
176
     1
 40
30.0
176
     1
 62
     7
420
 16777215
176
     1
 90
        1
176
     1
 90
       10
176
     1
 62
     7
176
     1
 62
   257
176
     1
 90
        2
176
     1
 90
        1
176
     1
 40
1.0
176
     1
 90
        8
176
     1
 62
   257
176
     1
 40
1.0
176
     1
 90
        1
176
     1
 90
        6
176
     1
 90
        2
176
     1
 62
     7
176
     1
 90
        3
176
     1
 90
        0
176
     1
 90
        0
176
     1
290
     0
176
     1
 90
        5
176
     1
 40
0.0
176
     1
 90
        0
176
     1
290
     0
176
     1
290
     1
176
     1
290
     1
176
     1
290
     0
176
     1
290
     0
176
     1
290
     0
176
     1
290
     0
176
     1
290
     0
176
     1
290
     0
176
     1
 90
       50
176
     1
 40
0.0
176
     1
 40
1.0
176
     1
 90
        0
176
     1
 62
    18
420
        0
176
     1
 90
       50
176
     1
 90
        3
176
     1
 62
     5
420
      255
176
     1
290
     0
176
     1
 90
       50
176
     1
 90
       50
176
     1
 90
       50
176
     1
290
     0
176
     1
 90
       50
176
     1
 62
   256
176
     0
 40
1.0
176
     0
 90
        2
176
     1
  1
strokes_ogs.tif
176
     1
290
     0
176
     1
 40
1.0
176
     1
 40
1.0
176
     1
  0
VISUALSTYLE
  5
938
102
{ACAD_REACTORS
330
924
102
}
330
924
100
AcDbVisualStyle
  2
Shades of Gray
 70
    23
177
     3
291
     0
 70
    58
 90
        2
176
     1
 90
        2
176
     1
 90
        3
176
     1
 90
        0
176
     1
 40
0.6
176
     1
 40
30.0
176
     1
 62
     7
420
 16777215
176
     1
 90
        2
176
     1
 90
        2
176
     1
 62
     7
176
     1
 62
     7
176
     1
 90
        1
176
     1
 90
        1
176
     1
 40
40.0
176
     1
 90
        8
176
     1
 62
     7
176
     1
 40
1.0
176
     1
 90
        1
176
     1
 90
        6
176
     1
 90
        2
176
     1
 62
     7
176
     1
 90
        3
176
     1
 90
        0
176
     1
 90
        0
176
     1
290
     0
176
     1
 90
        1
176
     1
 40
0.0
176
     1
 90
        0
176
     1
290
     0
176
     1
290
     1
176
     1
290
     1
176
     1
290
     0
176
     1
290
     0
176
     1
290
     0
176
     1
290
     0
176
     1
290
     0
176
     1
290
     0
176
     1
 90
       50
176
     1
 40
0.0
176
     1
 40
1.0
176
     1
 90
        0
176
     1
 62
    18
420
        0
176
     1
 90
       50
176
     1
 90
        3
176
     1
 62
     5
420
      255
176
     1
290
     0
176
     1
 90
       50
176
     1
 90
       50
176
     1
 90
       50
176
     1
290
     0
176
     1
 90
       50
176
     1
 62
   256
176
     0
 40
1.0
176
     0
 90
        2
176
     1
  1
strokes_ogs.tif
176
     1
290
     0
176
     1
 40
1.0
176
     1
 40
1.0
176
     1
  0
VISUALSTYLE
  5
939
102
{ACAD_REACTORS
330
924
102
}
330
924
100
AcDbVisualStyle
  2
Sketchy
 70
    24
177
     3
291
     0
 70
    58
 90
        1
176
     1
 90
        2
176
     1
 90
        2
176
     1
 90
        0
176
     1
 40
0.6
176
     1
 40
30.0
176
     1
 62
     7
420
 16777215
176
     1
 90
        2
176
     1
 90
        2
176
     1
 62
     7
176
     1
 62
     7
176
     1
 90
        1
176
     1
 90
        1
176
     1
 40
40.0
176
     1
 90
       11
176
     1
 62
     7
176
     1
 40
1.0
176
     1
 90
        1
176
     1
 90
        6
176
     1
 90
        2
176
     1
 62
     7
176
     1
 90
        6
176
     1
 90
        0
176
     1
 90
        0
176
     1
290
     0
176
     1
 90
        1
176
     1
 40
0.0
176
     1
 90
        0
176
     1
290
     0
176
     1
290
     1
176
     1
290
     1
176
     1
290
     0
176
     1
290
     0
176
     1
290
     0
176
     1
290
     0
176
     1
290
     0
176
     1
290
     0
176
     1
 90
       50
176
     1
 40
0.0
176
     1
 40
1.0
176
     1
 90
        0
176
     1
 62
    18
420
        0
176
     1
 90
       50
176
     1
 90
        3
176
     1
 62
     5
420
      255
176
     1
290
     0
176
     1
 90
       50
176
     1
 90
       50
176
     1
 90
       50
176
     1
290
     0
176
     1
 90
       50
176
     1
 62
   256
176
     0
 40
1.0
176
     0
 90
        2
176
     1
  1
strokes_ogs.tif
176
     1
290
     0
176
     1
 40
1.0
176
     1
 40
1.0
176
     1
  0
VISUALSTYLE
  5
931
102
{ACAD_REACTORS
330
924
102
}
330
924
100
AcDbVisualStyle
  2
Thicken
 70
    13
177
     3
291
     1
 70
    58
 90
        2
176
     1
 90
        2
176
     1
 90
        0
176
     1
 90
        0
176
     1
 40
0.6
176
     1
 40
30.0
176
     1
 62
     7
420
 16777215
176
     1
 90
        1
176
     1
 90
        4
176
     1
 62
     7
176
     1
 62
   257
176
     1
 90
        1
176
     1
 90
        1
176
     1
 40
1.0
176
     1
 90
       12
176
     1
 62
     7
176
     1
 40
1.0
176
     1
 90
        1
176
     1
 90
        6
176
     1
 90
        2
176
     1
 62
     7
176
     1
 90
        5
176
     1
 90
        0
176
     1
 90
        0
176
     1
290
     0
176
     1
 90
        1
176
     1
 40
0.0
176
     1
 90
        0
176
     1
290
     0
176
     1
290
     1
176
     1
290
     1
176
     1
290
     0
176
     1
290
     0
176
     1
290
     0
176
     1
290
     0
176
     1
290
     0
176
     1
290
     0
176
     1
 90
       50
176
     1
 40
0.0
176
     1
 40
1.0
176
     1
 90
        0
176
     1
 62
    18
420
        0
176
     1
 90
       50
176
     1
 90
        3
176
     1
 62
     5
420
      255
176
     1
290
     0
176
     1
 90
       50
176
     1
 90
       50
176
     1
 90
       50
176
     1
290
     0
176
     1
 90
       50
176
     1
 62
   256
176
     0
 40
1.0
176
     0
 90
        2
176
     1
  1
strokes_ogs.tif
176
     1
290
     0
176
     1
 40
1.0
176
     1
 40
1.0
176
     1
  0
VISUALSTYLE
  5
92A
102
{ACAD_REACTORS
330
924
102
}
330
924
100
AcDbVisualStyle
  2
Wireframe
 70
     5
177
     3
291
     0
 70
    58
 90
        0
176
     1
 90
        2
176
     1
 90
        0
176
     1
 90
        0
176
     1
 40
0.6
176
     1
 40
30.0
176
     1
 62
     7
420
 16777215
176
     1
 90
        1
176
     1
 90
        4
176
     1
 62
     7
176
     1
 62
   257
176
     1
 90
        1
176
     1
 90
        1
176
     1
 40
1.0
176
     1
 90
        0
176
     1
 62
   257
176
     1
 40
1.0
176
     1
 90
        1
176
     1
 90
        6
176
     1
 90
        2
176
     1
 62
     7
176
     1
 90
        3
176
     1
 90
        0
176
     1
 90
        0
176
     1
290
     0
176
     1
 90
        1
176
     1
 40
0.0
176
     1
 90
        0
176
     1
290
     0
176
     1
290
     1
176
     1
290
     1
176
     1
290
     0
176
     1
290
     0
176
     1
290
     0
176
     1
290
     0
176
     1
290
     0
176
     1
290
     0
176
     1
 90
       50
176
     1
 40
0.0
176
     1
 40
1.0
176
     1
 90
        0
176
     1
 62
    18
420
        0
176
     1
 90
       50
176
     1
 90
        3
176
     1
 62
     5
420
      255
176
     1
290
     0
176
     1
 90
       50
176
     1
 90
       50
176
     1
 90
       50
176
     1
290
     0
176
     1
 90
       50
176
     1
 62
   256
176
     0
 40
1.0
176
     0
 90
        2
176
     1
  1
strokes_ogs.tif
176
     1
290
     0
176
     1
 40
1.0
176
     1
 40
1.0
176
     1
  0
VISUALSTYLE
  5
93A
102
{ACAD_REACTORS
330
924
102
}
330
924
100
AcDbVisualStyle
  2
X-Ray
 70
    25
177
     3
291
     0
 70
    58
 90
        2
176
     1
 90
        2
176
     1
 90
        1
176
     1
 90
        1
176
     1
 40
0.5
176
     1
 40
30.0
176
     1
 62
     7
420
 16777215
176
     1
 90
        1
176
     1
 90
        0
176
     1
 62
     7
176
     1
 62
   257
176
     1
 90
        1
176
     1
 90
        1
176
     1
 40
1.0
176
     1
 90
        8
176
     1
 62
     7
176
     1
 40
1.0
176
     1
 90
        1
176
     1
 90
        6
176
     1
 90
        2
176
     1
 62
     7
176
     1
 90
        3
176
     1
 90
        0
176
     1
 90
        0
176
     1
290
     0
176
     1
 90
       13
176
     1
 40
0.0
176
     1
 90
        0
176
     1
290
     0
176
     1
290
     1
176
     1
290
     1
176
     1
290
     0
176
     1
290
     0
176
     1
290
     0
176
     1
290
     0
176
     1
290
     0
176
     1
290
     0
176
     1
 90
       50
176
     1
 40
0.0
176
     1
 40
1.0
176
     1
 90
        0
176
     1
 62
    18
420
        0
176
     1
 90
       50
176
     1
 90
        3
176
     1
 62
     5
420
      255
176
     1
290
     0
176
     1
 90
       50
176
     1
 90
       50
176
     1
 90
       50
176
     1
290
     0
176
     1
 90
       50
176
     1
 62
   256
176
     0
 40
1.0
176
     0
 90
        2
176
     1
  1
strokes_ogs.tif
176
     1
290
     0
176
     1
 40
1.0
176
     1
 40
1.0
176
     1
  0
DICTIONARYVAR
  5
A53
102
{ACAD_REACTORS
330
A52
102
}
330
A52
100
DictionaryVariables
280
     0
  1
1:1
  0
DICTIONARYVAR
  5
A58
102
{ACAD_REACTORS
330
A52
102
}
330
A52
100
DictionaryVariables
280
     0
  1
Standard
  0
DICTIONARYVAR
  5
A57
102
{ACAD_REACTORS
330
A52
102
}
330
A52
100
DictionaryVariables
280
     0
  1
Standard
  0
XRECORD
  5
96B
102
{ACAD_REACTORS
330
969
102
}
330
969
100
AcDbXrecord
280
     1
290
     1
  0
XRECORD
  5
96C
102
{ACAD_REACTORS
330
969
102
}
330
969
100
AcDbXrecord
280
     1
290
     1
  0
XRECORD
  5
96D
102
{ACAD_REACTORS
330
969
102
}
330
969
100
AcDbXrecord
280
     1
290
     1
  0
XRECORD
  5
96E
102
{ACAD_REACTORS
330
969
102
}
330
969
100
AcDbXrecord
280
     1
290
     1
  0
XRECORD
  5
96F
102
{ACAD_REACTORS
330
969
102
}
330
969
100
AcDbXrecord
280
     1
1000
auto
  0
XRECORD
  5
970
102
{ACAD_REACTORS
330
969
102
}
330
969
100
AcDbXrecord
280
     1
1000
auto
  0
XRECORD
  5
971
102
{ACAD_REACTORS
330
969
102
}
330
969
100
AcDbXrecord
280
     1
1000
auto
  0
XRECORD
  5
972
102
{ACAD_REACTORS
330
969
102
}
330
969
100
AcDbXrecord
280
     1
1000
auto
  0
XRECORD
  5
973
102
{ACAD_REACTORS
330
969
102
}
330
969
100
AcDbXrecord
280
     1
1000
auto
  0
XRECORD
  5
974
102
{ACAD_REACTORS
330
969
102
}
330
969
100
AcDbXrecord
280
     1
1000
auto
  0
XRECORD
  5
975
102
{ACAD_REACTORS
330
969
102
}
330
969
100
AcDbXrecord
280
     1
1000
auto
  0
XRECORD
  5
976
102
{ACAD_REACTORS
330
969
102
}
330
969
100
AcDbXrecord
280
     1
1000
auto
  0
XRECORD
  5
977
102
{ACAD_REACTORS
330
969
102
}
330
969
100
AcDbXrecord
280
     1
290
     0
  0
XRECORD
  5
978
102
{ACAD_REACTORS
330
969
102
}
330
969
100
AcDbXrecord
280
     1
290
     0
  0
XRECORD
  5
979
102
{ACAD_REACTORS
330
969
102
}
330
969
100
AcDbXrecord
280
     1
290
     0
  0
XRECORD
  5
97A
102
{ACAD_REACTORS
330
969
102
}
330
969
100
AcDbXrecord
280
     1
290
     0
  0
XRECORD
  5
97B
102
{ACAD_REACTORS
330
969
102
}
330
969
100
AcDbXrecord
280
     1
 90
        0
  0
XRECORD
  5
97C
102
{ACAD_REACTORS
330
969
102
}
330
969
100
AcDbXrecord
280
     1
 90
        0
  0
XRECORD
  5
97D
102
{ACAD_REACTORS
330
969
102
}
330
969
100
AcDbXrecord
280
     1
 90
        0
  0
XRECORD
  5
97E
102
{ACAD_REACTORS
330
969
102
}
330
969
100
AcDbXrecord
280
     1
 90
        0
  0
XRECORD
  5
97F
102
{ACAD_REACTORS
330
969
102
}
330
969
100
AcDbXrecord
280
     1
1000
auto
  0
XRECORD
  5
980
102
{ACAD_REACTORS
330
969
102
}
330
969
100
AcDbXrecord
280
     1
1000
auto
  0
XRECORD
  5
981
102
{ACAD_REACTORS
330
969
102
}
330
969
100
AcDbXrecord
280
     1
1000
auto
  0
XRECORD
  5
982
102
{ACAD_REACTORS
330
969
102
}
330
969
100
AcDbXrecord
280
     1
1000
auto
  0
XRECORD
  5
983
102
{ACAD_REACTORS
330
969
102
}
330
969
100
AcDbXrecord
280
     1
1000
auto
  0
XRECORD
  5
984
102
{ACAD_REACTORS
330
969
102
}
330
969
100
AcDbXrecord
280
     1
1000
auto
  0
XRECORD
  5
985
102
{ACAD_REACTORS
330
969
102
}
330
969
100
AcDbXrecord
280
     1
1000
auto
  0
XRECORD
  5
986
102
{ACAD_REACTORS
330
969
102
}
330
969
100
AcDbXrecord
280
     1
1000
auto
  0
XRECORD
  5
987
102
{ACAD_REACTORS
330
969
102
}
330
969
100
AcDbXrecord
280
     1
 90
        1
  0
XRECORD
  5
988
102
{ACAD_REACTORS
330
969
102
}
330
969
100
AcDbXrecord
280
     1
 40
10.0
  0
XRECORD
  5
989
102
{ACAD_REACTORS
330
969
102
}
330
969
100
AcDbXrecord
280
     1
 40
10.0
  0
XRECORD
  5
98A
102
{ACAD_REACTORS
330
969
102
}
330
969
100
AcDbXrecord
280
     1
 40
10.0
  0
XRECORD
  5
98B
102
{ACAD_REACTORS
330
969
102
}
330
969
100
AcDbXrecord
280
     1
 40
10.0
  0
XRECORD
  5
98C
102
{ACAD_REACTORS
330
969
102
}
330
969
100
AcDbXrecord
280
     1
290
     0
  0
XRECORD
  5
98D
102
{ACAD_REACTORS
330
969
102
}
330
969
100
AcDbXrecord
280
     1
 90
        1
  0
XRECORD
  5
98E
102
{ACAD_REACTORS
330
969
102
}
330
969
100
AcDbXrecord
280
     1
 40
0.0
  0
XRECORD
  5
98F
102
{ACAD_REACTORS
330
969
102
}
330
969
100
AcDbXrecord
280
     1
 40
0.0
  0
XRECORD
  5
990
102
{ACAD_REACTORS
330
969
102
}
330
969
100
AcDbXrecord
280
     1
1000
Portrait
  0
XRECORD
  5
991
102
{ACAD_REACTORS
330
969
102
}
330
969
100
AcDbXrecord
280
     1
 40
297.0
  0
XRECORD
  5
992
102
{ACAD_REACTORS
330
969
102
}
330
969
100
AcDbXrecord
280
     1
 40
210.0
  0
XRECORD
  5
993
102
{ACAD_REACTORS
330
969
102
}
330
969
100
AcDbXrecord
280
     1
1000
1:1
  0
XRECORD
  5
994
102
{ACAD_REACTORS
330
969
102
}
330
969
100
AcDbXrecord
280
     1
290
     1
  0
XRECORD
  5
96A
102
{ACAD_REACTORS
330
969
102
}
330
969
100
AcDbXrecord
280
     1
1000
3.7.5
  0
XRECORD
  5
995
102
{ACAD_REACTORS
330
969
102
}
330
969
100
AcDbXrecord
280
     1
 90
        4
  0
DICTIONARY
  5
A54
330
964
100
AcDbDictionary
280
     1
281
     1
  3
ACAD_ROUNDTRIP_2008_TABLESTYLE_CELLSTYLEMAP
360
A55
  0
CELLSTYLEMAP
  5
A55
102
{ACAD_REACTORS
330
A54
102
}
330
A54
100
AcDbCellStyleMap
 90
        3
300
CELLSTYLE
  1
TABLEFORMAT_BEGIN
 90
        5
170
     1
 91
        0
 92
    32768
 62
   257
 93
        1
300
CONTENTFORMAT
  1
CONTENTFORMAT_BEGIN
 90
        0
 91
        0
 92
        4
 93
        0
300

 40
0.0
140
1.0
 94
        5
 62
     0
340
90C
144
0.25
309
CONTENTFORMAT_END
171
     1
301
MARGIN
  1
CELLMARGIN_BEGIN
 40
0.06
 40
0.06
 40
0.06
 40
0.06
 40
0.06
 40
0.06
309
CELLMARGIN_END
 94
        6
 95
        1
302
GRIDFORMAT
  1
GRIDFORMAT_BEGIN
 90
        0
 91
        1
 62
     0
 92
       -2
340
90E
 93
        0
 40
0.045
309
GRIDFORMAT_END
 95
        2
302
GRIDFORMAT
  1
GRIDFORMAT_BEGIN
 90
        0
 91
        1
 62
     0
 92
       -2
340
90E
 93
        0
 40
0.045
309
GRIDFORMAT_END
 95
        4
302
GRIDFORMAT
  1
GRIDFORMAT_BEGIN
 90
        0
 91
        1
 62
     0
 92
       -2
340
90E
 93
        0
 40
0.045
309
GRIDFORMAT_END
 95
        8
302
GRIDFORMAT
  1
GRIDFORMAT_BEGIN
 90
        0
 91
        1
 62
     0
 92
       -2
340
90E
 93
        0
 40
0.045
309
GRIDFORMAT_END
 95
       16
302
GRIDFORMAT
  1
GRIDFORMAT_BEGIN
 90
        0
 91
        1
 62
     0
 92
       -2
340
90E
 93
        0
 40
0.045
309
GRIDFORMAT_END
 95
       32
302
GRIDFORMAT
  1
GRIDFORMAT_BEGIN
 90
        0
 91
        1
 62
     0
 92
       -2
340
90E
 93
        0
 40
0.045
309
GRIDFORMAT_END
309
TABLEFORMAT_END
  1
CELLSTYLE_BEGIN
 90
        1
 91
        1
300
_TITLE
309
CELLSTYLE_END
300
CELLSTYLE
  1
TABLEFORMAT_BEGIN
 90
        5
170
     1
 91
        0
 92
        0
 62
   257
 93
        1
300
CONTENTFORMAT
  1
CONTENTFORMAT_BEGIN
 90
        0
 91
        0
 92
        4
 93
        0
300

 40
0.0
140
1.0
 94
        5
 62
     0
340
90C
144
0.18
309
CONTENTFORMAT_END
171
     1
301
MARGIN
  1
CELLMARGIN_BEGIN
 40
0.06
 40
0.06
 40
0.06
 40
0.06
 40
0.06
 40
0.06
309
CELLMARGIN_END
 94
        6
 95
        1
302
GRIDFORMAT
  1
GRIDFORMAT_BEGIN
 90
        0
 91
        1
 62
     0
 92
       -2
340
90E
 93
        0
 40
0.045
309
GRIDFORMAT_END
 95
        2
302
GRIDFORMAT
  1
GRIDFORMAT_BEGIN
 90
        0
 91
        1
 62
     0
 92
       -2
340
90E
 93
        0
 40
0.045
309
GRIDFORMAT_END
 95
        4
302
GRIDFORMAT
  1
GRIDFORMAT_BEGIN
 90
        0
 91
        1
 62
     0
 92
       -2
340
90E
 93
        0
 40
0.045
309
GRIDFORMAT_END
 95
        8
302
GRIDFORMAT
  1
GRIDFORMAT_BEGIN
 90
        0
 91
        1
 62
     0
 92
       -2
340
90E
 93
        0
 40
0.045
309
GRIDFORMAT_END
 95
       16
302
GRIDFORMAT
  1
GRIDFORMAT_BEGIN
 90
        0
 91
        1
 62
     0
 92
       -2
340
90E
 93
        0
 40
0.045
309
GRIDFORMAT_END
 95
       32
302
GRIDFORMAT
  1
GRIDFORMAT_BEGIN
 90
        0
 91
        1
 62
     0
 92
       -2
340
90E
 93
        0
 40
0.045
309
GRIDFORMAT_END
309
TABLEFORMAT_END
  1
CELLSTYLE_BEGIN
 90
        2
 91
        1
300
_HEADER
309
CELLSTYLE_END
300
CELLSTYLE
  1
TABLEFORMAT_BEGIN
 90
        5
170
     1
 91
        0
 92
        0
 62
   257
 93
        1
300
CONTENTFORMAT
  1
CONTENTFORMAT_BEGIN
 90
        0
 91
        0
 92
        4
 93
        0
300

 40
0.0
140
1.0
 94
        2
 62
     0
340
90C
144
0.18
309
CONTENTFORMAT_END
171
     1
301
MARGIN
  1
CELLMARGIN_BEGIN
 40
0.06
 40
0.06
 40
0.06
 40
0.06
 40
0.06
 40
0.06
309
CELLMARGIN_END
 94
        6
 95
        1
302
GRIDFORMAT
  1
GRIDFORMAT_BEGIN
 90
        0
 91
        1
 62
     0
 92
       -2
340
90E
 93
        0
 40
0.045
309
GRIDFORMAT_END
 95
        2
302
GRIDFORMAT
  1
GRIDFORMAT_BEGIN
 90
        0
 91
        1
 62
     0
 92
       -2
340
90E
 93
        0
 40
0.045
309
GRIDFORMAT_END
 95
        4
302
GRIDFORMAT
  1
GRIDFORMAT_BEGIN
 90
        0
 91
        1
 62
     0
 92
       -2
340
90E
 93
        0
 40
0.045
309
GRIDFORMAT_END
 95
        8
302
GRIDFORMAT
  1
GRIDFORMAT_BEGIN
 90
        0
 91
        1
 62
     0
 92
       -2
340
90E
 93
        0
 40
0.045
309
GRIDFORMAT_END
 95
       16
302
GRIDFORMAT
  1
GRIDFORMAT_BEGIN
 90
        0
 91
        1
 62
     0
 92
       -2
340
90E
 93
        0
 40
0.045
309
GRIDFORMAT_END
 95
       32
302
GRIDFORMAT
  1
GRIDFORMAT_BEGIN
 90
        0
 91
        1
 62
     0
 92
       -2
340
90E
 93
        0
 40
0.045
309
GRIDFORMAT_END
309
TABLEFORMAT_END
  1
CELLSTYLE_BEGIN
 90
        3
 91
        2
300
_DATA
309
CELLSTYLE_END
  0
ENDSEC
  0
EOF
